999
dxfrw 0.6.3
  0
SECTION
  2
HEADER
  9
$ACADVER
  1
AC1021
  9
$DWGCODEPAGE
  3
ANSI_1252
  9
$INSBASE
 10
0
 20
0
 30
0
  9
$EXTMIN
 10
-710
 20
-380
 30
0
  9
$EXTMAX
 10
1049
 20
330
 30
0
  9
$LIMMIN
 10
0
 20
0
  9
$LIMMAX
 10
420
 20
297
  9
$ORTHOMODE
 70
    0
  9
$REGENMODE
 70
    1
  9
$FILLMODE
 70
    1
  9
$QTEXTMODE
 70
    0
  9
$MIRRTEXT
 70
    0
  9
$LTSCALE
 40
1
  9
$ATTMODE
 70
    0
  9
$TEXTSIZE
 40
2.5
  9
$TRACEWID
 40
15.68
  9
$TEXTSTYLE
  7
STANDARD
  9
$CLAYER
  8
Cut
  9
$CELTYPE
  6
BYLAYER
  9
$CECOLOR
 62
  256
  9
$CELTSCALE
 40
1
  9
$DISPSILH
 70
    0
  9
$DIMSCALE
 40
2.5
  9
$DIMASZ
 40
2.5
  9
$DIMEXO
 40
0.625
  9
$DIMDLI
 40
3.75
  9
$DIMRND
 40
0
  9
$DIMDLE
 40
0
  9
$DIMEXE
 40
1.25
  9
$DIMTP
 40
0
  9
$DIMTM
 40
0
  9
$DIMTXT
 40
2.5
  9
$DIMCEN
 40
2.5
  9
$DIMTSZ
 40
0
  9
$DIMTOL
 70
    0
  9
$DIMLIM
 70
    0
  9
$DIMTIH
 70
    0
  9
$DIMTOH
 70
    0
  9
$DIMSE1
 70
    0
  9
$DIMSE2
 70
    0
  9
$DIMTAD
 70
    1
  9
$DIMZIN
 70
    8
  9
$DIMBLK
  1

  9
$DIMASO
 70
    1
  9
$DIMSHO
 70
    1
  9
$DIMPOST
  1

  9
$DIMAPOST
  1

  9
$DIMALT
 70
    0
  9
$DIMALTD
 70
    3
  9
$DIMALTF
 40
0.03937
  9
$DIMLFAC
 40
1
  9
$DIMTOFL
 70
    1
  9
$DIMTVP
 40
0
  9
$DIMTIX
 70
    0
  9
$DIMSOXD
 70
    0
  9
$DIMSAH
 70
    0
  9
$DIMBLK1
  1

  9
$DIMBLK2
  1

  9
$DIMSTYLE
  2
STANDARD
  9
$DIMCLRD
 70
    0
  9
$DIMCLRE
 70
    0
  9
$DIMCLRT
 70
    0
  9
$DIMTFAC
 40
1
  9
$DIMGAP
 40
0.625
  9
$DIMJUST
 70
    0
  9
$DIMSD1
 70
    0
  9
$DIMSD2
 70
    0
  9
$DIMTOLJ
 70
    0
  9
$DIMTZIN
 70
    8
  9
$DIMALTZ
 70
    0
  9
$DIMALTTZ
 70
    0
  9
$DIMUPT
 70
    0
  9
$DIMDEC
 70
    2
  9
$DIMTDEC
 70
    2
  9
$DIMALTU
 70
    2
  9
$DIMALTTD
 70
    3
  9
$DIMTXSTY
  7
STANDARD
  9
$DIMAUNIT
 70
    0
  9
$DIMADEC
 70
    0
  9
$DIMALTRND
 40
0
  9
$DIMAZIN
 70
    0
  9
$DIMDSEP
 70
   44
  9
$DIMATFIT
 70
    3
  9
$DIMFRAC
 70
    0
  9
$DIMLDRBLK
  1
STANDARD
  9
$DIMLUNIT
 70
    2
  9
$DIMLWD
 70
   -2
  9
$DIMLWE
 70
   -2
  9
$DIMTMOVE
 70
    0
  9
$DIMFXL
 40
1
  9
$DIMFXLON
 70
    0
  9
$DIMJOGANG
 40
0.7854
  9
$DIMTFILL
 70
    0
  9
$DIMTFILLCLR
 70
    0
  9
$DIMARCSYM
 70
    0
  9
$DIMLTYPE
  6

  9
$DIMLTEX1
  6

  9
$DIMLTEX2
  6

  9
$LUNITS
 70
    2
  9
$LUPREC
 70
    4
  9
$SKETCHINC
 40
1
  9
$FILLETRAD
 40
0
  9
$AUNITS
 70
    0
  9
$AUPREC
 70
    2
  9
$MENU
  1
.
  9
$ELEVATION
 40
0
  9
$PELEVATION
 40
0
  9
$THICKNESS
 40
0
  9
$LIMCHECK
 70
    0
  9
$CHAMFERA
 40
0
  9
$CHAMFERB
 40
0
  9
$CHAMFERC
 40
0
  9
$CHAMFERD
 40
0
  9
$SKPOLY
 70
    0
  9
$USRTIMER
 70
    1
  9
$ANGBASE
 50
0
  9
$ANGDIR
 70
    0
  9
$PDMODE
 70
   34
  9
$PDSIZE
 40
0
  9
$PLINEWID
 40
0
  9
$SPLFRAME
 70
    0
  9
$SPLINETYPE
 70
    2
  9
$SPLINESEGS
 70
    8
  9
$HANDSEED
  5
20000
  9
$SURFTAB1
 70
    6
  9
$SURFTAB2
 70
    6
  9
$SURFTYPE
 70
    6
  9
$SURFU
 70
    6
  9
$SURFV
 70
    6
  9
$UCSBASE
  2

  9
$UCSNAME
  2

  9
$UCSORG
 10
0
 20
0
 30
0
  9
$UCSXDIR
 10
1
 20
0
 30
0
  9
$UCSYDIR
 10
0
 20
1
 30
0
  9
$UCSORTHOREF
  2

  9
$UCSORTHOVIEW
 70
    0
  9
$UCSORGTOP
 10
0
 20
0
 30
0
  9
$UCSORGBOTTOM
 10
0
 20
0
 30
0
  9
$UCSORGLEFT
 10
0
 20
0
 30
0
  9
$UCSORGRIGHT
 10
0
 20
0
 30
0
  9
$UCSORGFRONT
 10
0
 20
0
 30
0
  9
$UCSORGBACK
 10
0
 20
0
 30
0
  9
$PUCSBASE
  2

  9
$PUCSNAME
  2

  9
$PUCSORG
 10
0
 20
0
 30
0
  9
$PUCSXDIR
 10
1
 20
0
 30
0
  9
$PUCSYDIR
 10
0
 20
1
 30
0
  9
$PUCSORTHOREF
  2

  9
$PUCSORTHOVIEW
 70
    0
  9
$PUCSORGTOP
 10
0
 20
0
 30
0
  9
$PUCSORGBOTTOM
 10
0
 20
0
 30
0
  9
$PUCSORGLEFT
 10
0
 20
0
 30
0
  9
$PUCSORGRIGHT
 10
0
 20
0
 30
0
  9
$PUCSORGFRONT
 10
0
 20
0
 30
0
  9
$PUCSORGBACK
 10
0
 20
0
 30
0
  9
$USERI1
 70
    0
  9
$USERI2
 70
    0
  9
$USERI3
 70
    0
  9
$USERI4
 70
    0
  9
$USERI5
 70
    0
  9
$USERR1
 40
0
  9
$USERR2
 40
0
  9
$USERR3
 40
0
  9
$USERR4
 40
0
  9
$USERR5
 40
0
  9
$WORLDVIEW
 70
    1
  9
$SHADEDGE
 70
    3
  9
$SHADEDIF
 70
   70
  9
$TILEMODE
 70
    1
  9
$MAXACTVP
 70
   64
  9
$PINSBASE
 10
0
 20
0
 30
0
  9
$PLIMCHECK
 70
    0
  9
$PEXTMIN
 10
0
 20
0
 30
0
  9
$PEXTMAX
 10
0
 20
0
 30
0
  9
$GRIDMODE
 70
    1
  9
$SNAPSTYLE
 70
    0
  9
$PLIMMIN
 10
0
 20
0
  9
$PLIMMAX
 10
210
 20
297
  9
$UNITMODE
 70
    0
  9
$VISRETAIN
 70
    1
  9
$PLINEGEN
 70
    0
  9
$PSLTSCALE
 70
    1
  9
$TREEDEPTH
 70
 3020
  9
$CMLSTYLE
  2
Standard
  9
$CMLJUST
 70
    0
  9
$CMLSCALE
 40
20
  9
$PROXYGRAPHICS
 70
    1
  9
$MEASUREMENT
 70
    1
  9
$CELWEIGHT
370
   -1
  9
$ENDCAPS
280
    0
  9
$JOINSTYLE
280
    0
  9
$LWDISPLAY
290
    0
  9
$INSUNITS
 70
    4
  9
$HYPERLINKBASE
  1

  9
$STYLESHEET
  1

  9
$XEDIT
290
    1
  9
$CEPSNTYPE
380
    0
  9
$PSTYLEMODE
290
    1
  9
$EXTNAMES
290
    1
  9
$PSVPSCALE
 40
1
  9
$OLESTARTUP
290
    0
  9
$SORTENTS
280
  127
  9
$INDEXCTL
280
    0
  9
$HIDETEXT
280
    1
  9
$XCLIPFRAME
290
    0
  9
$HALOGAP
280
    0
  9
$OBSCOLOR
 70
  257
  9
$OBSLTYPE
280
    0
  9
$INTERSECTIONDISPLAY
280
    0
  9
$INTERSECTIONCOLOR
 70
  257
  9
$DIMASSOC
280
    1
  9
$PROJECTNAME
  1

  9
$CAMERADISPLAY
290
    0
  9
$LENSLENGTH
 40
50
  9
$CAMERAHEIGHT
 40
0
  9
$STEPSPERSEC
 40
2
  9
$STEPSIZE
 40
50
  9
$3DDWFPREC
 40
2
  9
$PSOLWIDTH
 40
5
  9
$PSOLHEIGHT
 40
80
  9
$LOFTANG1
 40
1.570796326794897
  9
$LOFTANG2
 40
1.570796326794897
  9
$LOFTMAG1
 40
0
  9
$LOFTMAG2
 40
0
  9
$LOFTPARAM
 70
    7
  9
$LOFTNORMALS
280
    1
  9
$LATITUDE
 40
1
  9
$LONGITUDE
 40
1
  9
$NORTHDIRECTION
 40
0
  9
$TIMEZONE
 70
-8000
  9
$LIGHTGLYPHDISPLAY
280
    1
  9
$TILEMODELIGHTSYNCH
280
    1
  9
$SOLIDHIST
280
    1
  9
$SHOWHIST
280
    1
  9
$DWFFRAME
280
    2
  9
$DGNFRAME
280
    0
  9
$REALWORLDSCALE
290
    1
  9
$INTERFERECOLOR
 62
    1
  9
$CSHADOW
280
    0
  9
$SHADOWPLANELOCATION
 40
0
  0
ENDSEC
  0
SECTION
  2
CLASSES
  0
ENDSEC
  0
SECTION
  2
TABLES
  0
TABLE
  2
VPORT
  5
8
330
0
100
AcDbSymbolTable
 70
    1
  0
VPORT
  5
31
330
2
100
AcDbSymbolTableRecord
100
AcDbViewportTableRecord
  2
*ACTIVE
 70
    0
 10
0
 20
0
 11
1
 21
1
 12
962.4152449666702
 22
412.6026934943055
 13
0
 23
0
 14
10
 24
10
 15
10
 25
10
 16
0
 26
0
 36
1
 17
0
 27
0
 37
0
 40
1691.281795502602
 41
1.800920598388953
 42
50
 43
0
 44
0
 50
0
 51
0
 71
    0
 72
  100
 73
    1
 74
    3
 75
    0
 76
    1
 77
    0
 78
    0
281
    0
 65
    1
110
0
120
0
130
0
111
1
121
0
131
0
112
0
122
1
132
0
 79
    0
146
0
348
10020
 60
    7
 61
    5
292
1
282
    1
141
0
142
0
 63
  250
421
3358443
  0
ENDTAB
  0
TABLE
  2
LTYPE
  5
5
330
0
100
AcDbSymbolTable
 70
    4
  0
LTYPE
  5
14
330
5
100
AcDbSymbolTableRecord
100
AcDbLinetypeTableRecord
  2
ByBlock
 70
    0
  3

 72
   65
 73
    0
 40
0
  0
LTYPE
  5
15
330
5
100
AcDbSymbolTableRecord
100
AcDbLinetypeTableRecord
  2
ByLayer
 70
    0
  3

 72
   65
 73
    0
 40
0
  0
LTYPE
  5
16
330
5
100
AcDbSymbolTableRecord
100
AcDbLinetypeTableRecord
  2
Continuous
 70
    0
  3
Solid line
 72
   65
 73
    0
 40
0
  0
LTYPE
  5
32
330
5
100
AcDbSymbolTableRecord
100
AcDbLinetypeTableRecord
  2
DOT
 70
    0
  3
Dot . . . . . . . . . . . . . . . . . . . . . .
 72
   65
 73
    2
 40
6.35
 49
0
 74
    0
 49
-6.35
 74
    0
  0
LTYPE
  5
33
330
5
100
AcDbSymbolTableRecord
100
AcDbLinetypeTableRecord
  2
DOTTINY
 70
    0
  3
Dot (.15x) .....................................
 72
   65
 73
    2
 40
0.9525
 49
0
 74
    0
 49
-0.9525
 74
    0
  0
LTYPE
  5
34
330
5
100
AcDbSymbolTableRecord
100
AcDbLinetypeTableRecord
  2
DOT2
 70
    0
  3
Dot (.5x) .....................................
 72
   65
 73
    2
 40
3.175
 49
0
 74
    0
 49
-3.175
 74
    0
  0
LTYPE
  5
35
330
5
100
AcDbSymbolTableRecord
100
AcDbLinetypeTableRecord
  2
DOTX2
 70
    0
  3
Dot (2x) .  .  .  .  .  .  .  .  .  .  .  .  .
 72
   65
 73
    2
 40
12.7
 49
0
 74
    0
 49
-12.7
 74
    0
  0
LTYPE
  5
36
330
5
100
AcDbSymbolTableRecord
100
AcDbLinetypeTableRecord
  2
DASHED
 70
    0
  3
Dashed _ _ _ _ _ _ _ _ _ _ _ _ _ _ _ _ _
 72
   65
 73
    2
 40
19.05
 49
12.7
 74
    0
 49
-6.35
 74
    0
  0
LTYPE
  5
37
330
5
100
AcDbSymbolTableRecord
100
AcDbLinetypeTableRecord
  2
DASHEDTINY
 70
    0
  3
Dashed (.15x) _ _ _ _ _ _ _ _ _ _ _ _ _ _ _ _ _
 72
   65
 73
    2
 40
2.8575
 49
1.905
 74
    0
 49
-0.9525
 74
    0
  0
LTYPE
  5
38
330
5
100
AcDbSymbolTableRecord
100
AcDbLinetypeTableRecord
  2
DASHED2
 70
    0
  3
Dashed (.5x) _ _ _ _ _ _ _ _ _ _ _ _ _ _ _ _ _
 72
   65
 73
    2
 40
9.524999999999999
 49
6.35
 74
    0
 49
-3.175
 74
    0
  0
LTYPE
  5
39
330
5
100
AcDbSymbolTableRecord
100
AcDbLinetypeTableRecord
  2
DASHEDX2
 70
    0
  3
Dashed (2x) ____  ____  ____  ____  ____  ___
 72
   65
 73
    2
 40
38.09999999999999
 49
25.4
 74
    0
 49
-12.7
 74
    0
  0
LTYPE
  5
3A
330
5
100
AcDbSymbolTableRecord
100
AcDbLinetypeTableRecord
  2
DASHDOT
 70
    0
  3
Dash dot __ . __ . __ . __ . __ . __ . __ . __
 72
   65
 73
    4
 40
25.4
 49
12.7
 74
    0
 49
-6.35
 74
    0
 49
0
 74
    0
 49
-6.35
 74
    0
  0
LTYPE
  5
3B
330
5
100
AcDbSymbolTableRecord
100
AcDbLinetypeTableRecord
  2
DASHDOTTINY
 70
    0
  3
Dash dot (.15x) _._._._._._._._._._._._._._._.
 72
   65
 73
    4
 40
3.81
 49
1.905
 74
    0
 49
-0.9525
 74
    0
 49
0
 74
    0
 49
-0.9525
 74
    0
  0
LTYPE
  5
3C
330
5
100
AcDbSymbolTableRecord
100
AcDbLinetypeTableRecord
  2
DASHDOT2
 70
    0
  3
Dash dot (.5x) _._._._._._._._._._._._._._._.
 72
   65
 73
    4
 40
12.7
 49
6.35
 74
    0
 49
-3.175
 74
    0
 49
0
 74
    0
 49
-3.175
 74
    0
  0
LTYPE
  5
3D
330
5
100
AcDbSymbolTableRecord
100
AcDbLinetypeTableRecord
  2
DASHDOTX2
 70
    0
  3
Dash dot (2x) ____  .  ____  .  ____  .  ___
 72
   65
 73
    4
 40
50.8
 49
25.4
 74
    0
 49
-12.7
 74
    0
 49
0
 74
    0
 49
-12.7
 74
    0
  0
LTYPE
  5
3E
330
5
100
AcDbSymbolTableRecord
100
AcDbLinetypeTableRecord
  2
DIVIDE
 70
    0
  3
Divide ____ . . ____ . . ____ . . ____ . . ____
 72
   65
 73
    6
 40
31.75
 49
12.7
 74
    0
 49
-6.35
 74
    0
 49
0
 74
    0
 49
-6.35
 74
    0
 49
0
 74
    0
 49
-6.35
 74
    0
  0
LTYPE
  5
3F
330
5
100
AcDbSymbolTableRecord
100
AcDbLinetypeTableRecord
  2
DIVIDETINY
 70
    0
  3
Divide (.15x) __..__..__..__..__..__..__..__.._
 72
   65
 73
    6
 40
4.7625
 49
1.905
 74
    0
 49
-0.9525
 74
    0
 49
0
 74
    0
 49
-0.9525
 74
    0
 49
0
 74
    0
 49
-0.9525
 74
    0
  0
LTYPE
  5
40
330
5
100
AcDbSymbolTableRecord
100
AcDbLinetypeTableRecord
  2
DIVIDE2
 70
    0
  3
Divide (.5x) __..__..__..__..__..__..__..__.._
 72
   65
 73
    6
 40
15.875
 49
6.35
 74
    0
 49
-3.175
 74
    0
 49
0
 74
    0
 49
-3.175
 74
    0
 49
0
 74
    0
 49
-3.175
 74
    0
  0
LTYPE
  5
41
330
5
100
AcDbSymbolTableRecord
100
AcDbLinetypeTableRecord
  2
DIVIDEX2
 70
    0
  3
Divide (2x) ________  .  .  ________  .  .  _
 72
   65
 73
    6
 40
63.5
 49
25.4
 74
    0
 49
-12.7
 74
    0
 49
0
 74
    0
 49
-12.7
 74
    0
 49
0
 74
    0
 49
-12.7
 74
    0
  0
LTYPE
  5
42
330
5
100
AcDbSymbolTableRecord
100
AcDbLinetypeTableRecord
  2
BORDER
 70
    0
  3
Border __ __ . __ __ . __ __ . __ __ . __ __ .
 72
   65
 73
    6
 40
44.45
 49
12.7
 74
    0
 49
-6.35
 74
    0
 49
12.7
 74
    0
 49
-6.35
 74
    0
 49
0
 74
    0
 49
-6.35
 74
    0
  0
LTYPE
  5
43
330
5
100
AcDbSymbolTableRecord
100
AcDbLinetypeTableRecord
  2
BORDERTINY
 70
    0
  3
Border (.15x) __.__.__.__.__.__.__.__.__.__.__.
 72
   65
 73
    6
 40
6.6675
 49
1.905
 74
    0
 49
-0.9525
 74
    0
 49
1.905
 74
    0
 49
-0.9525
 74
    0
 49
0
 74
    0
 49
-0.9525
 74
    0
  0
LTYPE
  5
44
330
5
100
AcDbSymbolTableRecord
100
AcDbLinetypeTableRecord
  2
BORDER2
 70
    0
  3
Border (.5x) __.__.__.__.__.__.__.__.__.__.__.
 72
   65
 73
    6
 40
22.225
 49
6.35
 74
    0
 49
-3.175
 74
    0
 49
6.35
 74
    0
 49
-3.175
 74
    0
 49
0
 74
    0
 49
-3.175
 74
    0
  0
LTYPE
  5
45
330
5
100
AcDbSymbolTableRecord
100
AcDbLinetypeTableRecord
  2
BORDERX2
 70
    0
  3
Border (2x) ____  ____  .  ____  ____  .  ___
 72
   65
 73
    6
 40
88.89999999999999
 49
25.4
 74
    0
 49
-12.7
 74
    0
 49
25.4
 74
    0
 49
-12.7
 74
    0
 49
0
 74
    0
 49
-12.7
 74
    0
  0
LTYPE
  5
46
330
5
100
AcDbSymbolTableRecord
100
AcDbLinetypeTableRecord
  2
CENTER
 70
    0
  3
Center ____ _ ____ _ ____ _ ____ _ ____ _ ____
 72
   65
 73
    4
 40
50.8
 49
31.75
 74
    0
 49
-6.35
 74
    0
 49
6.35
 74
    0
 49
-6.35
 74
    0
  0
LTYPE
  5
47
330
5
100
AcDbSymbolTableRecord
100
AcDbLinetypeTableRecord
  2
CENTERTINY
 70
    0
  3
Center (.15x) ___ _ ___ _ ___ _ ___ _ ___ _ ___
 72
   65
 73
    4
 40
7.619999999999999
 49
4.7625
 74
    0
 49
-0.9525
 74
    0
 49
0.9525
 74
    0
 49
-0.9525
 74
    0
  0
LTYPE
  5
48
330
5
100
AcDbSymbolTableRecord
100
AcDbLinetypeTableRecord
  2
CENTER2
 70
    0
  3
Center (.5x) ___ _ ___ _ ___ _ ___ _ ___ _ ___
 72
   65
 73
    4
 40
28.575
 49
19.05
 74
    0
 49
-3.175
 74
    0
 49
3.175
 74
    0
 49
-3.175
 74
    0
  0
LTYPE
  5
49
330
5
100
AcDbSymbolTableRecord
100
AcDbLinetypeTableRecord
  2
CENTERX2
 70
    0
  3
Center (2x) ________  __  ________  __  _____
 72
   65
 73
    4
 40
101.6
 49
63.5
 74
    0
 49
-12.7
 74
    0
 49
12.7
 74
    0
 49
-12.7
 74
    0
  0
ENDTAB
  0
TABLE
  2
LAYER
  5
2
330
0
100
AcDbSymbolTable
 70
    1
  0
LAYER
  5
10
330
2
100
AcDbSymbolTableRecord
100
AcDbLayerTableRecord
  2
0
 70
    0
 62
    7
  6
CONTINUOUS
290
0
370
   70
390
F
1001
LibreCad
1070
    1
  0
LAYER
  5
4A
330
2
100
AcDbSymbolTableRecord
100
AcDbLayerTableRecord
  2
Cut
 70
    0
 62
    5
  6
CONTINUOUS
370
   35
390
F
  0
LAYER
  5
4B
330
2
100
AcDbSymbolTableRecord
100
AcDbLayerTableRecord
  2
subsidiary line
 70
    5
 62
    1
  6
DASHDOT2
290
0
370
   35
390
F
1001
LibreCad
1070
    1
  0
LAYER
  5
4C
330
2
100
AcDbSymbolTableRecord
100
AcDbLayerTableRecord
  2
subsidiary line (20mm)
 70
    1
 62
   16
420
8388608
  6
DOTTINY
290
0
370
    0
390
F
1001
LibreCad
1070
    1
  0
LAYER
  5
4D
330
2
100
AcDbSymbolTableRecord
100
AcDbLayerTableRecord
  2
subsidiary line (5mm)
 70
    1
 62
   16
420
8388608
  6
DASHDOTTINY
290
0
370
    5
390
F
1001
LibreCad
1070
    1
  0
ENDTAB
  0
TABLE
  2
STYLE
  5
3
330
0
100
AcDbSymbolTable
 70
    3
  0
STYLE
  5
4E
330
2
100
AcDbSymbolTableRecord
100
AcDbTextStyleTableRecord
  2
Standard
 70
    0
 40
0
 41
1
 50
0
 71
    0
 42
1
  3
txt
  4

  0
ENDTAB
  0
TABLE
  2
VIEW
  5
6
330
0
100
AcDbSymbolTable
 70
    0
  0
ENDTAB
  0
TABLE
  2
UCS
  5
7
330
0
100
AcDbSymbolTable
 70
    0
  0
ENDTAB
  0
TABLE
  2
APPID
  5
9
330
0
100
AcDbSymbolTable
 70
    1
  0
APPID
  5
12
330
9
100
AcDbSymbolTableRecord
100
AcDbRegAppTableRecord
  2
ACAD
 70
    0
  0
APPID
  5
4F
330
9
100
AcDbSymbolTableRecord
100
AcDbRegAppTableRecord
  2
LibreCad
 70
    0
  0
ENDTAB
  0
TABLE
  2
DIMSTYLE
  5
A
330
0
100
AcDbSymbolTable
 70
    1
100
AcDbDimStyleTable
 71
    1
  0
DIMSTYLE
105
50
330
A
100
AcDbSymbolTableRecord
100
AcDbDimStyleTableRecord
  2
Standard
 70
    0
 40
2.5
 41
2.5
 42
0.625
 43
0.38
 44
1.25
 45
0
 46
0
 47
0
 48
0
 49
1
140
2.5
141
0.09
142
0
143
25.4
144
1
145
0
146
1
147
0.625
148
0
 71
    0
 72
    0
 73
    0
 74
    1
 75
    0
 76
    0
 77
    0
 78
    8
 79
    0
170
    0
171
    2
172
    0
173
    0
174
    0
175
    0
176
    0
177
    0
178
    0
179
    0
271
    2
272
    4
273
    2
274
    2
275
    0
276
    0
277
    2
278
   44
279
    0
280
    0
281
    0
282
    0
283
    1
284
    0
285
    0
286
    0
288
    0
289
    3
340
STANDARD
341

371
   -2
372
   -2
  0
ENDTAB
  0
TABLE
  2
BLOCK_RECORD
  5
1
330
0
100
AcDbSymbolTable
 70
    2
  0
BLOCK_RECORD
  5
1F
330
1
100
AcDbSymbolTableRecord
100
AcDbBlockTableRecord
  2
*Model_Space
 70
    0
280
    1
281
    0
  0
BLOCK_RECORD
  5
1E
330
1
100
AcDbSymbolTableRecord
100
AcDbBlockTableRecord
  2
*Paper_Space
 70
    0
280
    1
281
    0
  0
ENDTAB
  0
ENDSEC
  0
SECTION
  2
BLOCKS
  0
BLOCK
  5
20
330
1F
100
AcDbEntity
  8
0
100
AcDbBlockBegin
  2
*Model_Space
 70
    0
 10
0
 20
0
 30
0
  3
*Model_Space
  1

  0
ENDBLK
  5
21
330
1F
100
AcDbEntity
  8
0
100
AcDbBlockEnd
  0
BLOCK
  5
1C
330
1B
100
AcDbEntity
  8
0
100
AcDbBlockBegin
  2
*Paper_Space
 70
    0
 10
0
 20
0
 30
0
  3
*Paper_Space
  1

  0
ENDBLK
  5
1D
330
1F
100
AcDbEntity
  8
0
100
AcDbBlockEnd
  0
ENDSEC
  0
SECTION
  2
ENTITIES
  0
LINE
  5
51
100
AcDbEntity
  8
subsidiary line
  6
ByLayer
 62
  256
370
   -1
100
AcDbLine
 10
0
 20
0
 11
10
 21
0
  0
LINE
  5
52
100
AcDbEntity
  8
subsidiary line
  6
ByLayer
 62
  256
370
   -1
100
AcDbLine
 10
2.020667218593133e-14
 20
330
 11
10.00000000000002
 21
330
  0
LINE
  5
53
100
AcDbEntity
  8
subsidiary line
  6
ByLayer
 62
  256
370
   -1
100
AcDbLine
 10
0
 20
0
 11
6.123233995736766e-16
 21
10
  0
LINE
  5
54
100
AcDbEntity
  8
subsidiary line
  6
ByLayer
 62
  256
370
   -1
100
AcDbLine
 10
330
 20
-8.082668874372531e-14
 11
330
 21
9.999999999999918
  0
LINE
  5
55
100
AcDbEntity
  8
subsidiary line
  6
ByLayer
 62
  256
370
   -1
100
AcDbLine
 10
330
 20
-8.082668874372531e-14
 11
330
 21
9.999999999999918
  0
LINE
  5
56
100
AcDbEntity
  8
subsidiary line (5mm)
  6
ByLayer
 62
  256
370
   -1
100
AcDbLine
 10
5
 20
-1.224646799147353e-15
 11
5.000000000000001
 21
9.999999999999998
  0
LINE
  5
57
100
AcDbEntity
  8
subsidiary line (5mm)
  6
ByLayer
 62
  256
370
   -1
100
AcDbLine
 10
325
 20
-8.021436534415164e-14
 11
325
 21
9.999999999999918
  0
LINE
  5
58
100
AcDbEntity
  8
subsidiary line (5mm)
  6
ByLayer
 62
  256
370
   -1
100
AcDbLine
 10
1.928818708657081e-14
 20
325
 11
10.00000000000002
 21
325
  0
LINE
  5
59
100
AcDbEntity
  8
subsidiary line
  6
ByLayer
 62
  256
370
   -1
100
AcDbLine
 10
0
 20
-10
 11
10
 21
-10
  0
LINE
  5
5A
100
AcDbEntity
  8
subsidiary line
  6
ByLayer
 62
  256
370
   -1
100
AcDbLine
 10
-6.79678973526781e-14
 20
-380
 11
9.999999999999932
 21
-380
  0
LINE
  5
5B
100
AcDbEntity
  8
subsidiary line (20mm)
  6
ByLayer
 62
  256
370
   -1
100
AcDbLine
 10
9.18485099360515e-16
 20
15
 11
10
 21
15
  0
LINE
  5
5C
100
AcDbEntity
  8
subsidiary line (20mm)
  6
ByLayer
 62
  256
370
   -1
100
AcDbLine
 10
2.143131898507868e-15
 20
35
 11
10
 21
35
  0
LINE
  5
5D
100
AcDbEntity
  8
subsidiary line (20mm)
  6
ByLayer
 62
  256
370
   -1
100
AcDbLine
 10
3.367778697655221e-15
 20
55
 11
10.00000000000001
 21
55
  0
LINE
  5
5E
100
AcDbEntity
  8
subsidiary line (20mm)
  6
ByLayer
 62
  256
370
   -1
100
AcDbLine
 10
4.592425496802574e-15
 20
75
 11
10.00000000000001
 21
75
  0
LINE
  5
5F
100
AcDbEntity
  8
subsidiary line (20mm)
  6
ByLayer
 62
  256
370
   -1
100
AcDbLine
 10
5.817072295949927e-15
 20
95
 11
10.00000000000001
 21
95
  0
LINE
  5
60
100
AcDbEntity
  8
subsidiary line (20mm)
  6
ByLayer
 62
  256
370
   -1
100
AcDbLine
 10
7.04171909509728e-15
 20
115
 11
10.00000000000001
 21
115
  0
LINE
  5
61
100
AcDbEntity
  8
subsidiary line (20mm)
  6
ByLayer
 62
  256
370
   -1
100
AcDbLine
 10
8.266365894244634e-15
 20
135
 11
10.00000000000001
 21
135
  0
LINE
  5
62
100
AcDbEntity
  8
subsidiary line (20mm)
  6
ByLayer
 62
  256
370
   -1
100
AcDbLine
 10
9.491012693391987e-15
 20
155
 11
10.00000000000001
 21
155
  0
LINE
  5
63
100
AcDbEntity
  8
subsidiary line (20mm)
  6
ByLayer
 62
  256
370
   -1
100
AcDbLine
 10
1.071565949253934e-14
 20
175
 11
10.00000000000002
 21
175
  0
LINE
  5
64
100
AcDbEntity
  8
subsidiary line (20mm)
  6
ByLayer
 62
  256
370
   -1
100
AcDbLine
 10
1.194030629168669e-14
 20
195
 11
10.00000000000002
 21
195
  0
LINE
  5
65
100
AcDbEntity
  8
subsidiary line (20mm)
  6
ByLayer
 62
  256
370
   -1
100
AcDbLine
 10
1.316495309083405e-14
 20
215
 11
10.00000000000002
 21
215
  0
LINE
  5
66
100
AcDbEntity
  8
subsidiary line (20mm)
  6
ByLayer
 62
  256
370
   -1
100
AcDbLine
 10
1.43895998899814e-14
 20
235
 11
10.00000000000002
 21
235
  0
LINE
  5
67
100
AcDbEntity
  8
subsidiary line (20mm)
  6
ByLayer
 62
  256
370
   -1
100
AcDbLine
 10
1.561424668912875e-14
 20
255
 11
10.00000000000002
 21
255
  0
LINE
  5
68
100
AcDbEntity
  8
subsidiary line (20mm)
  6
ByLayer
 62
  256
370
   -1
100
AcDbLine
 10
1.683889348827611e-14
 20
275
 11
10.00000000000002
 21
275
  0
LINE
  5
69
100
AcDbEntity
  8
subsidiary line (20mm)
  6
ByLayer
 62
  256
370
   -1
100
AcDbLine
 10
1.806354028742346e-14
 20
295
 11
10.00000000000003
 21
295
  0
LINE
  5
6A
100
AcDbEntity
  8
subsidiary line (20mm)
  6
ByLayer
 62
  256
370
   -1
100
AcDbLine
 10
1.928818708657082e-14
 20
315
 11
10.00000000000003
 21
315
  0
LINE
  5
6B
100
AcDbEntity
  8
subsidiary line (20mm)
  6
ByLayer
 62
  256
370
   -1
100
AcDbLine
 10
15
 20
-3.67394039744206e-15
 11
15
 21
9.999999999999996
  0
LINE
  5
6C
100
AcDbEntity
  8
subsidiary line (20mm)
  6
ByLayer
 62
  256
370
   -1
100
AcDbLine
 10
35
 20
-8.572527594031473e-15
 11
35
 21
9.999999999999991
  0
LINE
  5
6D
100
AcDbEntity
  8
subsidiary line (20mm)
  6
ByLayer
 62
  256
370
   -1
100
AcDbLine
 10
55
 20
-1.347111479062089e-14
 11
55
 21
9.999999999999986
  0
LINE
  5
6E
100
AcDbEntity
  8
subsidiary line (20mm)
  6
ByLayer
 62
  256
370
   -1
100
AcDbLine
 10
75
 20
-1.83697019872103e-14
 11
75
 21
9.99999999999998
  0
LINE
  5
6F
100
AcDbEntity
  8
subsidiary line (20mm)
  6
ByLayer
 62
  256
370
   -1
100
AcDbLine
 10
95
 20
-2.326828918379971e-14
 11
95
 21
9.999999999999975
  0
LINE
  5
70
100
AcDbEntity
  8
subsidiary line (20mm)
  6
ByLayer
 62
  256
370
   -1
100
AcDbLine
 10
115
 20
-2.816687638038912e-14
 11
115
 21
9.99999999999997
  0
LINE
  5
71
100
AcDbEntity
  8
subsidiary line (20mm)
  6
ByLayer
 62
  256
370
   -1
100
AcDbLine
 10
135
 20
-3.306546357697853e-14
 11
135
 21
9.999999999999964
  0
LINE
  5
72
100
AcDbEntity
  8
subsidiary line (20mm)
  6
ByLayer
 62
  256
370
   -1
100
AcDbLine
 10
155
 20
-3.796405077356795e-14
 11
155
 21
9.999999999999959
  0
LINE
  5
73
100
AcDbEntity
  8
subsidiary line (20mm)
  6
ByLayer
 62
  256
370
   -1
100
AcDbLine
 10
175
 20
-4.286263797015736e-14
 11
175
 21
9.999999999999954
  0
LINE
  5
74
100
AcDbEntity
  8
subsidiary line (20mm)
  6
ByLayer
 62
  256
370
   -1
100
AcDbLine
 10
195
 20
-4.776122516674677e-14
 11
195
 21
9.999999999999948
  0
LINE
  5
75
100
AcDbEntity
  8
subsidiary line (20mm)
  6
ByLayer
 62
  256
370
   -1
100
AcDbLine
 10
215
 20
-5.265981236333618e-14
 11
215
 21
9.999999999999943
  0
LINE
  5
76
100
AcDbEntity
  8
subsidiary line (20mm)
  6
ByLayer
 62
  256
370
   -1
100
AcDbLine
 10
235
 20
-5.75583995599256e-14
 11
235
 21
9.999999999999938
  0
LINE
  5
77
100
AcDbEntity
  8
subsidiary line (20mm)
  6
ByLayer
 62
  256
370
   -1
100
AcDbLine
 10
255
 20
-6.245698675651501e-14
 11
255
 21
9.999999999999932
  0
LINE
  5
78
100
AcDbEntity
  8
subsidiary line (20mm)
  6
ByLayer
 62
  256
370
   -1
100
AcDbLine
 10
275
 20
-6.735557395310443e-14
 11
275
 21
9.999999999999927
  0
LINE
  5
79
100
AcDbEntity
  8
subsidiary line (20mm)
  6
ByLayer
 62
  256
370
   -1
100
AcDbLine
 10
295
 20
-7.225416114969385e-14
 11
295
 21
9.999999999999922
  0
LINE
  5
7A
100
AcDbEntity
  8
subsidiary line (20mm)
  6
ByLayer
 62
  256
370
   -1
100
AcDbLine
 10
315
 20
-7.715274834628327e-14
 11
315
 21
9.999999999999917
  0
LINE
  5
7B
100
AcDbEntity
  8
Cut
  6
ByLayer
 62
  256
370
   -1
100
AcDbLine
 10
5
 20
5
 11
15
 21
5
  0
LINE
  5
7C
100
AcDbEntity
  8
Cut
  6
ByLayer
 62
  256
370
   -1
100
AcDbLine
 10
15
 20
5
 11
15
 21
0
  0
LINE
  5
7D
100
AcDbEntity
  8
Cut
  6
ByLayer
 62
  256
370
   -1
100
AcDbLine
 10
15
 20
0
 11
35
 21
0
  0
LINE
  5
7E
100
AcDbEntity
  8
Cut
  6
ByLayer
 62
  256
370
   -1
100
AcDbLine
 10
35
 20
0
 11
35
 21
5
  0
LINE
  5
7F
100
AcDbEntity
  8
Cut
  6
ByLayer
 62
  256
370
   -1
100
AcDbLine
 10
35
 20
5
 11
55
 21
5
  0
LINE
  5
80
100
AcDbEntity
  8
Cut
  6
ByLayer
 62
  256
370
   -1
100
AcDbLine
 10
55
 20
5
 11
55
 21
-1.347111479062089e-14
  0
LINE
  5
81
100
AcDbEntity
  8
Cut
  6
ByLayer
 62
  256
370
   -1
100
AcDbLine
 10
55
 20
-1.347111479062089e-14
 11
75
 21
-1.83697019872103e-14
  0
LINE
  5
82
100
AcDbEntity
  8
Cut
  6
ByLayer
 62
  256
370
   -1
100
AcDbLine
 10
75
 20
-1.83697019872103e-14
 11
75
 21
5
  0
LINE
  5
83
100
AcDbEntity
  8
Cut
  6
ByLayer
 62
  256
370
   -1
100
AcDbLine
 10
75
 20
5
 11
95
 21
5
  0
LINE
  5
84
100
AcDbEntity
  8
Cut
  6
ByLayer
 62
  256
370
   -1
100
AcDbLine
 10
95
 20
5
 11
95
 21
0
  0
LINE
  5
85
100
AcDbEntity
  8
Cut
  6
ByLayer
 62
  256
370
   -1
100
AcDbLine
 10
95
 20
0
 11
115
 21
0
  0
LINE
  5
86
100
AcDbEntity
  8
Cut
  6
ByLayer
 62
  256
370
   -1
100
AcDbLine
 10
115
 20
0
 11
115
 21
5
  0
LINE
  5
87
100
AcDbEntity
  8
Cut
  6
ByLayer
 62
  256
370
   -1
100
AcDbLine
 10
115
 20
5
 11
135
 21
5
  0
LINE
  5
88
100
AcDbEntity
  8
Cut
  6
ByLayer
 62
  256
370
   -1
100
AcDbLine
 10
135
 20
5
 11
135
 21
0
  0
LINE
  5
89
100
AcDbEntity
  8
Cut
  6
ByLayer
 62
  256
370
   -1
100
AcDbLine
 10
135
 20
0
 11
155
 21
0
  0
LINE
  5
8A
100
AcDbEntity
  8
Cut
  6
ByLayer
 62
  256
370
   -1
100
AcDbLine
 10
155
 20
0
 11
155
 21
5
  0
LINE
  5
8B
100
AcDbEntity
  8
Cut
  6
ByLayer
 62
  256
370
   -1
100
AcDbLine
 10
155
 20
5
 11
175
 21
5
  0
LINE
  5
8C
100
AcDbEntity
  8
Cut
  6
ByLayer
 62
  256
370
   -1
100
AcDbLine
 10
175
 20
5
 11
175
 21
0
  0
LINE
  5
8D
100
AcDbEntity
  8
Cut
  6
ByLayer
 62
  256
370
   -1
100
AcDbLine
 10
175
 20
0
 11
195
 21
0
  0
LINE
  5
8E
100
AcDbEntity
  8
Cut
  6
ByLayer
 62
  256
370
   -1
100
AcDbLine
 10
195
 20
0
 11
195
 21
5
  0
LINE
  5
8F
100
AcDbEntity
  8
Cut
  6
ByLayer
 62
  256
370
   -1
100
AcDbLine
 10
195
 20
5
 11
215
 21
5
  0
LINE
  5
90
100
AcDbEntity
  8
Cut
  6
ByLayer
 62
  256
370
   -1
100
AcDbLine
 10
215
 20
5
 11
215
 21
0
  0
LINE
  5
91
100
AcDbEntity
  8
Cut
  6
ByLayer
 62
  256
370
   -1
100
AcDbLine
 10
215
 20
0
 11
235
 21
0
  0
LINE
  5
92
100
AcDbEntity
  8
Cut
  6
ByLayer
 62
  256
370
   -1
100
AcDbLine
 10
235
 20
0
 11
235
 21
5
  0
LINE
  5
93
100
AcDbEntity
  8
Cut
  6
ByLayer
 62
  256
370
   -1
100
AcDbLine
 10
235
 20
5
 11
255
 21
5
  0
LINE
  5
94
100
AcDbEntity
  8
Cut
  6
ByLayer
 62
  256
370
   -1
100
AcDbLine
 10
255
 20
5
 11
255
 21
0
  0
LINE
  5
95
100
AcDbEntity
  8
Cut
  6
ByLayer
 62
  256
370
   -1
100
AcDbLine
 10
255
 20
0
 11
275
 21
0
  0
LINE
  5
96
100
AcDbEntity
  8
Cut
  6
ByLayer
 62
  256
370
   -1
100
AcDbLine
 10
275
 20
0
 11
275
 21
5
  0
LINE
  5
97
100
AcDbEntity
  8
Cut
  6
ByLayer
 62
  256
370
   -1
100
AcDbLine
 10
275
 20
5
 11
295
 21
5
  0
LINE
  5
98
100
AcDbEntity
  8
Cut
  6
ByLayer
 62
  256
370
   -1
100
AcDbLine
 10
295
 20
5
 11
295
 21
0
  0
LINE
  5
99
100
AcDbEntity
  8
Cut
  6
ByLayer
 62
  256
370
   -1
100
AcDbLine
 10
295
 20
0
 11
315
 21
0
  0
LINE
  5
9A
100
AcDbEntity
  8
Cut
  6
ByLayer
 62
  256
370
   -1
100
AcDbLine
 10
315
 20
0
 11
315
 21
5
  0
LINE
  5
9B
100
AcDbEntity
  8
Cut
  6
ByLayer
 62
  256
370
   -1
100
AcDbLine
 10
315
 20
5
 11
325
 21
5
  0
LINE
  5
9C
100
AcDbEntity
  8
Cut
  6
ByLayer
 62
  256
370
   -1
100
AcDbLine
 10
325
 20
5
 11
325
 21
15
  0
LINE
  5
9D
100
AcDbEntity
  8
Cut
  6
ByLayer
 62
  256
370
   -1
100
AcDbLine
 10
325
 20
15
 11
330
 21
15
  0
LINE
  5
9E
100
AcDbEntity
  8
Cut
  6
ByLayer
 62
  256
370
   -1
100
AcDbLine
 10
330
 20
15
 11
330
 21
35
  0
LINE
  5
9F
100
AcDbEntity
  8
Cut
  6
ByLayer
 62
  256
370
   -1
100
AcDbLine
 10
330
 20
35
 11
325
 21
35
  0
LINE
  5
A0
100
AcDbEntity
  8
Cut
  6
ByLayer
 62
  256
370
   -1
100
AcDbLine
 10
325
 20
35
 11
325
 21
55
  0
LINE
  5
A1
100
AcDbEntity
  8
Cut
  6
ByLayer
 62
  256
370
   -1
100
AcDbLine
 10
325
 20
55
 11
330
 21
55
  0
LINE
  5
A2
100
AcDbEntity
  8
Cut
  6
ByLayer
 62
  256
370
   -1
100
AcDbLine
 10
330
 20
55
 11
330
 21
75
  0
LINE
  5
A3
100
AcDbEntity
  8
Cut
  6
ByLayer
 62
  256
370
   -1
100
AcDbLine
 10
330
 20
75
 11
325
 21
75
  0
LINE
  5
A4
100
AcDbEntity
  8
Cut
  6
ByLayer
 62
  256
370
   -1
100
AcDbLine
 10
325
 20
75
 11
325
 21
95
  0
LINE
  5
A5
100
AcDbEntity
  8
Cut
  6
ByLayer
 62
  256
370
   -1
100
AcDbLine
 10
325
 20
95
 11
330
 21
95
  0
LINE
  5
A6
100
AcDbEntity
  8
Cut
  6
ByLayer
 62
  256
370
   -1
100
AcDbLine
 10
330
 20
95
 11
330
 21
115
  0
LINE
  5
A7
100
AcDbEntity
  8
Cut
  6
ByLayer
 62
  256
370
   -1
100
AcDbLine
 10
330
 20
115
 11
325
 21
115
  0
LINE
  5
A8
100
AcDbEntity
  8
Cut
  6
ByLayer
 62
  256
370
   -1
100
AcDbLine
 10
325
 20
115
 11
325
 21
135
  0
LINE
  5
A9
100
AcDbEntity
  8
Cut
  6
ByLayer
 62
  256
370
   -1
100
AcDbLine
 10
325
 20
135
 11
330
 21
135
  0
LINE
  5
AA
100
AcDbEntity
  8
Cut
  6
ByLayer
 62
  256
370
   -1
100
AcDbLine
 10
330
 20
135
 11
330
 21
155
  0
LINE
  5
AB
100
AcDbEntity
  8
Cut
  6
ByLayer
 62
  256
370
   -1
100
AcDbLine
 10
330
 20
155
 11
325
 21
155
  0
LINE
  5
AC
100
AcDbEntity
  8
Cut
  6
ByLayer
 62
  256
370
   -1
100
AcDbLine
 10
325
 20
155
 11
325
 21
175
  0
LINE
  5
AD
100
AcDbEntity
  8
Cut
  6
ByLayer
 62
  256
370
   -1
100
AcDbLine
 10
325
 20
175
 11
330
 21
175
  0
LINE
  5
AE
100
AcDbEntity
  8
Cut
  6
ByLayer
 62
  256
370
   -1
100
AcDbLine
 10
330
 20
175
 11
330
 21
195
  0
LINE
  5
AF
100
AcDbEntity
  8
Cut
  6
ByLayer
 62
  256
370
   -1
100
AcDbLine
 10
330
 20
195
 11
325
 21
195
  0
LINE
  5
B0
100
AcDbEntity
  8
Cut
  6
ByLayer
 62
  256
370
   -1
100
AcDbLine
 10
325
 20
195
 11
325
 21
215
  0
LINE
  5
B1
100
AcDbEntity
  8
Cut
  6
ByLayer
 62
  256
370
   -1
100
AcDbLine
 10
325
 20
215
 11
330
 21
215
  0
LINE
  5
B2
100
AcDbEntity
  8
Cut
  6
ByLayer
 62
  256
370
   -1
100
AcDbLine
 10
330
 20
215
 11
330
 21
235
  0
LINE
  5
B3
100
AcDbEntity
  8
Cut
  6
ByLayer
 62
  256
370
   -1
100
AcDbLine
 10
330
 20
235
 11
325
 21
235
  0
LINE
  5
B4
100
AcDbEntity
  8
Cut
  6
ByLayer
 62
  256
370
   -1
100
AcDbLine
 10
325
 20
235
 11
325
 21
255
  0
LINE
  5
B5
100
AcDbEntity
  8
Cut
  6
ByLayer
 62
  256
370
   -1
100
AcDbLine
 10
325
 20
255
 11
330
 21
255
  0
LINE
  5
B6
100
AcDbEntity
  8
Cut
  6
ByLayer
 62
  256
370
   -1
100
AcDbLine
 10
330
 20
255
 11
330
 21
275
  0
LINE
  5
B7
100
AcDbEntity
  8
Cut
  6
ByLayer
 62
  256
370
   -1
100
AcDbLine
 10
330
 20
275
 11
325
 21
275
  0
LINE
  5
B8
100
AcDbEntity
  8
Cut
  6
ByLayer
 62
  256
370
   -1
100
AcDbLine
 10
325
 20
275
 11
325
 21
295
  0
LINE
  5
B9
100
AcDbEntity
  8
Cut
  6
ByLayer
 62
  256
370
   -1
100
AcDbLine
 10
325
 20
295
 11
330
 21
295
  0
LINE
  5
BA
100
AcDbEntity
  8
Cut
  6
ByLayer
 62
  256
370
   -1
100
AcDbLine
 10
330
 20
295
 11
330
 21
315
  0
LINE
  5
BB
100
AcDbEntity
  8
Cut
  6
ByLayer
 62
  256
370
   -1
100
AcDbLine
 10
330
 20
315
 11
325
 21
315
  0
LINE
  5
BC
100
AcDbEntity
  8
Cut
  6
ByLayer
 62
  256
370
   -1
100
AcDbLine
 10
325
 20
315
 11
325
 21
330
  0
LINE
  5
BD
100
AcDbEntity
  8
Cut
  6
ByLayer
 62
  256
370
   -1
100
AcDbLine
 10
325
 20
330
 11
5.000000000000029
 21
330
  0
LINE
  5
BE
100
AcDbEntity
  8
Cut
  6
ByLayer
 62
  256
370
   -1
100
AcDbLine
 10
5.000000000000029
 20
330
 11
5.000000000000028
 21
315
  0
LINE
  5
BF
100
AcDbEntity
  8
Cut
  6
ByLayer
 62
  256
370
   -1
100
AcDbLine
 10
5.000000000000028
 20
315
 11
1.928818708657082e-14
 21
315
  0
LINE
  5
C0
100
AcDbEntity
  8
Cut
  6
ByLayer
 62
  256
370
   -1
100
AcDbLine
 10
1.928818708657082e-14
 20
315
 11
1.806354028742346e-14
 21
295
  0
LINE
  5
C1
100
AcDbEntity
  8
Cut
  6
ByLayer
 62
  256
370
   -1
100
AcDbLine
 10
1.806354028742346e-14
 20
295
 11
5.000000000000027
 21
295
  0
LINE
  5
C2
100
AcDbEntity
  8
Cut
  6
ByLayer
 62
  256
370
   -1
100
AcDbLine
 10
5.000000000000027
 20
295
 11
5.000000000000025
 21
275
  0
LINE
  5
C3
100
AcDbEntity
  8
Cut
  6
ByLayer
 62
  256
370
   -1
100
AcDbLine
 10
5.000000000000025
 20
275
 11
1.683889348827611e-14
 21
275
  0
LINE
  5
C4
100
AcDbEntity
  8
Cut
  6
ByLayer
 62
  256
370
   -1
100
AcDbLine
 10
1.683889348827611e-14
 20
275
 11
1.561424668912875e-14
 21
255
  0
LINE
  5
C5
100
AcDbEntity
  8
Cut
  6
ByLayer
 62
  256
370
   -1
100
AcDbLine
 10
1.561424668912875e-14
 20
255
 11
5.000000000000023
 21
255
  0
LINE
  5
C6
100
AcDbEntity
  8
Cut
  6
ByLayer
 62
  256
370
   -1
100
AcDbLine
 10
5.000000000000023
 20
255
 11
5.000000000000021
 21
235
  0
LINE
  5
C7
100
AcDbEntity
  8
Cut
  6
ByLayer
 62
  256
370
   -1
100
AcDbLine
 10
5.000000000000021
 20
235
 11
1.43895998899814e-14
 21
235
  0
LINE
  5
C8
100
AcDbEntity
  8
Cut
  6
ByLayer
 62
  256
370
   -1
100
AcDbLine
 10
1.43895998899814e-14
 20
235
 11
1.316495309083405e-14
 21
215
  0
LINE
  5
C9
100
AcDbEntity
  8
Cut
  6
ByLayer
 62
  256
370
   -1
100
AcDbLine
 10
1.316495309083405e-14
 20
215
 11
5.00000000000002
 21
215
  0
LINE
  5
CA
100
AcDbEntity
  8
Cut
  6
ByLayer
 62
  256
370
   -1
100
AcDbLine
 10
5.00000000000002
 20
215
 11
5.000000000000018
 21
195
  0
LINE
  5
CB
100
AcDbEntity
  8
Cut
  6
ByLayer
 62
  256
370
   -1
100
AcDbLine
 10
5.000000000000018
 20
195
 11
1.194030629168669e-14
 21
195
  0
LINE
  5
CC
100
AcDbEntity
  8
Cut
  6
ByLayer
 62
  256
370
   -1
100
AcDbLine
 10
1.194030629168669e-14
 20
195
 11
1.071565949253934e-14
 21
175
  0
LINE
  5
CD
100
AcDbEntity
  8
Cut
  6
ByLayer
 62
  256
370
   -1
100
AcDbLine
 10
1.071565949253934e-14
 20
175
 11
5.000000000000016
 21
175
  0
LINE
  5
CE
100
AcDbEntity
  8
Cut
  6
ByLayer
 62
  256
370
   -1
100
AcDbLine
 10
5.000000000000016
 20
175
 11
5.000000000000014
 21
155
  0
LINE
  5
CF
100
AcDbEntity
  8
Cut
  6
ByLayer
 62
  256
370
   -1
100
AcDbLine
 10
5.000000000000014
 20
155
 11
9.491012693391987e-15
 21
155
  0
LINE
  5
D0
100
AcDbEntity
  8
Cut
  6
ByLayer
 62
  256
370
   -1
100
AcDbLine
 10
9.491012693391987e-15
 20
155
 11
8.266365894244634e-15
 21
135
  0
LINE
  5
D1
100
AcDbEntity
  8
Cut
  6
ByLayer
 62
  256
370
   -1
100
AcDbLine
 10
8.266365894244634e-15
 20
135
 11
5.000000000000012
 21
135
  0
LINE
  5
D2
100
AcDbEntity
  8
Cut
  6
ByLayer
 62
  256
370
   -1
100
AcDbLine
 10
5.000000000000012
 20
135
 11
5.000000000000011
 21
115
  0
LINE
  5
D3
100
AcDbEntity
  8
Cut
  6
ByLayer
 62
  256
370
   -1
100
AcDbLine
 10
5.000000000000011
 20
115
 11
7.04171909509728e-15
 21
115
  0
LINE
  5
D4
100
AcDbEntity
  8
Cut
  6
ByLayer
 62
  256
370
   -1
100
AcDbLine
 10
7.04171909509728e-15
 20
115
 11
5.817072295949927e-15
 21
95
  0
LINE
  5
D5
100
AcDbEntity
  8
Cut
  6
ByLayer
 62
  256
370
   -1
100
AcDbLine
 10
5.817072295949927e-15
 20
95
 11
5.000000000000009
 21
95
  0
LINE
  5
D6
100
AcDbEntity
  8
Cut
  6
ByLayer
 62
  256
370
   -1
100
AcDbLine
 10
5.000000000000009
 20
95
 11
5.000000000000007
 21
75
  0
LINE
  5
D7
100
AcDbEntity
  8
Cut
  6
ByLayer
 62
  256
370
   -1
100
AcDbLine
 10
5.000000000000007
 20
75
 11
4.592425496802574e-15
 21
75
  0
LINE
  5
D8
100
AcDbEntity
  8
Cut
  6
ByLayer
 62
  256
370
   -1
100
AcDbLine
 10
4.592425496802574e-15
 20
75
 11
3.367778697655221e-15
 21
55
  0
LINE
  5
D9
100
AcDbEntity
  8
Cut
  6
ByLayer
 62
  256
370
   -1
100
AcDbLine
 10
3.367778697655221e-15
 20
55
 11
5.000000000000005
 21
55
  0
LINE
  5
DA
100
AcDbEntity
  8
Cut
  6
ByLayer
 62
  256
370
   -1
100
AcDbLine
 10
5.000000000000005
 20
55
 11
5.000000000000004
 21
35
  0
LINE
  5
DB
100
AcDbEntity
  8
Cut
  6
ByLayer
 62
  256
370
   -1
100
AcDbLine
 10
5.000000000000004
 20
35
 11
2.143131898507868e-15
 21
35
  0
LINE
  5
DC
100
AcDbEntity
  8
Cut
  6
ByLayer
 62
  256
370
   -1
100
AcDbLine
 10
2.143131898507868e-15
 20
35
 11
9.18485099360515e-16
 21
15
  0
LINE
  5
DD
100
AcDbEntity
  8
Cut
  6
ByLayer
 62
  256
370
   -1
100
AcDbLine
 10
9.18485099360515e-16
 20
15
 11
5.000000000000002
 21
15
  0
LINE
  5
DE
100
AcDbEntity
  8
Cut
  6
ByLayer
 62
  256
370
   -1
100
AcDbLine
 10
5.000000000000002
 20
15
 11
5
 21
5
  0
LINE
  5
DF
100
AcDbEntity
  8
subsidiary line
  6
ByLayer
 62
  256
370
   -1
100
AcDbLine
 10
710
 20
-1.738998454789242e-13
 11
710
 21
9.999999999999826
  0
LINE
  5
E0
100
AcDbEntity
  8
subsidiary line
  6
ByLayer
 62
  256
370
   -1
100
AcDbLine
 10
340
 20
-1.285879139104721e-13
 11
340
 21
9.999999999999872
  0
LINE
  5
E1
100
AcDbEntity
  8
subsidiary line (5mm)
  6
ByLayer
 62
  256
370
   -1
100
AcDbLine
 10
345
 20
-1.298125607096195e-13
 11
345
 21
9.99999999999987
  0
LINE
  5
E2
100
AcDbEntity
  8
subsidiary line (5mm)
  6
ByLayer
 62
  256
370
   -1
100
AcDbLine
 10
705
 20
-1.732875220793505e-13
 11
705
 21
9.999999999999826
  0
LINE
  5
E3
100
AcDbEntity
  8
subsidiary line
  6
ByLayer
 62
  256
370
   -1
100
AcDbLine
 10
-6.184466335694133e-14
 20
-280
 11
9.999999999999938
 21
-280
  0
LINE
  5
E4
100
AcDbEntity
  8
subsidiary line
  6
ByLayer
 62
  256
370
   -1
100
AcDbLine
 10
-6.153850165715449e-14
 20
-275
 11
9.999999999999938
 21
-275
  0
LWPOLYLINE
  5
E5
100
AcDbEntity
  8
Cut
  6
ByLayer
 62
  256
370
   -1
100
AcDbPolyline
 90
    4
 70
    1
 43
0
 10
295
 20
-275
 10
315
 20
-275
 10
315
 20
-280
 10
295
 20
-280
  0
LWPOLYLINE
  5
E6
100
AcDbEntity
  8
Cut
  6
ByLayer
 62
  256
370
   -1
100
AcDbPolyline
 90
    4
 70
    1
 43
0
 10
275
 20
-280
 10
255
 20
-280
 10
255
 20
-275
 10
275
 20
-275
  0
LWPOLYLINE
  5
E7
100
AcDbEntity
  8
Cut
  6
ByLayer
 62
  256
370
   -1
100
AcDbPolyline
 90
    4
 70
    1
 43
0
 10
235
 20
-280
 10
215
 20
-280
 10
215
 20
-275
 10
235
 20
-275
  0
LWPOLYLINE
  5
E8
100
AcDbEntity
  8
Cut
  6
ByLayer
 62
  256
370
   -1
100
AcDbPolyline
 90
    4
 70
    1
 43
0
 10
195
 20
-280
 10
175
 20
-280
 10
175
 20
-275
 10
195
 20
-275
  0
LWPOLYLINE
  5
E9
100
AcDbEntity
  8
Cut
  6
ByLayer
 62
  256
370
   -1
100
AcDbPolyline
 90
    4
 70
    1
 43
0
 10
155
 20
-280
 10
135
 20
-280
 10
135
 20
-275
 10
155
 20
-275
  0
LWPOLYLINE
  5
EA
100
AcDbEntity
  8
Cut
  6
ByLayer
 62
  256
370
   -1
100
AcDbPolyline
 90
    4
 70
    1
 43
0
 10
115
 20
-275
 10
95
 20
-275
 10
95
 20
-280
 10
115
 20
-280
  0
LWPOLYLINE
  5
EB
100
AcDbEntity
  8
Cut
  6
ByLayer
 62
  256
370
   -1
100
AcDbPolyline
 90
    4
 70
    1
 43
0
 10
75
 20
-280
 10
55
 20
-280
 10
55
 20
-275
 10
75
 20
-275
  0
LWPOLYLINE
  5
EC
100
AcDbEntity
  8
Cut
  6
ByLayer
 62
  256
370
   -1
100
AcDbPolyline
 90
    4
 70
    1
 43
0
 10
35
 20
-280
 10
15
 20
-280
 10
15
 20
-275
 10
35
 20
-275
  0
LINE
  5
ED
100
AcDbEntity
  8
subsidiary line
  6
ByLayer
 62
  256
370
   -1
100
AcDbLine
 10
610
 20
-1.616533774874506e-13
 11
610
 21
9.999999999999838
  0
LINE
  5
EE
100
AcDbEntity
  8
subsidiary line
  6
ByLayer
 62
  256
370
   -1
100
AcDbLine
 10
605
 20
-1.610410540878769e-13
 11
605
 21
9.999999999999838
  0
LWPOLYLINE
  5
EF
100
AcDbEntity
  8
Cut
  6
ByLayer
 62
  256
370
   -1
100
AcDbPolyline
 90
    4
 70
    1
 43
0
 10
605
 20
15
 10
610
 20
15
 10
610
 20
35
 10
605
 20
35
  0
LWPOLYLINE
  5
F0
100
AcDbEntity
  8
Cut
  6
ByLayer
 62
  256
370
   -1
100
AcDbPolyline
 90
    4
 70
    1
 43
0
 10
610
 20
55
 10
605
 20
55
 10
605
 20
75
 10
610
 20
75
  0
LWPOLYLINE
  5
F1
100
AcDbEntity
  8
Cut
  6
ByLayer
 62
  256
370
   -1
100
AcDbPolyline
 90
    4
 70
    1
 43
0
 10
605
 20
95
 10
610
 20
95
 10
610
 20
115
 10
605
 20
115
  0
LWPOLYLINE
  5
F2
100
AcDbEntity
  8
Cut
  6
ByLayer
 62
  256
370
   -1
100
AcDbPolyline
 90
    4
 70
    1
 43
0
 10
610
 20
135
 10
605
 20
135
 10
605
 20
155
 10
610
 20
155
  0
LWPOLYLINE
  5
F3
100
AcDbEntity
  8
Cut
  6
ByLayer
 62
  256
370
   -1
100
AcDbPolyline
 90
    4
 70
    1
 43
0
 10
610
 20
175
 10
605
 20
175
 10
605
 20
195
 10
610
 20
195
  0
LWPOLYLINE
  5
F4
100
AcDbEntity
  8
Cut
  6
ByLayer
 62
  256
370
   -1
100
AcDbPolyline
 90
    4
 70
    1
 43
0
 10
605
 20
215
 10
610
 20
215
 10
610
 20
235
 10
605
 20
235
  0
LWPOLYLINE
  5
F5
100
AcDbEntity
  8
Cut
  6
ByLayer
 62
  256
370
   -1
100
AcDbPolyline
 90
    4
 70
    1
 43
0
 10
610
 20
255
 10
605
 20
255
 10
605
 20
275
 10
610
 20
275
  0
LWPOLYLINE
  5
F6
100
AcDbEntity
  8
Cut
  6
ByLayer
 62
  256
370
   -1
100
AcDbPolyline
 90
    4
 70
    1
 43
0
 10
605
 20
295
 10
610
 20
295
 10
610
 20
315
 10
605
 20
315
  0
LINE
  5
F7
100
AcDbEntity
  8
subsidiary line (20mm)
  6
ByLayer
 62
  256
370
   -1
100
AcDbLine
 10
-6.704941225331758e-14
 20
-365
 11
9.999999999999934
 21
-365
  0
LINE
  5
F8
100
AcDbEntity
  8
subsidiary line (20mm)
  6
ByLayer
 62
  256
370
   -1
100
AcDbLine
 10
695
 20
-1.720628752802031e-13
 11
695
 21
9.999999999999828
  0
LINE
  5
F9
100
AcDbEntity
  8
subsidiary line (20mm)
  6
ByLayer
 62
  256
370
   -1
100
AcDbLine
 10
-6.582476545417023e-14
 20
-345
 11
9.999999999999936
 21
-345
  0
LINE
  5
FA
100
AcDbEntity
  8
subsidiary line (20mm)
  6
ByLayer
 62
  256
370
   -1
100
AcDbLine
 10
-6.460011865502288e-14
 20
-325
 11
9.999999999999938
 21
-325
  0
LINE
  5
FB
100
AcDbEntity
  8
subsidiary line (20mm)
  6
ByLayer
 62
  256
370
   -1
100
AcDbLine
 10
-6.337547185587553e-14
 20
-305
 11
9.99999999999994
 21
-305
  0
LINE
  5
FC
100
AcDbEntity
  8
subsidiary line (20mm)
  6
ByLayer
 62
  256
370
   -1
100
AcDbLine
 10
-6.215082505672818e-14
 20
-285
 11
9.999999999999941
 21
-285
  0
LINE
  5
FD
100
AcDbEntity
  8
subsidiary line (20mm)
  6
ByLayer
 62
  256
370
   -1
100
AcDbLine
 10
-6.092617825758082e-14
 20
-265
 11
9.999999999999943
 21
-265
  0
LINE
  5
FE
100
AcDbEntity
  8
subsidiary line (20mm)
  6
ByLayer
 62
  256
370
   -1
100
AcDbLine
 10
-5.970153145843347e-14
 20
-245
 11
9.999999999999945
 21
-245
  0
LINE
  5
FF
100
AcDbEntity
  8
subsidiary line (20mm)
  6
ByLayer
 62
  256
370
   -1
100
AcDbLine
 10
-5.847688465928612e-14
 20
-225
 11
9.999999999999947
 21
-225
  0
LINE
  5
100
100
AcDbEntity
  8
subsidiary line (20mm)
  6
ByLayer
 62
  256
370
   -1
100
AcDbLine
 10
-5.725223786013877e-14
 20
-205
 11
9.999999999999948
 21
-205
  0
LINE
  5
101
100
AcDbEntity
  8
subsidiary line (20mm)
  6
ByLayer
 62
  256
370
   -1
100
AcDbLine
 10
-5.602759106099142e-14
 20
-185
 11
9.99999999999995
 21
-185
  0
LINE
  5
102
100
AcDbEntity
  8
subsidiary line (20mm)
  6
ByLayer
 62
  256
370
   -1
100
AcDbLine
 10
-5.480294426184407e-14
 20
-165
 11
9.999999999999952
 21
-165
  0
LINE
  5
103
100
AcDbEntity
  8
subsidiary line (20mm)
  6
ByLayer
 62
  256
370
   -1
100
AcDbLine
 10
-5.357829746269672e-14
 20
-145
 11
9.999999999999954
 21
-145
  0
LINE
  5
104
100
AcDbEntity
  8
subsidiary line (20mm)
  6
ByLayer
 62
  256
370
   -1
100
AcDbLine
 10
-5.235365066354936e-14
 20
-125
 11
9.999999999999956
 21
-125
  0
LINE
  5
105
100
AcDbEntity
  8
subsidiary line (20mm)
  6
ByLayer
 62
  256
370
   -1
100
AcDbLine
 10
-5.112900386440201e-14
 20
-105
 11
9.999999999999957
 21
-105
  0
LINE
  5
106
100
AcDbEntity
  8
subsidiary line (20mm)
  6
ByLayer
 62
  256
370
   -1
100
AcDbLine
 10
-4.990435706525466e-14
 20
-85
 11
9.999999999999959
 21
-85
  0
LINE
  5
107
100
AcDbEntity
  8
subsidiary line (20mm)
  6
ByLayer
 62
  256
370
   -1
100
AcDbLine
 10
-4.867971026610731e-14
 20
-65
 11
9.999999999999961
 21
-65
  0
LINE
  5
108
100
AcDbEntity
  8
subsidiary line (20mm)
  6
ByLayer
 62
  256
370
   -1
100
AcDbLine
 10
-4.745506346695996e-14
 20
-45
 11
9.999999999999963
 21
-45
  0
LINE
  5
109
100
AcDbEntity
  8
subsidiary line (20mm)
  6
ByLayer
 62
  256
370
   -1
100
AcDbLine
 10
-4.623041666781261e-14
 20
-25
 11
9.999999999999964
 21
-25
  0
LINE
  5
10A
100
AcDbEntity
  8
subsidiary line (20mm)
  6
ByLayer
 62
  256
370
   -1
100
AcDbLine
 10
675
 20
-1.696135816819084e-13
 11
675
 21
9.999999999999829
  0
LINE
  5
10B
100
AcDbEntity
  8
subsidiary line (20mm)
  6
ByLayer
 62
  256
370
   -1
100
AcDbLine
 10
655
 20
-1.671642880836137e-13
 11
655
 21
9.999999999999831
  0
LINE
  5
10C
100
AcDbEntity
  8
subsidiary line (20mm)
  6
ByLayer
 62
  256
370
   -1
100
AcDbLine
 10
635
 20
-1.64714994485319e-13
 11
635
 21
9.999999999999833
  0
LINE
  5
10D
100
AcDbEntity
  8
subsidiary line (20mm)
  6
ByLayer
 62
  256
370
   -1
100
AcDbLine
 10
615
 20
-1.622657008870243e-13
 11
615
 21
9.999999999999835
  0
LINE
  5
10E
100
AcDbEntity
  8
subsidiary line (20mm)
  6
ByLayer
 62
  256
370
   -1
100
AcDbLine
 10
595
 20
-1.598164072887296e-13
 11
595
 21
9.999999999999837
  0
LINE
  5
10F
100
AcDbEntity
  8
subsidiary line (20mm)
  6
ByLayer
 62
  256
370
   -1
100
AcDbLine
 10
575
 20
-1.573671136904349e-13
 11
575
 21
9.999999999999838
  0
LINE
  5
110
100
AcDbEntity
  8
subsidiary line (20mm)
  6
ByLayer
 62
  256
370
   -1
100
AcDbLine
 10
555
 20
-1.549178200921402e-13
 11
555
 21
9.99999999999984
  0
LINE
  5
111
100
AcDbEntity
  8
subsidiary line (20mm)
  6
ByLayer
 62
  256
370
   -1
100
AcDbLine
 10
535
 20
-1.524685264938455e-13
 11
535
 21
9.999999999999842
  0
LINE
  5
112
100
AcDbEntity
  8
subsidiary line (20mm)
  6
ByLayer
 62
  256
370
   -1
100
AcDbLine
 10
515
 20
-1.500192328955508e-13
 11
515
 21
9.999999999999844
  0
LINE
  5
113
100
AcDbEntity
  8
subsidiary line (20mm)
  6
ByLayer
 62
  256
370
   -1
100
AcDbLine
 10
495
 20
-1.475699392972561e-13
 11
495
 21
9.999999999999845
  0
LINE
  5
114
100
AcDbEntity
  8
subsidiary line (20mm)
  6
ByLayer
 62
  256
370
   -1
100
AcDbLine
 10
475
 20
-1.451206456989614e-13
 11
475
 21
9.999999999999847
  0
LINE
  5
115
100
AcDbEntity
  8
subsidiary line (20mm)
  6
ByLayer
 62
  256
370
   -1
100
AcDbLine
 10
455
 20
-1.426713521006667e-13
 11
455
 21
9.999999999999849
  0
LINE
  5
116
100
AcDbEntity
  8
subsidiary line (20mm)
  6
ByLayer
 62
  256
370
   -1
100
AcDbLine
 10
435
 20
-1.40222058502372e-13
 11
435
 21
9.999999999999851
  0
LINE
  5
117
100
AcDbEntity
  8
subsidiary line (20mm)
  6
ByLayer
 62
  256
370
   -1
100
AcDbLine
 10
415
 20
-1.377727649040773e-13
 11
415
 21
9.999999999999853
  0
LINE
  5
118
100
AcDbEntity
  8
subsidiary line (20mm)
  6
ByLayer
 62
  256
370
   -1
100
AcDbLine
 10
395
 20
-1.353234713057826e-13
 11
395
 21
9.999999999999854
  0
LINE
  5
119
100
AcDbEntity
  8
subsidiary line (20mm)
  6
ByLayer
 62
  256
370
   -1
100
AcDbLine
 10
375
 20
-1.328741777074879e-13
 11
375
 21
9.999999999999856
  0
LINE
  5
11A
100
AcDbEntity
  8
subsidiary line (20mm)
  6
ByLayer
 62
  256
370
   -1
100
AcDbLine
 10
355
 20
-1.304248841091932e-13
 11
355
 21
9.999999999999858
  0
LINE
  5
11B
100
AcDbEntity
  8
Cut
  6
ByLayer
 62
  256
370
   -1
100
AcDbLine
 10
340
 20
-1.285879139104721e-13
 11
355
 21
-1.304248841091932e-13
  0
LINE
  5
11C
100
AcDbEntity
  8
Cut
  6
ByLayer
 62
  256
370
   -1
100
AcDbLine
 10
355
 20
-1.304248841091932e-13
 11
355
 21
5
  0
LINE
  5
11D
100
AcDbEntity
  8
Cut
  6
ByLayer
 62
  256
370
   -1
100
AcDbLine
 10
355
 20
5
 11
375
 21
5
  0
LINE
  5
11E
100
AcDbEntity
  8
Cut
  6
ByLayer
 62
  256
370
   -1
100
AcDbLine
 10
375
 20
5
 11
375
 21
-1.328741777074879e-13
  0
LINE
  5
11F
100
AcDbEntity
  8
Cut
  6
ByLayer
 62
  256
370
   -1
100
AcDbLine
 10
375
 20
-1.328741777074879e-13
 11
395
 21
-1.353234713057826e-13
  0
LINE
  5
120
100
AcDbEntity
  8
Cut
  6
ByLayer
 62
  256
370
   -1
100
AcDbLine
 10
395
 20
-1.353234713057826e-13
 11
395
 21
5
  0
LINE
  5
121
100
AcDbEntity
  8
Cut
  6
ByLayer
 62
  256
370
   -1
100
AcDbLine
 10
395
 20
5
 11
415
 21
5
  0
LINE
  5
122
100
AcDbEntity
  8
Cut
  6
ByLayer
 62
  256
370
   -1
100
AcDbLine
 10
415
 20
5
 11
415
 21
0
  0
LINE
  5
123
100
AcDbEntity
  8
Cut
  6
ByLayer
 62
  256
370
   -1
100
AcDbLine
 10
415
 20
0
 11
435
 21
0
  0
LINE
  5
124
100
AcDbEntity
  8
Cut
  6
ByLayer
 62
  256
370
   -1
100
AcDbLine
 10
435
 20
0
 11
435
 21
5
  0
LINE
  5
125
100
AcDbEntity
  8
Cut
  6
ByLayer
 62
  256
370
   -1
100
AcDbLine
 10
435
 20
5
 11
455.0000000000001
 21
5
  0
LINE
  5
126
100
AcDbEntity
  8
Cut
  6
ByLayer
 62
  256
370
   -1
100
AcDbLine
 10
455.0000000000001
 20
5
 11
455.0000000000001
 21
0
  0
LINE
  5
127
100
AcDbEntity
  8
Cut
  6
ByLayer
 62
  256
370
   -1
100
AcDbLine
 10
455.0000000000001
 20
0
 11
475
 21
0
  0
LINE
  5
128
100
AcDbEntity
  8
Cut
  6
ByLayer
 62
  256
370
   -1
100
AcDbLine
 10
475
 20
0
 11
475
 21
5
  0
LINE
  5
129
100
AcDbEntity
  8
Cut
  6
ByLayer
 62
  256
370
   -1
100
AcDbLine
 10
475
 20
5
 11
495
 21
5
  0
LINE
  5
12A
100
AcDbEntity
  8
Cut
  6
ByLayer
 62
  256
370
   -1
100
AcDbLine
 10
495
 20
5
 11
495
 21
-1.475699392972561e-13
  0
LINE
  5
12B
100
AcDbEntity
  8
Cut
  6
ByLayer
 62
  256
370
   -1
100
AcDbLine
 10
495
 20
-1.475699392972561e-13
 11
515
 21
-1.500192328955508e-13
  0
LINE
  5
12C
100
AcDbEntity
  8
Cut
  6
ByLayer
 62
  256
370
   -1
100
AcDbLine
 10
515
 20
-1.500192328955508e-13
 11
515
 21
5
  0
LINE
  5
12D
100
AcDbEntity
  8
Cut
  6
ByLayer
 62
  256
370
   -1
100
AcDbLine
 10
515
 20
5
 11
535
 21
5
  0
LINE
  5
12E
100
AcDbEntity
  8
Cut
  6
ByLayer
 62
  256
370
   -1
100
AcDbLine
 10
535
 20
5
 11
535
 21
-1.524685264938455e-13
  0
LINE
  5
12F
100
AcDbEntity
  8
Cut
  6
ByLayer
 62
  256
370
   -1
100
AcDbLine
 10
535
 20
-1.524685264938455e-13
 11
555
 21
-1.549178200921402e-13
  0
LINE
  5
130
100
AcDbEntity
  8
Cut
  6
ByLayer
 62
  256
370
   -1
100
AcDbLine
 10
555
 20
-1.549178200921402e-13
 11
555
 21
5
  0
LINE
  5
131
100
AcDbEntity
  8
Cut
  6
ByLayer
 62
  256
370
   -1
100
AcDbLine
 10
555
 20
5
 11
575
 21
5
  0
LINE
  5
132
100
AcDbEntity
  8
Cut
  6
ByLayer
 62
  256
370
   -1
100
AcDbLine
 10
575
 20
5
 11
575
 21
0
  0
LINE
  5
133
100
AcDbEntity
  8
Cut
  6
ByLayer
 62
  256
370
   -1
100
AcDbLine
 10
575
 20
0
 11
595
 21
0
  0
LINE
  5
134
100
AcDbEntity
  8
Cut
  6
ByLayer
 62
  256
370
   -1
100
AcDbLine
 10
595
 20
0
 11
595
 21
5
  0
LINE
  5
135
100
AcDbEntity
  8
Cut
  6
ByLayer
 62
  256
370
   -1
100
AcDbLine
 10
595
 20
5
 11
615
 21
5
  0
LINE
  5
136
100
AcDbEntity
  8
Cut
  6
ByLayer
 62
  256
370
   -1
100
AcDbLine
 10
615
 20
5
 11
615
 21
0
  0
LINE
  5
137
100
AcDbEntity
  8
Cut
  6
ByLayer
 62
  256
370
   -1
100
AcDbLine
 10
615
 20
0
 11
635
 21
-1.64714994485319e-13
  0
LINE
  5
138
100
AcDbEntity
  8
Cut
  6
ByLayer
 62
  256
370
   -1
100
AcDbLine
 10
635
 20
-1.64714994485319e-13
 11
635
 21
5
  0
LINE
  5
139
100
AcDbEntity
  8
Cut
  6
ByLayer
 62
  256
370
   -1
100
AcDbLine
 10
635
 20
5
 11
655
 21
5
  0
LINE
  5
13A
100
AcDbEntity
  8
Cut
  6
ByLayer
 62
  256
370
   -1
100
AcDbLine
 10
655
 20
5
 11
655
 21
-1.671642880836137e-13
  0
LINE
  5
13B
100
AcDbEntity
  8
Cut
  6
ByLayer
 62
  256
370
   -1
100
AcDbLine
 10
655
 20
-1.671642880836137e-13
 11
675
 21
-1.696135816819084e-13
  0
LINE
  5
13C
100
AcDbEntity
  8
Cut
  6
ByLayer
 62
  256
370
   -1
100
AcDbLine
 10
675
 20
-1.696135816819084e-13
 11
675
 21
5
  0
LINE
  5
13D
100
AcDbEntity
  8
Cut
  6
ByLayer
 62
  256
370
   -1
100
AcDbLine
 10
675
 20
5
 11
695
 21
5
  0
LINE
  5
13E
100
AcDbEntity
  8
Cut
  6
ByLayer
 62
  256
370
   -1
100
AcDbLine
 10
695
 20
5
 11
695
 21
0
  0
LINE
  5
13F
100
AcDbEntity
  8
Cut
  6
ByLayer
 62
  256
370
   -1
100
AcDbLine
 10
695
 20
0
 11
710
 21
0
  0
LINE
  5
140
100
AcDbEntity
  8
Cut
  6
ByLayer
 62
  256
370
   -1
100
AcDbLine
 10
710
 20
-1.738998454789242e-13
 11
710
 21
330
  0
LINE
  5
141
100
AcDbEntity
  8
Cut
  6
ByLayer
 62
  256
370
   -1
100
AcDbLine
 10
710
 20
330
 11
340
 21
330
  0
LINE
  5
142
100
AcDbEntity
  8
Cut
  6
ByLayer
 62
  256
370
   -1
100
AcDbLine
 10
340
 20
330
 11
340
 21
0
  0
LINE
  5
143
100
AcDbEntity
  8
Cut
  6
ByLayer
 62
  256
370
   -1
100
AcDbLine
 10
325
 20
-10
 11
325
 21
-25
  0
LINE
  5
144
100
AcDbEntity
  8
Cut
  6
ByLayer
 62
  256
370
   -1
100
AcDbLine
 10
325
 20
-25
 11
330
 21
-25
  0
LINE
  5
145
100
AcDbEntity
  8
Cut
  6
ByLayer
 62
  256
370
   -1
100
AcDbLine
 10
330
 20
-25
 11
330
 21
-45
  0
LINE
  5
146
100
AcDbEntity
  8
Cut
  6
ByLayer
 62
  256
370
   -1
100
AcDbLine
 10
330
 20
-45
 11
325
 21
-45
  0
LINE
  5
147
100
AcDbEntity
  8
Cut
  6
ByLayer
 62
  256
370
   -1
100
AcDbLine
 10
325
 20
-45
 11
325
 21
-65
  0
LINE
  5
148
100
AcDbEntity
  8
Cut
  6
ByLayer
 62
  256
370
   -1
100
AcDbLine
 10
325
 20
-65
 11
330
 21
-65
  0
LINE
  5
149
100
AcDbEntity
  8
Cut
  6
ByLayer
 62
  256
370
   -1
100
AcDbLine
 10
330
 20
-65
 11
330
 21
-85
  0
LINE
  5
14A
100
AcDbEntity
  8
Cut
  6
ByLayer
 62
  256
370
   -1
100
AcDbLine
 10
330
 20
-85
 11
325
 21
-85
  0
LINE
  5
14B
100
AcDbEntity
  8
Cut
  6
ByLayer
 62
  256
370
   -1
100
AcDbLine
 10
325
 20
-85
 11
325
 21
-105
  0
LINE
  5
14C
100
AcDbEntity
  8
Cut
  6
ByLayer
 62
  256
370
   -1
100
AcDbLine
 10
325
 20
-105
 11
330
 21
-105
  0
LINE
  5
14D
100
AcDbEntity
  8
Cut
  6
ByLayer
 62
  256
370
   -1
100
AcDbLine
 10
330
 20
-105
 11
330
 21
-125
  0
LINE
  5
14E
100
AcDbEntity
  8
Cut
  6
ByLayer
 62
  256
370
   -1
100
AcDbLine
 10
330
 20
-125
 11
325
 21
-125
  0
LINE
  5
14F
100
AcDbEntity
  8
Cut
  6
ByLayer
 62
  256
370
   -1
100
AcDbLine
 10
325
 20
-125
 11
325
 21
-145
  0
LINE
  5
150
100
AcDbEntity
  8
Cut
  6
ByLayer
 62
  256
370
   -1
100
AcDbLine
 10
325
 20
-145
 11
330
 21
-145
  0
LINE
  5
151
100
AcDbEntity
  8
Cut
  6
ByLayer
 62
  256
370
   -1
100
AcDbLine
 10
330
 20
-145
 11
330
 21
-165
  0
LINE
  5
152
100
AcDbEntity
  8
Cut
  6
ByLayer
 62
  256
370
   -1
100
AcDbLine
 10
330
 20
-165
 11
325
 21
-165
  0
LINE
  5
153
100
AcDbEntity
  8
Cut
  6
ByLayer
 62
  256
370
   -1
100
AcDbLine
 10
325
 20
-165
 11
325
 21
-185
  0
LINE
  5
154
100
AcDbEntity
  8
Cut
  6
ByLayer
 62
  256
370
   -1
100
AcDbLine
 10
325
 20
-185
 11
330
 21
-185
  0
LINE
  5
155
100
AcDbEntity
  8
Cut
  6
ByLayer
 62
  256
370
   -1
100
AcDbLine
 10
330
 20
-185
 11
330
 21
-205
  0
LINE
  5
156
100
AcDbEntity
  8
Cut
  6
ByLayer
 62
  256
370
   -1
100
AcDbLine
 10
330
 20
-205
 11
325
 21
-205
  0
LINE
  5
157
100
AcDbEntity
  8
Cut
  6
ByLayer
 62
  256
370
   -1
100
AcDbLine
 10
325
 20
-205
 11
325
 21
-225
  0
LINE
  5
158
100
AcDbEntity
  8
Cut
  6
ByLayer
 62
  256
370
   -1
100
AcDbLine
 10
325
 20
-225
 11
330
 21
-225
  0
LINE
  5
159
100
AcDbEntity
  8
Cut
  6
ByLayer
 62
  256
370
   -1
100
AcDbLine
 10
330
 20
-225
 11
330
 21
-245
  0
LINE
  5
15A
100
AcDbEntity
  8
Cut
  6
ByLayer
 62
  256
370
   -1
100
AcDbLine
 10
330
 20
-245
 11
325
 21
-245
  0
LINE
  5
15B
100
AcDbEntity
  8
Cut
  6
ByLayer
 62
  256
370
   -1
100
AcDbLine
 10
325
 20
-245
 11
325
 21
-265
  0
LINE
  5
15C
100
AcDbEntity
  8
Cut
  6
ByLayer
 62
  256
370
   -1
100
AcDbLine
 10
325
 20
-265
 11
330
 21
-265
  0
LINE
  5
15D
100
AcDbEntity
  8
Cut
  6
ByLayer
 62
  256
370
   -1
100
AcDbLine
 10
330
 20
-265
 11
330
 21
-285
  0
LINE
  5
15E
100
AcDbEntity
  8
Cut
  6
ByLayer
 62
  256
370
   -1
100
AcDbLine
 10
330
 20
-285
 11
325
 21
-285
  0
LINE
  5
15F
100
AcDbEntity
  8
Cut
  6
ByLayer
 62
  256
370
   -1
100
AcDbLine
 10
325
 20
-285
 11
325
 21
-305
  0
LINE
  5
160
100
AcDbEntity
  8
Cut
  6
ByLayer
 62
  256
370
   -1
100
AcDbLine
 10
325
 20
-305
 11
330
 21
-305
  0
LINE
  5
161
100
AcDbEntity
  8
Cut
  6
ByLayer
 62
  256
370
   -1
100
AcDbLine
 10
330
 20
-305
 11
330
 21
-325
  0
LINE
  5
162
100
AcDbEntity
  8
Cut
  6
ByLayer
 62
  256
370
   -1
100
AcDbLine
 10
330
 20
-325
 11
325
 21
-325
  0
LINE
  5
163
100
AcDbEntity
  8
Cut
  6
ByLayer
 62
  256
370
   -1
100
AcDbLine
 10
325
 20
-325
 11
325
 21
-345
  0
LINE
  5
164
100
AcDbEntity
  8
Cut
  6
ByLayer
 62
  256
370
   -1
100
AcDbLine
 10
325
 20
-345
 11
330
 21
-345
  0
LINE
  5
165
100
AcDbEntity
  8
Cut
  6
ByLayer
 62
  256
370
   -1
100
AcDbLine
 10
330
 20
-345
 11
330
 21
-365
  0
LINE
  5
166
100
AcDbEntity
  8
Cut
  6
ByLayer
 62
  256
370
   -1
100
AcDbLine
 10
330
 20
-365
 11
325
 21
-365
  0
LINE
  5
167
100
AcDbEntity
  8
Cut
  6
ByLayer
 62
  256
370
   -1
100
AcDbLine
 10
325
 20
-365
 11
325
 21
-380
  0
LINE
  5
168
100
AcDbEntity
  8
Cut
  6
ByLayer
 62
  256
370
   -1
100
AcDbLine
 10
325
 20
-380
 11
4.999999999999966
 21
-380
  0
LINE
  5
169
100
AcDbEntity
  8
Cut
  6
ByLayer
 62
  256
370
   -1
100
AcDbLine
 10
4.999999999999966
 20
-380
 11
4.999999999999968
 21
-365
  0
LINE
  5
16A
100
AcDbEntity
  8
Cut
  6
ByLayer
 62
  256
370
   -1
100
AcDbLine
 10
4.999999999999968
 20
-365
 11
-2.23498040844392e-14
 21
-365
  0
LINE
  5
16B
100
AcDbEntity
  8
Cut
  6
ByLayer
 62
  256
370
   -1
100
AcDbLine
 10
-2.23498040844392e-14
 20
-365
 11
-2.112515728529184e-14
 21
-345
  0
LINE
  5
16C
100
AcDbEntity
  8
Cut
  6
ByLayer
 62
  256
370
   -1
100
AcDbLine
 10
-2.112515728529184e-14
 20
-345
 11
4.99999999999997
 21
-345
  0
LINE
  5
16D
100
AcDbEntity
  8
Cut
  6
ByLayer
 62
  256
370
   -1
100
AcDbLine
 10
4.99999999999997
 20
-345
 11
4.999999999999972
 21
-325
  0
LINE
  5
16E
100
AcDbEntity
  8
Cut
  6
ByLayer
 62
  256
370
   -1
100
AcDbLine
 10
4.999999999999972
 20
-325
 11
-1.990051048614449e-14
 21
-325
  0
LINE
  5
16F
100
AcDbEntity
  8
Cut
  6
ByLayer
 62
  256
370
   -1
100
AcDbLine
 10
-1.990051048614449e-14
 20
-325
 11
-6.337547185587553e-14
 21
-305
  0
LINE
  5
170
100
AcDbEntity
  8
Cut
  6
ByLayer
 62
  256
370
   -1
100
AcDbLine
 10
-6.337547185587553e-14
 20
-305
 11
4.999999999999973
 21
-305
  0
LINE
  5
171
100
AcDbEntity
  8
Cut
  6
ByLayer
 62
  256
370
   -1
100
AcDbLine
 10
4.999999999999973
 20
-305
 11
4.999999999999975
 21
-285
  0
LINE
  5
172
100
AcDbEntity
  8
Cut
  6
ByLayer
 62
  256
370
   -1
100
AcDbLine
 10
4.999999999999975
 20
-285
 11
-6.215082505672818e-14
 21
-285
  0
LINE
  5
173
100
AcDbEntity
  8
Cut
  6
ByLayer
 62
  256
370
   -1
100
AcDbLine
 10
-6.215082505672818e-14
 20
-285
 11
-1.622657008870243e-14
 21
-265
  0
LINE
  5
174
100
AcDbEntity
  8
Cut
  6
ByLayer
 62
  256
370
   -1
100
AcDbLine
 10
-1.622657008870243e-14
 20
-265
 11
4.999999999999977
 21
-265
  0
LINE
  5
175
100
AcDbEntity
  8
Cut
  6
ByLayer
 62
  256
370
   -1
100
AcDbLine
 10
4.999999999999977
 20
-265
 11
4.999999999999979
 21
-245
  0
LINE
  5
176
100
AcDbEntity
  8
Cut
  6
ByLayer
 62
  256
370
   -1
100
AcDbLine
 10
4.999999999999979
 20
-245
 11
-5.970153145843347e-14
 21
-245
  0
LINE
  5
177
100
AcDbEntity
  8
Cut
  6
ByLayer
 62
  256
370
   -1
100
AcDbLine
 10
-5.970153145843347e-14
 20
-245
 11
-5.847688465928612e-14
 21
-225
  0
LINE
  5
178
100
AcDbEntity
  8
Cut
  6
ByLayer
 62
  256
370
   -1
100
AcDbLine
 10
-5.847688465928612e-14
 20
-225
 11
4.99999999999998
 21
-225
  0
LINE
  5
179
100
AcDbEntity
  8
Cut
  6
ByLayer
 62
  256
370
   -1
100
AcDbLine
 10
4.99999999999998
 20
-225
 11
4.999999999999982
 21
-205
  0
LINE
  5
17A
100
AcDbEntity
  8
Cut
  6
ByLayer
 62
  256
370
   -1
100
AcDbLine
 10
4.999999999999982
 20
-205
 11
-5.725223786013877e-14
 21
-205
  0
LINE
  5
17B
100
AcDbEntity
  8
Cut
  6
ByLayer
 62
  256
370
   -1
100
AcDbLine
 10
-5.725223786013877e-14
 20
-205
 11
-1.132798289211302e-14
 21
-185
  0
LINE
  5
17C
100
AcDbEntity
  8
Cut
  6
ByLayer
 62
  256
370
   -1
100
AcDbLine
 10
-1.132798289211302e-14
 20
-185
 11
4.999999999999984
 21
-185
  0
LINE
  5
17D
100
AcDbEntity
  8
Cut
  6
ByLayer
 62
  256
370
   -1
100
AcDbLine
 10
4.999999999999984
 20
-185
 11
4.999999999999986
 21
-165
  0
LINE
  5
17E
100
AcDbEntity
  8
Cut
  6
ByLayer
 62
  256
370
   -1
100
AcDbLine
 10
4.999999999999986
 20
-165
 11
-1.010333609296566e-14
 21
-165
  0
LINE
  5
17F
100
AcDbEntity
  8
Cut
  6
ByLayer
 62
  256
370
   -1
100
AcDbLine
 10
-1.010333609296566e-14
 20
-165
 11
-8.878689293818311e-15
 21
-145
  0
LINE
  5
180
100
AcDbEntity
  8
Cut
  6
ByLayer
 62
  256
370
   -1
100
AcDbLine
 10
-8.878689293818311e-15
 20
-145
 11
4.999999999999988
 21
-145
  0
LINE
  5
181
100
AcDbEntity
  8
Cut
  6
ByLayer
 62
  256
370
   -1
100
AcDbLine
 10
4.999999999999988
 20
-145
 11
4.999999999999989
 21
-125
  0
LINE
  5
182
100
AcDbEntity
  8
Cut
  6
ByLayer
 62
  256
370
   -1
100
AcDbLine
 10
4.999999999999989
 20
-125
 11
-7.654042494670958e-15
 21
-125
  0
LINE
  5
183
100
AcDbEntity
  8
Cut
  6
ByLayer
 62
  256
370
   -1
100
AcDbLine
 10
-7.654042494670958e-15
 20
-125
 11
-5.112900386440201e-14
 21
-105
  0
LINE
  5
184
100
AcDbEntity
  8
Cut
  6
ByLayer
 62
  256
370
   -1
100
AcDbLine
 10
-5.112900386440201e-14
 20
-105
 11
4.999999999999991
 21
-105
  0
LINE
  5
185
100
AcDbEntity
  8
Cut
  6
ByLayer
 62
  256
370
   -1
100
AcDbLine
 10
4.999999999999991
 20
-105
 11
4.999999999999993
 21
-85
  0
LINE
  5
186
100
AcDbEntity
  8
Cut
  6
ByLayer
 62
  256
370
   -1
100
AcDbLine
 10
4.999999999999993
 20
-85
 11
-5.204748896376251e-15
 21
-85
  0
LINE
  5
187
100
AcDbEntity
  8
Cut
  6
ByLayer
 62
  256
370
   -1
100
AcDbLine
 10
-5.204748896376251e-15
 20
-85
 11
-3.980102097228898e-15
 21
-65
  0
LINE
  5
188
100
AcDbEntity
  8
Cut
  6
ByLayer
 62
  256
370
   -1
100
AcDbLine
 10
-3.980102097228898e-15
 20
-65
 11
4.999999999999995
 21
-65
  0
LINE
  5
189
100
AcDbEntity
  8
Cut
  6
ByLayer
 62
  256
370
   -1
100
AcDbLine
 10
4.999999999999995
 20
-65
 11
4.999999999999996
 21
-45
  0
LINE
  5
18A
100
AcDbEntity
  8
Cut
  6
ByLayer
 62
  256
370
   -1
100
AcDbLine
 10
4.999999999999996
 20
-45
 11
-4.745506346695996e-14
 21
-45
  0
LINE
  5
18B
100
AcDbEntity
  8
Cut
  6
ByLayer
 62
  256
370
   -1
100
AcDbLine
 10
-4.745506346695996e-14
 20
-45
 11
-1.530808498934192e-15
 21
-25
  0
LINE
  5
18C
100
AcDbEntity
  8
Cut
  6
ByLayer
 62
  256
370
   -1
100
AcDbLine
 10
-1.530808498934192e-15
 20
-25
 11
4.999999999999998
 21
-25
  0
LINE
  5
18D
100
AcDbEntity
  8
Cut
  6
ByLayer
 62
  256
370
   -1
100
AcDbLine
 10
4.999999999999998
 20
-25
 11
4.999999999999999
 21
-10
  0
LINE
  5
18E
100
AcDbEntity
  8
Cut
  6
ByLayer
 62
  256
370
   -1
100
AcDbLine
 10
4.999999999999999
 20
-10
 11
325
 21
-10
  0
LWPOLYLINE
  5
18F
100
AcDbEntity
  8
Cut
  6
ByLayer
 62
  256
370
   -1
100
AcDbPolyline
 90
    4
 70
    1
 43
0
 10
-605
 20
15
 10
-610
 20
15
 10
-610
 20
35
 10
-605
 20
35
  0
LWPOLYLINE
  5
190
100
AcDbEntity
  8
Cut
  6
ByLayer
 62
  256
370
   -1
100
AcDbPolyline
 90
    4
 70
    1
 43
0
 10
-610
 20
55
 10
-605
 20
55
 10
-605
 20
75
 10
-610
 20
75
  0
LWPOLYLINE
  5
191
100
AcDbEntity
  8
Cut
  6
ByLayer
 62
  256
370
   -1
100
AcDbPolyline
 90
    4
 70
    1
 43
0
 10
-605
 20
95
 10
-610
 20
95
 10
-610
 20
115
 10
-605
 20
115
  0
LWPOLYLINE
  5
192
100
AcDbEntity
  8
Cut
  6
ByLayer
 62
  256
370
   -1
100
AcDbPolyline
 90
    4
 70
    1
 43
0
 10
-610
 20
135
 10
-605
 20
135
 10
-605
 20
155
 10
-610
 20
155
  0
LWPOLYLINE
  5
193
100
AcDbEntity
  8
Cut
  6
ByLayer
 62
  256
370
   -1
100
AcDbPolyline
 90
    4
 70
    1
 43
0
 10
-610
 20
175
 10
-605
 20
175
 10
-605
 20
195
 10
-610
 20
195
  0
LWPOLYLINE
  5
194
100
AcDbEntity
  8
Cut
  6
ByLayer
 62
  256
370
   -1
100
AcDbPolyline
 90
    4
 70
    1
 43
0
 10
-605
 20
214.9999999999999
 10
-610
 20
214.9999999999999
 10
-610
 20
235.0000000000001
 10
-605
 20
235.0000000000001
  0
LWPOLYLINE
  5
195
100
AcDbEntity
  8
Cut
  6
ByLayer
 62
  256
370
   -1
100
AcDbPolyline
 90
    4
 70
    1
 43
0
 10
-610
 20
255
 10
-605
 20
255
 10
-605
 20
275
 10
-610
 20
275
  0
LWPOLYLINE
  5
196
100
AcDbEntity
  8
Cut
  6
ByLayer
 62
  256
370
   -1
100
AcDbPolyline
 90
    4
 70
    1
 43
0
 10
-605
 20
295
 10
-610
 20
295
 10
-610
 20
315
 10
-605
 20
315
  0
LINE
  5
197
100
AcDbEntity
  8
Cut
  6
ByLayer
 62
  256
370
   -1
100
AcDbLine
 10
-340
 20
-1.285879139104721e-13
 11
-355
 21
-1.304248841091932e-13
  0
LINE
  5
198
100
AcDbEntity
  8
Cut
  6
ByLayer
 62
  256
370
   -1
100
AcDbLine
 10
-355
 20
-1.304248841091932e-13
 11
-355
 21
5
  0
LINE
  5
199
100
AcDbEntity
  8
Cut
  6
ByLayer
 62
  256
370
   -1
100
AcDbLine
 10
-355
 20
5
 11
-375
 21
5
  0
LINE
  5
19A
100
AcDbEntity
  8
Cut
  6
ByLayer
 62
  256
370
   -1
100
AcDbLine
 10
-375
 20
5
 11
-375
 21
-1.328741777074879e-13
  0
LINE
  5
19B
100
AcDbEntity
  8
Cut
  6
ByLayer
 62
  256
370
   -1
100
AcDbLine
 10
-375
 20
-1.328741777074879e-13
 11
-395
 21
-1.353234713057826e-13
  0
LINE
  5
19C
100
AcDbEntity
  8
Cut
  6
ByLayer
 62
  256
370
   -1
100
AcDbLine
 10
-395
 20
-1.353234713057826e-13
 11
-395
 21
5
  0
LINE
  5
19D
100
AcDbEntity
  8
Cut
  6
ByLayer
 62
  256
370
   -1
100
AcDbLine
 10
-395
 20
5
 11
-415
 21
5
  0
LINE
  5
19E
100
AcDbEntity
  8
Cut
  6
ByLayer
 62
  256
370
   -1
100
AcDbLine
 10
-415
 20
5
 11
-415
 21
0
  0
LINE
  5
19F
100
AcDbEntity
  8
Cut
  6
ByLayer
 62
  256
370
   -1
100
AcDbLine
 10
-415
 20
0
 11
-435
 21
0
  0
LINE
  5
1A0
100
AcDbEntity
  8
Cut
  6
ByLayer
 62
  256
370
   -1
100
AcDbLine
 10
-435
 20
0
 11
-435
 21
5
  0
LINE
  5
1A1
100
AcDbEntity
  8
Cut
  6
ByLayer
 62
  256
370
   -1
100
AcDbLine
 10
-435
 20
5
 11
-455.0000000000001
 21
5
  0
LINE
  5
1A2
100
AcDbEntity
  8
Cut
  6
ByLayer
 62
  256
370
   -1
100
AcDbLine
 10
-455.0000000000001
 20
5
 11
-455.0000000000001
 21
0
  0
LINE
  5
1A3
100
AcDbEntity
  8
Cut
  6
ByLayer
 62
  256
370
   -1
100
AcDbLine
 10
-455.0000000000001
 20
0
 11
-475
 21
0
  0
LINE
  5
1A4
100
AcDbEntity
  8
Cut
  6
ByLayer
 62
  256
370
   -1
100
AcDbLine
 10
-475
 20
0
 11
-475
 21
5
  0
LINE
  5
1A5
100
AcDbEntity
  8
Cut
  6
ByLayer
 62
  256
370
   -1
100
AcDbLine
 10
-475
 20
5
 11
-495
 21
5
  0
LINE
  5
1A6
100
AcDbEntity
  8
Cut
  6
ByLayer
 62
  256
370
   -1
100
AcDbLine
 10
-495
 20
5
 11
-495
 21
-1.475699392972561e-13
  0
LINE
  5
1A7
100
AcDbEntity
  8
Cut
  6
ByLayer
 62
  256
370
   -1
100
AcDbLine
 10
-495
 20
-1.475699392972561e-13
 11
-515
 21
-1.500192328955509e-13
  0
LINE
  5
1A8
100
AcDbEntity
  8
Cut
  6
ByLayer
 62
  256
370
   -1
100
AcDbLine
 10
-515
 20
-1.500192328955509e-13
 11
-515
 21
5
  0
LINE
  5
1A9
100
AcDbEntity
  8
Cut
  6
ByLayer
 62
  256
370
   -1
100
AcDbLine
 10
-515
 20
5
 11
-535
 21
5
  0
LINE
  5
1AA
100
AcDbEntity
  8
Cut
  6
ByLayer
 62
  256
370
   -1
100
AcDbLine
 10
-535
 20
5
 11
-535
 21
-1.524685264938455e-13
  0
LINE
  5
1AB
100
AcDbEntity
  8
Cut
  6
ByLayer
 62
  256
370
   -1
100
AcDbLine
 10
-535
 20
-1.524685264938455e-13
 11
-555
 21
-1.549178200921402e-13
  0
LINE
  5
1AC
100
AcDbEntity
  8
Cut
  6
ByLayer
 62
  256
370
   -1
100
AcDbLine
 10
-555
 20
-1.549178200921402e-13
 11
-555
 21
5
  0
LINE
  5
1AD
100
AcDbEntity
  8
Cut
  6
ByLayer
 62
  256
370
   -1
100
AcDbLine
 10
-555
 20
5
 11
-575
 21
5
  0
LINE
  5
1AE
100
AcDbEntity
  8
Cut
  6
ByLayer
 62
  256
370
   -1
100
AcDbLine
 10
-575
 20
5
 11
-575
 21
0
  0
LINE
  5
1AF
100
AcDbEntity
  8
Cut
  6
ByLayer
 62
  256
370
   -1
100
AcDbLine
 10
-575
 20
0
 11
-595
 21
0
  0
LINE
  5
1B0
100
AcDbEntity
  8
Cut
  6
ByLayer
 62
  256
370
   -1
100
AcDbLine
 10
-595
 20
0
 11
-595
 21
5
  0
LINE
  5
1B1
100
AcDbEntity
  8
Cut
  6
ByLayer
 62
  256
370
   -1
100
AcDbLine
 10
-595
 20
5
 11
-615
 21
5
  0
LINE
  5
1B2
100
AcDbEntity
  8
Cut
  6
ByLayer
 62
  256
370
   -1
100
AcDbLine
 10
-615
 20
5
 11
-615
 21
0
  0
LINE
  5
1B3
100
AcDbEntity
  8
Cut
  6
ByLayer
 62
  256
370
   -1
100
AcDbLine
 10
-615
 20
0
 11
-635
 21
-1.647149944853191e-13
  0
LINE
  5
1B4
100
AcDbEntity
  8
Cut
  6
ByLayer
 62
  256
370
   -1
100
AcDbLine
 10
-635
 20
-1.647149944853191e-13
 11
-635
 21
5
  0
LINE
  5
1B5
100
AcDbEntity
  8
Cut
  6
ByLayer
 62
  256
370
   -1
100
AcDbLine
 10
-635
 20
5
 11
-655
 21
5
  0
LINE
  5
1B6
100
AcDbEntity
  8
Cut
  6
ByLayer
 62
  256
370
   -1
100
AcDbLine
 10
-655
 20
5
 11
-655
 21
-1.671642880836137e-13
  0
LINE
  5
1B7
100
AcDbEntity
  8
Cut
  6
ByLayer
 62
  256
370
   -1
100
AcDbLine
 10
-655
 20
-1.671642880836137e-13
 11
-675
 21
-1.696135816819085e-13
  0
LINE
  5
1B8
100
AcDbEntity
  8
Cut
  6
ByLayer
 62
  256
370
   -1
100
AcDbLine
 10
-675
 20
-1.696135816819085e-13
 11
-675
 21
5
  0
LINE
  5
1B9
100
AcDbEntity
  8
Cut
  6
ByLayer
 62
  256
370
   -1
100
AcDbLine
 10
-675
 20
5
 11
-695
 21
5
  0
LINE
  5
1BA
100
AcDbEntity
  8
Cut
  6
ByLayer
 62
  256
370
   -1
100
AcDbLine
 10
-695
 20
5
 11
-695
 21
0
  0
LINE
  5
1BB
100
AcDbEntity
  8
Cut
  6
ByLayer
 62
  256
370
   -1
100
AcDbLine
 10
-695
 20
0
 11
-710
 21
0
  0
LINE
  5
1BC
100
AcDbEntity
  8
Cut
  6
ByLayer
 62
  256
370
   -1
100
AcDbLine
 10
-710
 20
-1.738998454789242e-13
 11
-710
 21
330
  0
LINE
  5
1BD
100
AcDbEntity
  8
Cut
  6
ByLayer
 62
  256
370
   -1
100
AcDbLine
 10
-710
 20
330
 11
-340
 21
330
  0
LINE
  5
1BE
100
AcDbEntity
  8
Cut
  6
ByLayer
 62
  256
370
   -1
100
AcDbLine
 10
-340
 20
330
 11
-340
 21
0
  0
LINE
  5
1BF
100
AcDbEntity
  8
subsidiary line
  6
ByLayer
 62
  256
370
   -1
100
AcDbLine
 10
725
 20
-1.775737858763662e-13
 11
725
 21
9.999999999999822
  0
LINE
  5
1C0
100
AcDbEntity
  8
subsidiary line
  6
ByLayer
 62
  256
370
   -1
100
AcDbLine
 10
1044
 20
-2.557062516619673e-13
 11
1044
 21
9.999999999999744
  0
LINE
  5
1C1
100
AcDbEntity
  8
subsidiary line (5mm)
  6
ByLayer
 62
  256
370
   -1
100
AcDbLine
 10
1049
 20
-2.569308984611147e-13
 11
1049
 21
9.999999999999742
  0
LINE
  5
1C2
100
AcDbEntity
  8
subsidiary line (5mm)
  6
ByLayer
 62
  256
370
   -1
100
AcDbLine
 10
720
 20
-1.769614624767925e-13
 11
720
 21
9.999999999999822
  0
CIRCLE
  5
1C3
100
AcDbEntity
  8
Cut
  6
ByLayer
 62
  256
370
   -1
100
AcDbCircle
 10
360
 20
310
 40
10
  0
CIRCLE
  5
1C4
100
AcDbEntity
  8
Cut
  6
ByLayer
 62
  256
370
   -1
100
AcDbCircle
 10
-360
 20
310
 40
10
  0
LINE
  5
1C5
100
AcDbEntity
  8
subsidiary line
  6
ByLayer
 62
  256
370
   -1
100
AcDbLine
 10
360
 20
310
 11
370
 21
310
  0
LINE
  5
1C6
100
AcDbEntity
  8
subsidiary line
  6
ByLayer
 62
  256
370
   -1
100
AcDbLine
 10
360
 20
320
 11
370
 21
320
  0
LINE
  5
1C7
100
AcDbEntity
  8
subsidiary line
  6
ByLayer
 62
  256
370
   -1
100
AcDbLine
 10
360
 20
300
 11
370
 21
300
  0
LINE
  5
1C8
100
AcDbEntity
  8
subsidiary line (20mm)
  6
ByLayer
 62
  256
370
   -1
100
AcDbLine
 10
360
 20
319
 11
370
 21
319
  0
LINE
  5
1C9
100
AcDbEntity
  8
Cut
  6
ByLayer
 62
  256
370
   -1
100
AcDbLine
 10
725
 20
319
 11
720
 21
319
  0
LINE
  5
1CA
100
AcDbEntity
  8
Cut
  6
ByLayer
 62
  256
370
   -1
100
AcDbLine
 10
720
 20
319
 11
720
 21
300
  0
LINE
  5
1CB
100
AcDbEntity
  8
Cut
  6
ByLayer
 62
  256
370
   -1
100
AcDbLine
 10
720
 20
300
 11
725
 21
300
  0
LINE
  5
1CC
100
AcDbEntity
  8
Cut
  6
ByLayer
 62
  256
370
   -1
100
AcDbLine
 10
725
 20
300
 11
725
 21
5
  0
LINE
  5
1CD
100
AcDbEntity
  8
Cut
  6
ByLayer
 62
  256
370
   -1
100
AcDbLine
 10
1044
 20
5
 11
1044
 21
300
  0
LINE
  5
1CE
100
AcDbEntity
  8
Cut
  6
ByLayer
 62
  256
370
   -1
100
AcDbLine
 10
1044
 20
300
 11
1049
 21
300
  0
LINE
  5
1CF
100
AcDbEntity
  8
Cut
  6
ByLayer
 62
  256
370
   -1
100
AcDbLine
 10
1049
 20
300
 11
1049
 21
319
  0
LINE
  5
1D0
100
AcDbEntity
  8
Cut
  6
ByLayer
 62
  256
370
   -1
100
AcDbLine
 10
1049
 20
319
 11
1044
 21
319
  0
LINE
  5
1D1
100
AcDbEntity
  8
Cut
  6
ByLayer
 62
  256
370
   -1
100
AcDbLine
 10
1044
 20
319
 11
1044
 21
330
  0
LINE
  5
1D2
100
AcDbEntity
  8
Cut
  6
ByLayer
 62
  256
370
   -1
100
AcDbLine
 10
1044
 20
330
 11
725
 21
330
  0
LINE
  5
1D3
100
AcDbEntity
  8
Cut
  6
ByLayer
 62
  256
370
   -1
100
AcDbLine
 10
725
 20
330
 11
725
 21
319
  0
LINE
  5
1D4
100
AcDbEntity
  8
subsidiary line
  6
ByLayer
 62
  256
370
   -1
100
AcDbLine
 10
750
 20
-1.83697019872103e-13
 11
750
 21
9.999999999999817
  0
LINE
  5
1D5
100
AcDbEntity
  8
subsidiary line
  6
ByLayer
 62
  256
370
   -1
100
AcDbLine
 10
1.83697019872103e-15
 20
30
 11
10
 21
30
  0
LINE
  5
1D6
100
AcDbEntity
  8
subsidiary line
  6
ByLayer
 62
  256
370
   -1
100
AcDbLine
 10
1019
 20
-2.526446346640989e-13
 11
1019
 21
9.999999999999748
  0
LINE
  5
1D7
100
AcDbEntity
  8
subsidiary line
  6
ByLayer
 62
  256
370
   -1
100
AcDbLine
 10
994
 20
-2.495830176662305e-13
 11
994
 21
9.999999999999751
  0
LINE
  5
1D8
100
AcDbEntity
  8
subsidiary line
  6
ByLayer
 62
  256
370
   -1
100
AcDbLine
 10
775
 20
-1.898202538678397e-13
 11
775
 21
9.999999999999812
  0
LINE
  5
1D9
100
AcDbEntity
  8
subsidiary line
  6
ByLayer
 62
  256
370
   -1
100
AcDbLine
 10
800
 20
-1.959434878635765e-13
 11
800
 21
9.999999999999806
  0
LINE
  5
1DA
100
AcDbEntity
  8
subsidiary line
  6
ByLayer
 62
  256
370
   -1
100
AcDbLine
 10
969
 20
-2.465214006683621e-13
 11
969
 21
9.999999999999755
  0
ARC
  5
1DB
100
AcDbEntity
  8
Cut
  6
ByLayer
 62
  256
370
   -1
100
AcDbCircle
 10
0
 20
0
 40
0
100
AcDbArc
 50
0
 51
0
  0
LINE
  5
1DC
100
AcDbEntity
  8
subsidiary line (5mm)
  6
ByLayer
 62
  256
370
   -1
100
AcDbLine
 10
1009.989681391482
 20
5.000000000000001
 11
10
 21
5
  0
ARC
  5
1DD
100
AcDbEntity
  8
Cut
  6
ByLayer
 62
  256
370
   -1
100
AcDbCircle
 10
1019
 20
30
 40
25
100
AcDbArc
 50
230.360414321801
 51
270
  0
ARC
  5
1DE
100
AcDbEntity
  8
Cut
  6
ByLayer
 62
  256
370
   -1
100
AcDbCircle
 10
969
 20
0
 40
30
100
AcDbArc
 50
50.3603822106267
 51
90
  0
LINE
  5
1DF
100
AcDbEntity
  8
Cut
  6
ByLayer
 62
  256
370
   -1
100
AcDbLine
 10
988.1386985123726
 20
23.10216914604579
 11
1003.05107378343
 21
10.74820131679653
  0
ARC
  5
1E0
100
AcDbEntity
  8
Cut
  6
ByLayer
 62
  256
370
   -1
100
AcDbCircle
 10
800
 20
5
 40
25
100
AcDbArc
 50
90
 51
126.8698667359361
  0
LINE
  5
1E1
100
AcDbEntity
  8
Cut
  6
ByLayer
 62
  256
370
   -1
100
AcDbLine
 10
765.0000107895934
 20
10.00000809219503
 11
784.9999892104067
 21
24.99999190780509
  0
ARC
  5
1E2
100
AcDbEntity
  8
Cut
  6
ByLayer
 62
  256
370
   -1
100
AcDbCircle
 10
750
 20
30
 40
25
100
AcDbArc
 50
270
 51
306.8698667359362
  0
LINE
  5
1E3
100
AcDbEntity
  8
Cut
  6
ByLayer
 62
  256
370
   -1
100
AcDbLine
 10
725
 20
5
 11
749.9999892104071
 21
5
  0
LINE
  5
1E4
100
AcDbEntity
  8
Cut
  6
ByLayer
 62
  256
370
   -1
100
AcDbLine
 10
1044
 20
5
 11
1019.000021579186
 21
5
  0
LINE
  5
1E5
100
AcDbEntity
  8
Cut
  6
ByLayer
 62
  256
370
   -1
100
AcDbLine
 10
969
 20
30
 11
800
 21
29.99999999999289
  0
ARC
  5
1E6
100
AcDbEntity
  8
Cut
  6
ByLayer
 62
  256
370
   -1
100
AcDbCircle
 10
400
 20
-330.0000000000001
 40
12.5
100
AcDbArc
 50
153.7842852588252
 51
170.2157147411852
  0
ARC
  5
1E7
100
AcDbEntity
  8
Cut
  6
ByLayer
 62
  256
370
   -1
100
AcDbCircle
 10
388.9999999999987
 20
-330.0000000000001
 40
2.5
100
AcDbArc
 50
238.1786314750616
 51
121.8213685250568
  0
ARC
  5
1E8
100
AcDbEntity
  8
Cut
  6
ByLayer
 62
  256
370
   -1
100
AcDbCircle
 10
400
 20
-330.0000000000002
 40
12.5
100
AcDbArc
 50
189.7842852588523
 51
206.2157147412167
  0
ARC
  5
1E9
100
AcDbEntity
  8
Cut
  6
ByLayer
 62
  256
370
   -1
100
AcDbCircle
 10
391.1008130618744
 20
-336.4656377752181
 40
2.5
100
AcDbArc
 50
274.1786314750211
 51
157.8213685251758
  0
ARC
  5
1EA
100
AcDbEntity
  8
Cut
  6
ByLayer
 62
  256
370
   -1
100
AcDbCircle
 10
400
 20
-330
 40
12.5
100
AcDbArc
 50
225.7842852588522
 51
242.2157147412024
  0
ARC
  5
1EB
100
AcDbEntity
  8
Cut
  6
ByLayer
 62
  256
370
   -1
100
AcDbCircle
 10
396.6008130618744
 20
-340.4616216792502
 40
2.5
100
AcDbArc
 50
310.1786314749933
 51
193.8213685251026
  0
ARC
  5
1EC
100
AcDbEntity
  8
Cut
  6
ByLayer
 62
  256
370
   -1
100
AcDbCircle
 10
399.9999999999999
 20
-330.0000000000001
 40
12.5
100
AcDbArc
 50
261.7842852588211
 51
278.2157147411293
  0
ARC
  5
1ED
100
AcDbEntity
  8
Cut
  6
ByLayer
 62
  256
370
   -1
100
AcDbCircle
 10
403.3991869381248
 20
-340.4616216792485
 40
2.5
100
AcDbArc
 50
346.1786314748685
 51
229.8213685248958
  0
ARC
  5
1EE
100
AcDbEntity
  8
Cut
  6
ByLayer
 62
  256
370
   -1
100
AcDbCircle
 10
399.9999999999999
 20
-330.0000000000001
 40
12.5
100
AcDbArc
 50
297.784285258787
 51
314.2157147411785
  0
ARC
  5
1EF
100
AcDbEntity
  8
Cut
  6
ByLayer
 62
  256
370
   -1
100
AcDbCircle
 10
408.8991869381256
 20
-336.4656377752182
 40
2.5
100
AcDbArc
 50
22.17863147495579
 51
265.8213685250439
  0
ARC
  5
1F0
100
AcDbEntity
  8
Cut
  6
ByLayer
 62
  256
370
   -1
100
AcDbCircle
 10
399.9999999999999
 20
-330.0000000000002
 40
12.5
100
AcDbArc
 50
333.784285258808
 51
350.2157147411782
  0
ARC
  5
1F1
100
AcDbEntity
  8
Cut
  6
ByLayer
 62
  256
370
   -1
100
AcDbCircle
 10
411.0000000000014
 20
-330
 40
2.5
100
AcDbArc
 50
58.17863147512243
 51
301.8213685250423
  0
ARC
  5
1F2
100
AcDbEntity
  8
Cut
  6
ByLayer
 62
  256
370
   -1
100
AcDbCircle
 10
399.9999999999999
 20
-330.0000000000002
 40
12.5
100
AcDbArc
 50
9.784285258871375
 51
26.21571474115305
  0
CIRCLE
  5
1F3
100
AcDbEntity
  8
subsidiary line
  6
ByLayer
 62
  256
370
   -1
100
AcDbCircle
 10
400
 20
-330.0000000000002
 40
11
  0
LINE
  5
1F4
100
AcDbEntity
  8
Cut
  6
ByLayer
 62
  256
370
   -1
100
AcDbLine
 10
409
 20
-260
 11
391
 21
-260
  0
ARC
  5
1F5
100
AcDbEntity
  8
Cut
  6
ByLayer
 62
  256
370
   -1
100
AcDbCircle
 10
408.8991869381255
 20
-323.5343622247821
 40
2.5
100
AcDbArc
 50
87.68890817153959
 51
337.8213685249445
  0
ARC
  5
1F6
100
AcDbEntity
  8
Cut
  6
ByLayer
 62
  256
370
   -1
100
AcDbCircle
 10
391.1008130618745
 20
-323.5343622247822
 40
2.5
100
AcDbArc
 50
202.1786314749774
 51
92.31109182846293
  0
LINE
  5
1F7
100
AcDbEntity
  8
subsidiary line
  6
ByLayer
 62
  256
370
   -1
100
AcDbLine
 10
400
 20
-310
 11
400
 21
-300
  0
LINE
  5
1F8
100
AcDbEntity
  8
Cut
  6
ByLayer
 62
  256
370
   -1
100
AcDbLine
 10
397.5
 20
-310
 11
397.5
 21
-300
  0
LINE
  5
1F9
100
AcDbEntity
  8
Cut
  6
ByLayer
 62
  256
370
   -1
100
AcDbLine
 10
402.5
 20
-310
 11
402.5
 21
-300
  0
LWPOLYLINE
  5
1FA
100
AcDbEntity
  8
Cut
  6
ByLayer
 62
  256
370
   -1
100
AcDbPolyline
 90
    4
 70
    1
 43
0
 10
404
 20
-270
 10
396
 20
-270
 10
396
 20
-275
 10
404
 20
-275
  0
LINE
  5
1FB
100
AcDbEntity
  8
Cut
  6
ByLayer
 62
  256
370
   -1
100
AcDbLine
 10
397.5
 20
-275
 11
402
 21
-275
  0
LINE
  5
1FC
100
AcDbEntity
  8
Cut
  6
ByLayer
 62
  256
370
   -1
100
AcDbLine
 10
397.5
 20
-300
 11
402.5
 21
-300
  0
LINE
  5
1FD
100
AcDbEntity
  8
Cut
  6
ByLayer
 62
  256
370
   -1
100
AcDbLine
 10
402.5
 20
-310
 11
397.5
 21
-310
  0
LINE
  5
1FE
100
AcDbEntity
  8
subsidiary line
  6
ByLayer
 62
  256
370
   -1
100
AcDbLine
 10
402.5
 20
-310
 11
412.5
 21
-310
  0
LINE
  5
1FF
100
AcDbEntity
  8
subsidiary line
  6
ByLayer
 62
  256
370
   -1
100
AcDbLine
 10
402.5
 20
-300
 11
412.5
 21
-300
  0
LINE
  5
200
100
AcDbEntity
  8
subsidiary line
  6
ByLayer
 62
  256
370
   -1
100
AcDbLine
 10
420
 20
-310
 11
420
 21
-300
  0
LINE
  5
201
100
AcDbEntity
  8
subsidiary line
  6
ByLayer
 62
  256
370
   -1
100
AcDbLine
 10
420
 20
-300
 11
425
 21
-300
  0
LINE
  5
202
100
AcDbEntity
  8
Cut
  6
ByLayer
 62
  256
370
   -1
100
AcDbLine
 10
420
 20
-310
 11
420
 21
-300
  0
LINE
  5
203
100
AcDbEntity
  8
Cut
  6
ByLayer
 62
  256
370
   -1
100
AcDbLine
 10
420
 20
-300
 11
425
 21
-300
  0
LINE
  5
204
100
AcDbEntity
  8
Cut
  6
ByLayer
 62
  256
370
   -1
100
AcDbLine
 10
425
 20
-300
 11
425
 21
-280
  0
LINE
  5
205
100
AcDbEntity
  8
Cut
  6
ByLayer
 62
  256
370
   -1
100
AcDbLine
 10
420
 20
-310
 11
425
 21
-310
  0
LINE
  5
206
100
AcDbEntity
  8
Cut
  6
ByLayer
 62
  256
370
   -1
100
AcDbLine
 10
425
 20
-310
 11
440
 21
-280
  0
LINE
  5
207
100
AcDbEntity
  8
Cut
  6
ByLayer
 62
  256
370
   -1
100
AcDbLine
 10
440
 20
-280
 11
435
 21
-280
  0
LINE
  5
208
100
AcDbEntity
  8
Cut
  6
ByLayer
 62
  256
370
   -1
100
AcDbLine
 10
435
 20
-280
 11
435
 21
-275
  0
LINE
  5
209
100
AcDbEntity
  8
Cut
  6
ByLayer
 62
  256
370
   -1
100
AcDbLine
 10
435
 20
-275
 11
430
 21
-275
  0
LINE
  5
20A
100
AcDbEntity
  8
Cut
  6
ByLayer
 62
  256
370
   -1
100
AcDbLine
 10
430
 20
-275
 11
430
 21
-280
  0
LINE
  5
20B
100
AcDbEntity
  8
Cut
  6
ByLayer
 62
  256
370
   -1
100
AcDbLine
 10
430
 20
-280
 11
425
 21
-280
  0
LINE
  5
20C
100
AcDbEntity
  8
subsidiary line
  6
ByLayer
 62
  256
370
   -1
100
AcDbLine
 10
396
 20
-270
 11
396
 21
-260
  0
LINE
  5
20D
100
AcDbEntity
  8
subsidiary line
  6
ByLayer
 62
  256
370
   -1
100
AcDbLine
 10
404
 20
-270
 11
404
 21
-260
  0
LINE
  5
20E
100
AcDbEntity
  8
Cut
  6
ByLayer
 62
  256
370
   -1
100
AcDbLine
 10
396
 20
-250
 11
404
 21
-250
  0
LINE
  5
20F
100
AcDbEntity
  8
Cut
  6
ByLayer
 62
  256
370
   -1
100
AcDbLine
 10
404
 20
-250
 11
404
 21
-240
  0
LINE
  5
210
100
AcDbEntity
  8
Cut
  6
ByLayer
 62
  256
370
   -1
100
AcDbLine
 10
404
 20
-240
 11
410
 21
-240
  0
LINE
  5
211
100
AcDbEntity
  8
Cut
  6
ByLayer
 62
  256
370
   -1
100
AcDbLine
 10
390
 20
-240
 11
396
 21
-240
  0
LINE
  5
212
100
AcDbEntity
  8
Cut
  6
ByLayer
 62
  256
370
   -1
100
AcDbLine
 10
396
 20
-240
 11
396
 21
-250
  0
LINE
  5
213
100
AcDbEntity
  8
Cut
  6
ByLayer
 62
  256
370
   -1
100
AcDbLine
 10
390
 20
-235
 11
390
 21
-240
  0
LINE
  5
214
100
AcDbEntity
  8
Cut
  6
ByLayer
 62
  256
370
   -1
100
AcDbLine
 10
410
 20
-240
 11
410
 21
-235
  0
LINE
  5
215
100
AcDbEntity
  8
Cut
  6
ByLayer
 62
  256
370
   -1
100
AcDbLine
 10
390
 20
-235
 11
410
 21
-235
  0
LINE
  5
216
100
AcDbEntity
  8
Cut
  6
ByLayer
 62
  256
370
   -1
100
AcDbLine
 10
415
 20
-280
 11
409
 21
-280
  0
LINE
  5
217
100
AcDbEntity
  8
Cut
  6
ByLayer
 62
  256
370
   -1
100
AcDbLine
 10
391
 20
-280
 11
385
 21
-280
  0
LINE
  5
218
100
AcDbEntity
  8
Cut
  6
ByLayer
 62
  256
370
   -1
100
AcDbLine
 10
391
 20
-290
 11
391
 21
-321.0363957064865
  0
LINE
  5
219
100
AcDbEntity
  8
Cut
  6
ByLayer
 62
  256
370
   -1
100
AcDbLine
 10
385
 20
-280
 11
391
 21
-290
  0
LINE
  5
21A
100
AcDbEntity
  8
Cut
  6
ByLayer
 62
  256
370
   -1
100
AcDbLine
 10
409
 20
-321.0363957064837
 11
409
 21
-290
  0
LINE
  5
21B
100
AcDbEntity
  8
Cut
  6
ByLayer
 62
  256
370
   -1
100
AcDbLine
 10
409
 20
-290
 11
415
 21
-280
  0
LINE
  5
21C
100
AcDbEntity
  8
Cut
  6
ByLayer
 62
  256
370
   -1
100
AcDbLine
 10
391
 20
-280
 11
391
 21
-260
  0
LINE
  5
21D
100
AcDbEntity
  8
Cut
  6
ByLayer
 62
  256
370
   -1
100
AcDbLine
 10
409
 20
-260
 11
409
 21
-280
  0
ENDSEC
  0
SECTION
  2
OBJECTS
  0
DICTIONARY
  5
C
330
0
100
AcDbDictionary
281
    1
  3
ACAD_GROUP
350
D
  0
DICTIONARY
  5
D
330
C
100
AcDbDictionary
281
    1
  0
ENDSEC
  0
EOF
