999
dxfrw 0.6.3
  0
SECTION
  2
HEADER
  9
$ACADVER
  1
AC1021
  9
$DWGCODEPAGE
  3
ANSI_1252
  9
$INSBASE
 10
0
 20
0
 30
0
  9
$EXTMIN
 10
0
 20
-2
 30
0
  9
$EXTMAX
 10
531
 20
330
 30
0
  9
$LIMMIN
 10
0
 20
0
  9
$LIMMAX
 10
420
 20
297
  9
$ORTHOMODE
 70
    0
  9
$REGENMODE
 70
    1
  9
$FILLMODE
 70
    1
  9
$QTEXTMODE
 70
    0
  9
$MIRRTEXT
 70
    0
  9
$LTSCALE
 40
1
  9
$ATTMODE
 70
    0
  9
$TEXTSIZE
 40
2.5
  9
$TRACEWID
 40
15.68
  9
$TEXTSTYLE
  7
STANDARD
  9
$CLAYER
  8
0
  9
$CELTYPE
  6
BYLAYER
  9
$CECOLOR
 62
  256
  9
$CELTSCALE
 40
1
  9
$DISPSILH
 70
    0
  9
$DIMSCALE
 40
2.5
  9
$DIMASZ
 40
2.5
  9
$DIMEXO
 40
0.625
  9
$DIMDLI
 40
3.75
  9
$DIMRND
 40
0
  9
$DIMDLE
 40
0
  9
$DIMEXE
 40
1.25
  9
$DIMTP
 40
0
  9
$DIMTM
 40
0
  9
$DIMTXT
 40
2.5
  9
$DIMCEN
 40
2.5
  9
$DIMTSZ
 40
0
  9
$DIMTOL
 70
    0
  9
$DIMLIM
 70
    0
  9
$DIMTIH
 70
    0
  9
$DIMTOH
 70
    0
  9
$DIMSE1
 70
    0
  9
$DIMSE2
 70
    0
  9
$DIMTAD
 70
    1
  9
$DIMZIN
 70
    8
  9
$DIMBLK
  1

  9
$DIMASO
 70
    1
  9
$DIMSHO
 70
    1
  9
$DIMPOST
  1

  9
$DIMAPOST
  1

  9
$DIMALT
 70
    0
  9
$DIMALTD
 70
    3
  9
$DIMALTF
 40
0.03937
  9
$DIMLFAC
 40
1
  9
$DIMTOFL
 70
    1
  9
$DIMTVP
 40
0
  9
$DIMTIX
 70
    0
  9
$DIMSOXD
 70
    0
  9
$DIMSAH
 70
    0
  9
$DIMBLK1
  1

  9
$DIMBLK2
  1

  9
$DIMSTYLE
  2
Standard
  9
$DIMCLRD
 70
    0
  9
$DIMCLRE
 70
    0
  9
$DIMCLRT
 70
    0
  9
$DIMTFAC
 40
1
  9
$DIMGAP
 40
0.625
  9
$DIMJUST
 70
    0
  9
$DIMSD1
 70
    0
  9
$DIMSD2
 70
    0
  9
$DIMTOLJ
 70
    0
  9
$DIMTZIN
 70
    8
  9
$DIMALTZ
 70
    0
  9
$DIMALTTZ
 70
    0
  9
$DIMUPT
 70
    0
  9
$DIMDEC
 70
    2
  9
$DIMTDEC
 70
    2
  9
$DIMALTU
 70
    2
  9
$DIMALTTD
 70
    3
  9
$DIMTXSTY
  7
STANDARD
  9
$DIMAUNIT
 70
    0
  9
$DIMADEC
 70
    0
  9
$DIMALTRND
 40
0
  9
$DIMAZIN
 70
    0
  9
$DIMDSEP
 70
   44
  9
$DIMATFIT
 70
    3
  9
$DIMFRAC
 70
    0
  9
$DIMLDRBLK
  1
STANDARD
  9
$DIMLUNIT
 70
    2
  9
$DIMLWD
 70
   -2
  9
$DIMLWE
 70
   -2
  9
$DIMTMOVE
 70
    0
  9
$DIMFXL
 40
1
  9
$DIMFXLON
 70
    0
  9
$DIMJOGANG
 40
0.7854
  9
$DIMTFILL
 70
    0
  9
$DIMTFILLCLR
 70
    0
  9
$DIMARCSYM
 70
    0
  9
$DIMLTYPE
  6

  9
$DIMLTEX1
  6

  9
$DIMLTEX2
  6

  9
$LUNITS
 70
    2
  9
$LUPREC
 70
    4
  9
$SKETCHINC
 40
1
  9
$FILLETRAD
 40
0
  9
$AUNITS
 70
    0
  9
$AUPREC
 70
    2
  9
$MENU
  1
.
  9
$ELEVATION
 40
0
  9
$PELEVATION
 40
0
  9
$THICKNESS
 40
0
  9
$LIMCHECK
 70
    0
  9
$CHAMFERA
 40
0
  9
$CHAMFERB
 40
0
  9
$CHAMFERC
 40
0
  9
$CHAMFERD
 40
0
  9
$SKPOLY
 70
    0
  9
$USRTIMER
 70
    1
  9
$ANGBASE
 50
0
  9
$ANGDIR
 70
    0
  9
$PDMODE
 70
   34
  9
$PDSIZE
 40
0
  9
$PLINEWID
 40
0
  9
$SPLFRAME
 70
    0
  9
$SPLINETYPE
 70
    2
  9
$SPLINESEGS
 70
    8
  9
$HANDSEED
  5
20000
  9
$SURFTAB1
 70
    6
  9
$SURFTAB2
 70
    6
  9
$SURFTYPE
 70
    6
  9
$SURFU
 70
    6
  9
$SURFV
 70
    6
  9
$UCSBASE
  2

  9
$UCSNAME
  2

  9
$UCSORG
 10
0
 20
0
 30
0
  9
$UCSXDIR
 10
1
 20
0
 30
0
  9
$UCSYDIR
 10
0
 20
1
 30
0
  9
$UCSORTHOREF
  2

  9
$UCSORTHOVIEW
 70
    0
  9
$UCSORGTOP
 10
0
 20
0
 30
0
  9
$UCSORGBOTTOM
 10
0
 20
0
 30
0
  9
$UCSORGLEFT
 10
0
 20
0
 30
0
  9
$UCSORGRIGHT
 10
0
 20
0
 30
0
  9
$UCSORGFRONT
 10
0
 20
0
 30
0
  9
$UCSORGBACK
 10
0
 20
0
 30
0
  9
$PUCSBASE
  2

  9
$PUCSNAME
  2

  9
$PUCSORG
 10
0
 20
0
 30
0
  9
$PUCSXDIR
 10
1
 20
0
 30
0
  9
$PUCSYDIR
 10
0
 20
1
 30
0
  9
$PUCSORTHOREF
  2

  9
$PUCSORTHOVIEW
 70
    0
  9
$PUCSORGTOP
 10
0
 20
0
 30
0
  9
$PUCSORGBOTTOM
 10
0
 20
0
 30
0
  9
$PUCSORGLEFT
 10
0
 20
0
 30
0
  9
$PUCSORGRIGHT
 10
0
 20
0
 30
0
  9
$PUCSORGFRONT
 10
0
 20
0
 30
0
  9
$PUCSORGBACK
 10
0
 20
0
 30
0
  9
$USERI1
 70
    0
  9
$USERI2
 70
    0
  9
$USERI3
 70
    0
  9
$USERI4
 70
    0
  9
$USERI5
 70
    0
  9
$USERR1
 40
0
  9
$USERR2
 40
0
  9
$USERR3
 40
0
  9
$USERR4
 40
0
  9
$USERR5
 40
0
  9
$WORLDVIEW
 70
    1
  9
$SHADEDGE
 70
    3
  9
$SHADEDIF
 70
   70
  9
$TILEMODE
 70
    1
  9
$MAXACTVP
 70
   64
  9
$PINSBASE
 10
0
 20
0
 30
0
  9
$PLIMCHECK
 70
    0
  9
$PEXTMIN
 10
0
 20
0
 30
0
  9
$PEXTMAX
 10
0
 20
0
 30
0
  9
$GRIDMODE
 70
    1
  9
$SNAPSTYLE
 70
    0
  9
$PLIMMIN
 10
0
 20
0
  9
$PLIMMAX
 10
210
 20
297
  9
$UNITMODE
 70
    0
  9
$VISRETAIN
 70
    1
  9
$PLINEGEN
 70
    0
  9
$PSLTSCALE
 70
    1
  9
$TREEDEPTH
 70
 3020
  9
$CMLSTYLE
  2
Standard
  9
$CMLJUST
 70
    0
  9
$CMLSCALE
 40
20
  9
$PROXYGRAPHICS
 70
    1
  9
$MEASUREMENT
 70
    1
  9
$CELWEIGHT
370
   -1
  9
$ENDCAPS
280
    0
  9
$JOINSTYLE
280
    0
  9
$LWDISPLAY
290
    0
  9
$INSUNITS
 70
    4
  9
$HYPERLINKBASE
  1

  9
$STYLESHEET
  1

  9
$XEDIT
290
    1
  9
$CEPSNTYPE
380
    0
  9
$PSTYLEMODE
290
    1
  9
$EXTNAMES
290
    1
  9
$PSVPSCALE
 40
1
  9
$OLESTARTUP
290
    0
  9
$SORTENTS
280
  127
  9
$INDEXCTL
280
    0
  9
$HIDETEXT
280
    1
  9
$XCLIPFRAME
290
    0
  9
$HALOGAP
280
    0
  9
$OBSCOLOR
 70
  257
  9
$OBSLTYPE
280
    0
  9
$INTERSECTIONDISPLAY
280
    0
  9
$INTERSECTIONCOLOR
 70
  257
  9
$DIMASSOC
280
    1
  9
$PROJECTNAME
  1

  9
$CAMERADISPLAY
290
    0
  9
$LENSLENGTH
 40
50
  9
$CAMERAHEIGHT
 40
0
  9
$STEPSPERSEC
 40
2
  9
$STEPSIZE
 40
50
  9
$3DDWFPREC
 40
2
  9
$PSOLWIDTH
 40
5
  9
$PSOLHEIGHT
 40
80
  9
$LOFTANG1
 40
1.570796326794897
  9
$LOFTANG2
 40
1.570796326794897
  9
$LOFTMAG1
 40
0
  9
$LOFTMAG2
 40
0
  9
$LOFTPARAM
 70
    7
  9
$LOFTNORMALS
280
    1
  9
$LATITUDE
 40
1
  9
$LONGITUDE
 40
1
  9
$NORTHDIRECTION
 40
0
  9
$TIMEZONE
 70
-8000
  9
$LIGHTGLYPHDISPLAY
280
    1
  9
$TILEMODELIGHTSYNCH
280
    1
  9
$SOLIDHIST
280
    1
  9
$SHOWHIST
280
    1
  9
$DWFFRAME
280
    2
  9
$DGNFRAME
280
    0
  9
$REALWORLDSCALE
290
    1
  9
$INTERFERECOLOR
 62
    1
  9
$CSHADOW
280
    0
  9
$SHADOWPLANELOCATION
 40
0
  0
ENDSEC
  0
SECTION
  2
CLASSES
  0
ENDSEC
  0
SECTION
  2
TABLES
  0
TABLE
  2
VPORT
  5
8
330
0
100
AcDbSymbolTable
 70
    1
  0
VPORT
  5
31
330
2
100
AcDbSymbolTableRecord
100
AcDbViewportTableRecord
  2
*ACTIVE
 70
    0
 10
0
 20
0
 11
1
 21
1
 12
295.2461834455261
 22
132.2146208695454
 13
0
 23
0
 14
10
 24
10
 15
10
 25
10
 16
0
 26
0
 36
1
 17
0
 27
0
 37
0
 40
237.8372033311183
 41
1.644723092998955
 42
50
 43
0
 44
0
 50
0
 51
0
 71
    0
 72
  100
 73
    1
 74
    3
 75
    0
 76
    1
 77
    0
 78
    0
281
    0
 65
    1
110
0
120
0
130
0
111
1
121
0
131
0
112
0
122
1
132
0
 79
    0
146
0
348
10020
 60
    7
 61
    5
292
1
282
    1
141
0
142
0
 63
  250
421
3358443
  0
ENDTAB
  0
TABLE
  2
LTYPE
  5
5
330
0
100
AcDbSymbolTable
 70
    4
  0
LTYPE
  5
14
330
5
100
AcDbSymbolTableRecord
100
AcDbLinetypeTableRecord
  2
ByBlock
 70
    0
  3

 72
   65
 73
    0
 40
0
  0
LTYPE
  5
15
330
5
100
AcDbSymbolTableRecord
100
AcDbLinetypeTableRecord
  2
ByLayer
 70
    0
  3

 72
   65
 73
    0
 40
0
  0
LTYPE
  5
16
330
5
100
AcDbSymbolTableRecord
100
AcDbLinetypeTableRecord
  2
Continuous
 70
    0
  3
Solid line
 72
   65
 73
    0
 40
0
  0
LTYPE
  5
32
330
5
100
AcDbSymbolTableRecord
100
AcDbLinetypeTableRecord
  2
DOT
 70
    0
  3
Dot . . . . . . . . . . . . . . . . . . . . . .
 72
   65
 73
    2
 40
6.35
 49
0
 74
    0
 49
-6.35
 74
    0
  0
LTYPE
  5
33
330
5
100
AcDbSymbolTableRecord
100
AcDbLinetypeTableRecord
  2
DOTTINY
 70
    0
  3
Dot (.15x) .....................................
 72
   65
 73
    2
 40
0.9525
 49
0
 74
    0
 49
-0.9525
 74
    0
  0
LTYPE
  5
34
330
5
100
AcDbSymbolTableRecord
100
AcDbLinetypeTableRecord
  2
DOT2
 70
    0
  3
Dot (.5x) .....................................
 72
   65
 73
    2
 40
3.175
 49
0
 74
    0
 49
-3.175
 74
    0
  0
LTYPE
  5
35
330
5
100
AcDbSymbolTableRecord
100
AcDbLinetypeTableRecord
  2
DOTX2
 70
    0
  3
Dot (2x) .  .  .  .  .  .  .  .  .  .  .  .  .
 72
   65
 73
    2
 40
12.7
 49
0
 74
    0
 49
-12.7
 74
    0
  0
LTYPE
  5
36
330
5
100
AcDbSymbolTableRecord
100
AcDbLinetypeTableRecord
  2
DASHED
 70
    0
  3
Dashed _ _ _ _ _ _ _ _ _ _ _ _ _ _ _ _ _
 72
   65
 73
    2
 40
19.05
 49
12.7
 74
    0
 49
-6.35
 74
    0
  0
LTYPE
  5
37
330
5
100
AcDbSymbolTableRecord
100
AcDbLinetypeTableRecord
  2
DASHEDTINY
 70
    0
  3
Dashed (.15x) _ _ _ _ _ _ _ _ _ _ _ _ _ _ _ _ _
 72
   65
 73
    2
 40
2.8575
 49
1.905
 74
    0
 49
-0.9525
 74
    0
  0
LTYPE
  5
38
330
5
100
AcDbSymbolTableRecord
100
AcDbLinetypeTableRecord
  2
DASHED2
 70
    0
  3
Dashed (.5x) _ _ _ _ _ _ _ _ _ _ _ _ _ _ _ _ _
 72
   65
 73
    2
 40
9.524999999999999
 49
6.35
 74
    0
 49
-3.175
 74
    0
  0
LTYPE
  5
39
330
5
100
AcDbSymbolTableRecord
100
AcDbLinetypeTableRecord
  2
DASHEDX2
 70
    0
  3
Dashed (2x) ____  ____  ____  ____  ____  ___
 72
   65
 73
    2
 40
38.09999999999999
 49
25.4
 74
    0
 49
-12.7
 74
    0
  0
LTYPE
  5
3A
330
5
100
AcDbSymbolTableRecord
100
AcDbLinetypeTableRecord
  2
DASHDOT
 70
    0
  3
Dash dot __ . __ . __ . __ . __ . __ . __ . __
 72
   65
 73
    4
 40
25.4
 49
12.7
 74
    0
 49
-6.35
 74
    0
 49
0
 74
    0
 49
-6.35
 74
    0
  0
LTYPE
  5
3B
330
5
100
AcDbSymbolTableRecord
100
AcDbLinetypeTableRecord
  2
DASHDOTTINY
 70
    0
  3
Dash dot (.15x) _._._._._._._._._._._._._._._.
 72
   65
 73
    4
 40
3.81
 49
1.905
 74
    0
 49
-0.9525
 74
    0
 49
0
 74
    0
 49
-0.9525
 74
    0
  0
LTYPE
  5
3C
330
5
100
AcDbSymbolTableRecord
100
AcDbLinetypeTableRecord
  2
DASHDOT2
 70
    0
  3
Dash dot (.5x) _._._._._._._._._._._._._._._.
 72
   65
 73
    4
 40
12.7
 49
6.35
 74
    0
 49
-3.175
 74
    0
 49
0
 74
    0
 49
-3.175
 74
    0
  0
LTYPE
  5
3D
330
5
100
AcDbSymbolTableRecord
100
AcDbLinetypeTableRecord
  2
DASHDOTX2
 70
    0
  3
Dash dot (2x) ____  .  ____  .  ____  .  ___
 72
   65
 73
    4
 40
50.8
 49
25.4
 74
    0
 49
-12.7
 74
    0
 49
0
 74
    0
 49
-12.7
 74
    0
  0
LTYPE
  5
3E
330
5
100
AcDbSymbolTableRecord
100
AcDbLinetypeTableRecord
  2
DIVIDE
 70
    0
  3
Divide ____ . . ____ . . ____ . . ____ . . ____
 72
   65
 73
    6
 40
31.75
 49
12.7
 74
    0
 49
-6.35
 74
    0
 49
0
 74
    0
 49
-6.35
 74
    0
 49
0
 74
    0
 49
-6.35
 74
    0
  0
LTYPE
  5
3F
330
5
100
AcDbSymbolTableRecord
100
AcDbLinetypeTableRecord
  2
DIVIDETINY
 70
    0
  3
Divide (.15x) __..__..__..__..__..__..__..__.._
 72
   65
 73
    6
 40
4.7625
 49
1.905
 74
    0
 49
-0.9525
 74
    0
 49
0
 74
    0
 49
-0.9525
 74
    0
 49
0
 74
    0
 49
-0.9525
 74
    0
  0
LTYPE
  5
40
330
5
100
AcDbSymbolTableRecord
100
AcDbLinetypeTableRecord
  2
DIVIDE2
 70
    0
  3
Divide (.5x) __..__..__..__..__..__..__..__.._
 72
   65
 73
    6
 40
15.875
 49
6.35
 74
    0
 49
-3.175
 74
    0
 49
0
 74
    0
 49
-3.175
 74
    0
 49
0
 74
    0
 49
-3.175
 74
    0
  0
LTYPE
  5
41
330
5
100
AcDbSymbolTableRecord
100
AcDbLinetypeTableRecord
  2
DIVIDEX2
 70
    0
  3
Divide (2x) ________  .  .  ________  .  .  _
 72
   65
 73
    6
 40
63.5
 49
25.4
 74
    0
 49
-12.7
 74
    0
 49
0
 74
    0
 49
-12.7
 74
    0
 49
0
 74
    0
 49
-12.7
 74
    0
  0
LTYPE
  5
42
330
5
100
AcDbSymbolTableRecord
100
AcDbLinetypeTableRecord
  2
BORDER
 70
    0
  3
Border __ __ . __ __ . __ __ . __ __ . __ __ .
 72
   65
 73
    6
 40
44.45
 49
12.7
 74
    0
 49
-6.35
 74
    0
 49
12.7
 74
    0
 49
-6.35
 74
    0
 49
0
 74
    0
 49
-6.35
 74
    0
  0
LTYPE
  5
43
330
5
100
AcDbSymbolTableRecord
100
AcDbLinetypeTableRecord
  2
BORDERTINY
 70
    0
  3
Border (.15x) __.__.__.__.__.__.__.__.__.__.__.
 72
   65
 73
    6
 40
6.6675
 49
1.905
 74
    0
 49
-0.9525
 74
    0
 49
1.905
 74
    0
 49
-0.9525
 74
    0
 49
0
 74
    0
 49
-0.9525
 74
    0
  0
LTYPE
  5
44
330
5
100
AcDbSymbolTableRecord
100
AcDbLinetypeTableRecord
  2
BORDER2
 70
    0
  3
Border (.5x) __.__.__.__.__.__.__.__.__.__.__.
 72
   65
 73
    6
 40
22.225
 49
6.35
 74
    0
 49
-3.175
 74
    0
 49
6.35
 74
    0
 49
-3.175
 74
    0
 49
0
 74
    0
 49
-3.175
 74
    0
  0
LTYPE
  5
45
330
5
100
AcDbSymbolTableRecord
100
AcDbLinetypeTableRecord
  2
BORDERX2
 70
    0
  3
Border (2x) ____  ____  .  ____  ____  .  ___
 72
   65
 73
    6
 40
88.89999999999999
 49
25.4
 74
    0
 49
-12.7
 74
    0
 49
25.4
 74
    0
 49
-12.7
 74
    0
 49
0
 74
    0
 49
-12.7
 74
    0
  0
LTYPE
  5
46
330
5
100
AcDbSymbolTableRecord
100
AcDbLinetypeTableRecord
  2
CENTER
 70
    0
  3
Center ____ _ ____ _ ____ _ ____ _ ____ _ ____
 72
   65
 73
    4
 40
50.8
 49
31.75
 74
    0
 49
-6.35
 74
    0
 49
6.35
 74
    0
 49
-6.35
 74
    0
  0
LTYPE
  5
47
330
5
100
AcDbSymbolTableRecord
100
AcDbLinetypeTableRecord
  2
CENTERTINY
 70
    0
  3
Center (.15x) ___ _ ___ _ ___ _ ___ _ ___ _ ___
 72
   65
 73
    4
 40
7.619999999999999
 49
4.7625
 74
    0
 49
-0.9525
 74
    0
 49
0.9525
 74
    0
 49
-0.9525
 74
    0
  0
LTYPE
  5
48
330
5
100
AcDbSymbolTableRecord
100
AcDbLinetypeTableRecord
  2
CENTER2
 70
    0
  3
Center (.5x) ___ _ ___ _ ___ _ ___ _ ___ _ ___
 72
   65
 73
    4
 40
28.575
 49
19.05
 74
    0
 49
-3.175
 74
    0
 49
3.175
 74
    0
 49
-3.175
 74
    0
  0
LTYPE
  5
49
330
5
100
AcDbSymbolTableRecord
100
AcDbLinetypeTableRecord
  2
CENTERX2
 70
    0
  3
Center (2x) ________  __  ________  __  _____
 72
   65
 73
    4
 40
101.6
 49
63.5
 74
    0
 49
-12.7
 74
    0
 49
12.7
 74
    0
 49
-12.7
 74
    0
  0
ENDTAB
  0
TABLE
  2
LAYER
  5
2
330
0
100
AcDbSymbolTable
 70
    1
  0
LAYER
  5
10
330
2
100
AcDbSymbolTableRecord
100
AcDbLayerTableRecord
  2
0
 70
    0
 62
  255
  6
CONTINUOUS
370
   13
390
F
1001
LibreCad
1070
    1
  0
LAYER
  5
4A
330
2
100
AcDbSymbolTableRecord
100
AcDbLayerTableRecord
  2
3mm Acrylic
 70
    0
 62
  216
420
8388736
  6
CONTINUOUS
370
   35
390
F
  0
LAYER
  5
4B
330
2
100
AcDbSymbolTableRecord
100
AcDbLayerTableRecord
  2
5mm Acrylic
 70
    0
 62
  136
420
32896
  6
CONTINUOUS
370
   35
390
F
  0
LAYER
  5
4C
330
2
100
AcDbSymbolTableRecord
100
AcDbLayerTableRecord
  2
Cut
 70
    0
 62
    5
  6
CONTINUOUS
370
   35
390
F
  0
LAYER
  5
4D
330
2
100
AcDbSymbolTableRecord
100
AcDbLayerTableRecord
  2
cable straps
 70
    1
 62
   16
420
8388608
  6
CONTINUOUS
370
    0
390
F
  0
ENDTAB
  0
TABLE
  2
STYLE
  5
3
330
0
100
AcDbSymbolTable
 70
    3
  0
STYLE
  5
4E
330
2
100
AcDbSymbolTableRecord
100
AcDbTextStyleTableRecord
  2
Standard
 70
    0
 40
0
 41
1
 50
0
 71
    0
 42
1
  3
txt
  4

  0
ENDTAB
  0
TABLE
  2
VIEW
  5
6
330
0
100
AcDbSymbolTable
 70
    0
  0
ENDTAB
  0
TABLE
  2
UCS
  5
7
330
0
100
AcDbSymbolTable
 70
    0
  0
ENDTAB
  0
TABLE
  2
APPID
  5
9
330
0
100
AcDbSymbolTable
 70
    1
  0
APPID
  5
12
330
9
100
AcDbSymbolTableRecord
100
AcDbRegAppTableRecord
  2
ACAD
 70
    0
  0
APPID
  5
4F
330
9
100
AcDbSymbolTableRecord
100
AcDbRegAppTableRecord
  2
LibreCad
 70
    0
  0
ENDTAB
  0
TABLE
  2
DIMSTYLE
  5
A
330
0
100
AcDbSymbolTable
 70
    1
100
AcDbDimStyleTable
 71
    1
  0
DIMSTYLE
105
50
330
A
100
AcDbSymbolTableRecord
100
AcDbDimStyleTableRecord
  2
Standard
 70
    0
 40
2.5
 41
2.5
 42
0.625
 43
0.38
 44
1.25
 45
0
 46
0
 47
0
 48
0
 49
1
140
2.5
141
0.09
142
0
143
25.4
144
1
145
0
146
1
147
0.625
148
0
 71
    0
 72
    0
 73
    0
 74
    1
 75
    0
 76
    0
 77
    0
 78
    8
 79
    0
170
    0
171
    2
172
    0
173
    0
174
    0
175
    0
176
    0
177
    0
178
    0
179
    0
271
    2
272
    4
273
    2
274
    2
275
    0
276
    0
277
    2
278
   44
279
    0
280
    0
281
    0
282
    0
283
    1
284
    0
285
    0
286
    0
288
    0
289
    3
340
STANDARD
341

371
   -2
372
   -2
  0
ENDTAB
  0
TABLE
  2
BLOCK_RECORD
  5
1
330
0
100
AcDbSymbolTable
 70
    2
  0
BLOCK_RECORD
  5
1F
330
1
100
AcDbSymbolTableRecord
100
AcDbBlockTableRecord
  2
*Model_Space
 70
    0
280
    1
281
    0
  0
BLOCK_RECORD
  5
1E
330
1
100
AcDbSymbolTableRecord
100
AcDbBlockTableRecord
  2
*Paper_Space
 70
    0
280
    1
281
    0
  0
ENDTAB
  0
ENDSEC
  0
SECTION
  2
BLOCKS
  0
BLOCK
  5
20
330
1F
100
AcDbEntity
  8
0
100
AcDbBlockBegin
  2
*Model_Space
 70
    0
 10
0
 20
0
 30
0
  3
*Model_Space
  1

  0
ENDBLK
  5
21
330
1F
100
AcDbEntity
  8
0
100
AcDbBlockEnd
  0
BLOCK
  5
1C
330
1B
100
AcDbEntity
  8
0
100
AcDbBlockBegin
  2
*Paper_Space
 70
    0
 10
0
 20
0
 30
0
  3
*Paper_Space
  1

  0
ENDBLK
  5
1D
330
1F
100
AcDbEntity
  8
0
100
AcDbBlockEnd
  0
ENDSEC
  0
SECTION
  2
ENTITIES
  0
CIRCLE
  5
51
100
AcDbEntity
  8
Cut
  6
ByLayer
 62
  256
370
   -1
100
AcDbCircle
 10
55
 20
295
 40
16
  0
CIRCLE
  5
52
100
AcDbEntity
  8
Cut
  6
ByLayer
 62
  256
370
   -1
100
AcDbCircle
 10
55
 20
319
 40
1.5
  0
CIRCLE
  5
53
100
AcDbEntity
  8
Cut
  6
ByLayer
 62
  256
370
   -1
100
AcDbCircle
 10
55
 20
271
 40
1.5
  0
CIRCLE
  5
54
100
AcDbEntity
  8
Cut
  6
ByLayer
 62
  256
370
   -1
100
AcDbCircle
 10
91
 20
285.6738468369
 40
3
  0
CIRCLE
  5
55
100
AcDbEntity
  8
Cut
  6
ByLayer
 62
  256
370
   -1
100
AcDbCircle
 10
55
 20
215
 40
16
  0
CIRCLE
  5
56
100
AcDbEntity
  8
Cut
  6
ByLayer
 62
  256
370
   -1
100
AcDbCircle
 10
55
 20
239
 40
1.5
  0
CIRCLE
  5
57
100
AcDbEntity
  8
Cut
  6
ByLayer
 62
  256
370
   -1
100
AcDbCircle
 10
55
 20
191
 40
1.5
  0
CIRCLE
  5
58
100
AcDbEntity
  8
Cut
  6
ByLayer
 62
  256
370
   -1
100
AcDbCircle
 10
91
 20
205.6738468369
 40
3
  0
CIRCLE
  5
59
100
AcDbEntity
  8
Cut
  6
ByLayer
 62
  256
370
   -1
100
AcDbCircle
 10
55
 20
135
 40
16
  0
CIRCLE
  5
5A
100
AcDbEntity
  8
Cut
  6
ByLayer
 62
  256
370
   -1
100
AcDbCircle
 10
55
 20
159
 40
1.5
  0
CIRCLE
  5
5B
100
AcDbEntity
  8
Cut
  6
ByLayer
 62
  256
370
   -1
100
AcDbCircle
 10
55
 20
111
 40
1.5
  0
CIRCLE
  5
5C
100
AcDbEntity
  8
Cut
  6
ByLayer
 62
  256
370
   -1
100
AcDbCircle
 10
91
 20
125.6738468369
 40
3
  0
CIRCLE
  5
5D
100
AcDbEntity
  8
Cut
  6
ByLayer
 62
  256
370
   -1
100
AcDbCircle
 10
55
 20
55
 40
16
  0
CIRCLE
  5
5E
100
AcDbEntity
  8
Cut
  6
ByLayer
 62
  256
370
   -1
100
AcDbCircle
 10
55
 20
79
 40
1.5
  0
CIRCLE
  5
5F
100
AcDbEntity
  8
Cut
  6
ByLayer
 62
  256
370
   -1
100
AcDbCircle
 10
55
 20
31
 40
1.5
  0
CIRCLE
  5
60
100
AcDbEntity
  8
Cut
  6
ByLayer
 62
  256
370
   -1
100
AcDbCircle
 10
91
 20
45.6738468369
 40
3
  0
CIRCLE
  5
61
100
AcDbEntity
  8
Cut
  6
ByLayer
 62
  256
370
   -1
100
AcDbCircle
 10
135
 20
295
 40
16
  0
CIRCLE
  5
62
100
AcDbEntity
  8
Cut
  6
ByLayer
 62
  256
370
   -1
100
AcDbCircle
 10
135
 20
319
 40
1.5
  0
CIRCLE
  5
63
100
AcDbEntity
  8
Cut
  6
ByLayer
 62
  256
370
   -1
100
AcDbCircle
 10
135
 20
271
 40
1.5
  0
CIRCLE
  5
64
100
AcDbEntity
  8
Cut
  6
ByLayer
 62
  256
370
   -1
100
AcDbCircle
 10
171
 20
285.6738468369
 40
3
  0
CIRCLE
  5
65
100
AcDbEntity
  8
Cut
  6
ByLayer
 62
  256
370
   -1
100
AcDbCircle
 10
135
 20
215
 40
16
  0
CIRCLE
  5
66
100
AcDbEntity
  8
Cut
  6
ByLayer
 62
  256
370
   -1
100
AcDbCircle
 10
135
 20
239
 40
1.5
  0
CIRCLE
  5
67
100
AcDbEntity
  8
Cut
  6
ByLayer
 62
  256
370
   -1
100
AcDbCircle
 10
135
 20
191
 40
1.5
  0
CIRCLE
  5
68
100
AcDbEntity
  8
Cut
  6
ByLayer
 62
  256
370
   -1
100
AcDbCircle
 10
171
 20
205.6738468369
 40
3
  0
CIRCLE
  5
69
100
AcDbEntity
  8
Cut
  6
ByLayer
 62
  256
370
   -1
100
AcDbCircle
 10
135
 20
135
 40
16
  0
CIRCLE
  5
6A
100
AcDbEntity
  8
Cut
  6
ByLayer
 62
  256
370
   -1
100
AcDbCircle
 10
135
 20
159
 40
1.5
  0
CIRCLE
  5
6B
100
AcDbEntity
  8
Cut
  6
ByLayer
 62
  256
370
   -1
100
AcDbCircle
 10
135
 20
111
 40
1.5
  0
CIRCLE
  5
6C
100
AcDbEntity
  8
Cut
  6
ByLayer
 62
  256
370
   -1
100
AcDbCircle
 10
171
 20
125.6738468369
 40
3
  0
CIRCLE
  5
6D
100
AcDbEntity
  8
Cut
  6
ByLayer
 62
  256
370
   -1
100
AcDbCircle
 10
135
 20
55
 40
16
  0
CIRCLE
  5
6E
100
AcDbEntity
  8
Cut
  6
ByLayer
 62
  256
370
   -1
100
AcDbCircle
 10
135
 20
79
 40
1.5
  0
CIRCLE
  5
6F
100
AcDbEntity
  8
Cut
  6
ByLayer
 62
  256
370
   -1
100
AcDbCircle
 10
135
 20
31
 40
1.5
  0
CIRCLE
  5
70
100
AcDbEntity
  8
Cut
  6
ByLayer
 62
  256
370
   -1
100
AcDbCircle
 10
171
 20
45.6738468369
 40
3
  0
LINE
  5
71
100
AcDbEntity
  8
Cut
  6
ByLayer
 62
  256
370
   -1
100
AcDbLine
 10
516
 20
121.0363957064837
 11
516
 21
141.0363957064837
  0
LINE
  5
72
100
AcDbEntity
  8
Cut
  6
ByLayer
 62
  256
370
   -1
100
AcDbLine
 10
506
 20
141.0363957064837
 11
500
 21
141.0363957064837
  0
LINE
  5
73
100
AcDbEntity
  8
Cut
  6
ByLayer
 62
  256
370
   -1
100
AcDbLine
 10
482
 20
141.0363957064837
 11
476
 21
141.0363957064837
  0
LINE
  5
74
100
AcDbEntity
  8
Cut
  6
ByLayer
 62
  256
370
   -1
100
AcDbLine
 10
476
 20
141.0363957064837
 11
482
 21
131.0363957064837
  0
LINE
  5
75
100
AcDbEntity
  8
Cut
  6
ByLayer
 62
  256
370
   -1
100
AcDbLine
 10
500
 20
131.0363957064837
 11
506
 21
141.0363957064837
  0
LINE
  5
76
100
AcDbEntity
  8
Cut
  6
ByLayer
 62
  256
370
   -1
100
AcDbLine
 10
0
 20
0
 11
2.02e-14
 21
330
  0
LINE
  5
77
100
AcDbEntity
  8
Cut
  6
ByLayer
 62
  256
370
   -1
100
AcDbLine
 10
2.02e-14
 20
330
 11
330
 21
330
  0
LINE
  5
78
100
AcDbEntity
  8
Cut
  6
ByLayer
 62
  256
370
   -1
100
AcDbLine
 10
330
 20
330
 11
330
 21
-8.079999999999999e-14
  0
LINE
  5
79
100
AcDbEntity
  8
Cut
  6
ByLayer
 62
  256
370
   -1
100
AcDbLine
 10
330
 20
-8.079999999999999e-14
 11
0
 21
0
  0
ARC
  5
7A
100
AcDbEntity
  8
Cut
  6
ByLayer
 62
  256
370
   -1
100
AcDbCircle
 10
516.0000441549798
 20
126.0363957064187
 40
15
100
AcDbArc
 50
269.9998313404008
 51
359.8609785055741
  0
LINE
  5
7B
100
AcDbEntity
  8
Cut
  6
ByLayer
 62
  256
370
   -1
100
AcDbLine
 10
531
 20
141.0363957064837
 11
531
 21
125.9999999999994
  0
LINE
  5
7C
100
AcDbEntity
  8
5mm Acrylic
  6
ByLayer
 62
  256
370
   -1
100
AcDbLine
 10
265
 20
175
 11
265
 21
170
  0
LINE
  5
7D
100
AcDbEntity
  8
5mm Acrylic
  6
ByLayer
 62
  256
370
   -1
100
AcDbLine
 10
265
 20
170
 11
245
 21
170
  0
LINE
  5
7E
100
AcDbEntity
  8
5mm Acrylic
  6
ByLayer
 62
  256
370
   -1
100
AcDbLine
 10
245
 20
170
 11
245
 21
175
  0
LINE
  5
7F
100
AcDbEntity
  8
5mm Acrylic
  6
ByLayer
 62
  256
370
   -1
100
AcDbLine
 10
245
 20
175
 11
265
 21
175
  0
LINE
  5
80
100
AcDbEntity
  8
5mm Acrylic
  6
ByLayer
 62
  256
370
   -1
100
AcDbLine
 10
252.5
 20
165
 11
257.5
 21
165
  0
LINE
  5
81
100
AcDbEntity
  8
5mm Acrylic
  6
ByLayer
 62
  256
370
   -1
100
AcDbLine
 10
257.5
 20
165
 11
257.5
 21
160
  0
LINE
  5
82
100
AcDbEntity
  8
5mm Acrylic
  6
ByLayer
 62
  256
370
   -1
100
AcDbLine
 10
257.5
 20
160
 11
252.5
 21
160
  0
LINE
  5
83
100
AcDbEntity
  8
5mm Acrylic
  6
ByLayer
 62
  256
370
   -1
100
AcDbLine
 10
252.5
 20
160
 11
252.5
 21
165
  0
LINE
  5
84
100
AcDbEntity
  8
5mm Acrylic
  6
ByLayer
 62
  256
370
   -1
100
AcDbLine
 10
488.5
 20
111.0363957064837
 11
488.5
 21
121.0363957064837
  0
LINE
  5
85
100
AcDbEntity
  8
5mm Acrylic
  6
ByLayer
 62
  256
370
   -1
100
AcDbLine
 10
493.5
 20
111.0363957064837
 11
493.5
 21
121.0363957064837
  0
LWPOLYLINE
  5
86
100
AcDbEntity
  8
5mm Acrylic
  6
ByLayer
 62
  256
370
   -1
100
AcDbPolyline
 90
    9
 70
    0
 43
0
 10
494
 20
151.0363957064837
 10
488
 20
151.0363957064837
 42
0.414213562373095
 10
487
 20
150.0363957064837
 10
487
 20
147.0363957064837
 42
0.414213562373095
 10
488
 20
146.0363957064837
 10
494
 20
146.0363957064837
 42
0.414213562373095
 10
495
 20
147.0363957064837
 10
495
 20
150.0363957064837
 42
0.414213562373095
 10
494
 20
151.0363957064837
 42
0.414213562373095
  0
LINE
  5
87
100
AcDbEntity
  8
5mm Acrylic
  6
ByLayer
 62
  256
370
   -1
100
AcDbLine
 10
488.5
 20
146.0363957064837
 11
493
 21
146.0363957064837
  0
LINE
  5
88
100
AcDbEntity
  8
5mm Acrylic
  6
ByLayer
 62
  256
370
   -1
100
AcDbLine
 10
488.5
 20
121.0363957064837
 11
493.5
 21
121.0363957064837
  0
LINE
  5
89
100
AcDbEntity
  8
5mm Acrylic
  6
ByLayer
 62
  256
370
   -1
100
AcDbLine
 10
493.5
 20
111.0363957064837
 11
488.5
 21
111.0363957064837
  0
LINE
  5
8A
100
AcDbEntity
  8
5mm Acrylic
  6
ByLayer
 62
  256
370
   -1
100
AcDbLine
 10
526
 20
141.0363957064837
 11
526
 21
145.0363957064837
  0
LINE
  5
8B
100
AcDbEntity
  8
5mm Acrylic
  6
ByLayer
 62
  256
370
   -1
100
AcDbLine
 10
525
 20
146.0363957064837
 11
522
 21
146.0363957064837
  0
LINE
  5
8C
100
AcDbEntity
  8
5mm Acrylic
  6
ByLayer
 62
  256
370
   -1
100
AcDbLine
 10
521
 20
145.0363957064837
 11
521
 21
141.0363957064837
  0
ARC
  5
8D
100
AcDbEntity
  8
5mm Acrylic
  6
ByLayer
 62
  256
370
   -1
100
AcDbCircle
 10
525
 20
145.0363957064837
 40
1
100
AcDbArc
 50
0
 51
90
  0
ARC
  5
8E
100
AcDbEntity
  8
5mm Acrylic
  6
ByLayer
 62
  256
370
   -1
100
AcDbCircle
 10
522
 20
145.0363957064837
 40
1
100
AcDbArc
 50
90
 51
180
  0
LINE
  5
8F
100
AcDbEntity
  8
3mm Acrylic
  6
ByLayer
 62
  256
370
   -1
100
AcDbLine
 10
492.5
 20
111.0363957064837
 11
492.5
 21
121.0363957064837
  0
LINE
  5
90
100
AcDbEntity
  8
3mm Acrylic
  6
ByLayer
 62
  256
370
   -1
100
AcDbLine
 10
489.5
 20
111.0363957064837
 11
489.5
 21
121.0363957064837
  0
LINE
  5
91
100
AcDbEntity
  8
3mm Acrylic
  6
ByLayer
 62
  256
370
   -1
100
AcDbLine
 10
256.5
 20
165
 11
256.5
 21
160
  0
LINE
  5
92
100
AcDbEntity
  8
3mm Acrylic
  6
ByLayer
 62
  256
370
   -1
100
AcDbLine
 10
253.5
 20
160
 11
253.5
 21
165
  0
LINE
  5
93
100
AcDbEntity
  8
3mm Acrylic
  6
ByLayer
 62
  256
370
   -1
100
AcDbLine
 10
513
 20
111.0363957064837
 11
513
 21
121.0363957064837
  0
LINE
  5
94
100
AcDbEntity
  8
3mm Acrylic
  6
ByLayer
 62
  256
370
   -1
100
AcDbLine
 10
245
 20
173
 11
265
 21
173
  0
LINE
  5
95
100
AcDbEntity
  8
3mm Acrylic
  6
ByLayer
 62
  256
370
   -1
100
AcDbLine
 10
526
 20
141.0363957064837
 11
526
 21
143
  0
LINE
  5
96
100
AcDbEntity
  8
3mm Acrylic
  6
ByLayer
 62
  256
370
   -1
100
AcDbLine
 10
521
 20
141.0363957064837
 11
521
 21
143
  0
LINE
  5
97
100
AcDbEntity
  8
3mm Acrylic
  6
ByLayer
 62
  256
370
   -1
100
AcDbLine
 10
516
 20
121.0363957064837
 11
513
 21
121.0363957064837
  0
LINE
  5
98
100
AcDbEntity
  8
3mm Acrylic
  6
ByLayer
 62
  256
370
   -1
100
AcDbLine
 10
516
 20
111.0363957064837
 11
513
 21
111.0363957064837
  0
LINE
  5
99
100
AcDbEntity
  8
5mm Acrylic
  6
ByLayer
 62
  256
370
   -1
100
AcDbLine
 10
511
 20
111.0363957064837
 11
511
 21
121.0363957064837
  0
LINE
  5
9A
100
AcDbEntity
  8
5mm Acrylic
  6
ByLayer
 62
  256
370
   -1
100
AcDbLine
 10
511
 20
121.0363957064837
 11
516
 21
121.0363957064837
  0
LINE
  5
9B
100
AcDbEntity
  8
5mm Acrylic
  6
ByLayer
 62
  256
370
   -1
100
AcDbLine
 10
511
 20
111.0363957064837
 11
516
 21
111.0363957064837
  0
LINE
  5
9C
100
AcDbEntity
  8
3mm Acrylic
  6
ByLayer
 62
  256
370
   -1
100
AcDbLine
 10
489.5
 20
121.0363957064837
 11
492.5
 21
121.0363957064837
  0
LINE
  5
9D
100
AcDbEntity
  8
3mm Acrylic
  6
ByLayer
 62
  256
370
   -1
100
AcDbLine
 10
492.5
 20
111.0363957064837
 11
489.5
 21
111.0363957064837
  0
LINE
  5
9E
100
AcDbEntity
  8
Cut
  6
ByLayer
 62
  256
370
   -1
100
AcDbLine
 10
531
 20
141.0363957064837
 11
526
 21
141.0363957064837
  0
LINE
  5
9F
100
AcDbEntity
  8
Cut
  6
ByLayer
 62
  256
370
   -1
100
AcDbLine
 10
521
 20
141.0363957064837
 11
516
 21
141.0363957064837
  0
ARC
  5
A0
100
AcDbEntity
  8
3mm Acrylic
  6
ByLayer
 62
  256
370
   -1
100
AcDbCircle
 10
525
 20
143
 40
1
100
AcDbArc
 50
0
 51
90
  0
ARC
  5
A1
100
AcDbEntity
  8
3mm Acrylic
  6
ByLayer
 62
  256
370
   -1
100
AcDbCircle
 10
522
 20
143
 40
1
100
AcDbArc
 50
90
 51
180
  0
LINE
  5
A2
100
AcDbEntity
  8
3mm Acrylic
  6
ByLayer
 62
  256
370
   -1
100
AcDbLine
 10
525
 20
144
 11
522
 21
144
  0
LINE
  5
A3
100
AcDbEntity
  8
3mm Acrylic
  6
ByLayer
 62
  256
370
   -1
100
AcDbLine
 10
245
 20
173
 11
245
 21
170
  0
LINE
  5
A4
100
AcDbEntity
  8
3mm Acrylic
  6
ByLayer
 62
  256
370
   -1
100
AcDbLine
 10
245
 20
170
 11
265
 21
170
  0
LINE
  5
A5
100
AcDbEntity
  8
3mm Acrylic
  6
ByLayer
 62
  256
370
   -1
100
AcDbLine
 10
265
 20
170
 11
265
 21
173
  0
LINE
  5
A6
100
AcDbEntity
  8
3mm Acrylic
  6
ByLayer
 62
  256
370
   -1
100
AcDbLine
 10
256.5
 20
165
 11
253.5
 21
165
  0
LINE
  5
A7
100
AcDbEntity
  8
3mm Acrylic
  6
ByLayer
 62
  256
370
   -1
100
AcDbLine
 10
256.5
 20
160
 11
253.5
 21
160
  0
CIRCLE
  5
A8
100
AcDbEntity
  8
Cut
  6
ByLayer
 62
  256
370
   -1
100
AcDbCircle
 10
220
 20
170
 40
8
  0
LINE
  5
A9
100
AcDbEntity
  8
3mm Acrylic
  6
ByLayer
 62
  256
370
   -1
100
AcDbLine
 10
495
 20
145
 11
495
 21
146
  0
LINE
  5
AA
100
AcDbEntity
  8
3mm Acrylic
  6
ByLayer
 62
  256
370
   -1
100
AcDbLine
 10
487
 20
146
 11
487
 21
145
  0
ARC
  5
AB
100
AcDbEntity
  8
3mm Acrylic
  6
ByLayer
 62
  256
370
   -1
100
AcDbCircle
 10
494
 20
146
 40
1
100
AcDbArc
 50
0
 51
90
  0
ARC
  5
AC
100
AcDbEntity
  8
3mm Acrylic
  6
ByLayer
 62
  256
370
   -1
100
AcDbCircle
 10
488
 20
146
 40
1
100
AcDbArc
 50
90
 51
180
  0
ARC
  5
AD
100
AcDbEntity
  8
3mm Acrylic
  6
ByLayer
 62
  256
370
   -1
100
AcDbCircle
 10
488
 20
145
 40
1
100
AcDbArc
 50
180
 51
270
  0
ARC
  5
AE
100
AcDbEntity
  8
3mm Acrylic
  6
ByLayer
 62
  256
370
   -1
100
AcDbCircle
 10
494
 20
145
 40
1
100
AcDbArc
 50
270
 51
0
  0
LINE
  5
AF
100
AcDbEntity
  8
3mm Acrylic
  6
ByLayer
 62
  256
370
   -1
100
AcDbLine
 10
488
 20
147
 11
494
 21
147
  0
LINE
  5
B0
100
AcDbEntity
  8
3mm Acrylic
  6
ByLayer
 62
  256
370
   -1
100
AcDbLine
 10
488
 20
144
 11
494
 21
144
  0
ARC
  5
B1
100
AcDbEntity
  8
Cut
  6
ByLayer
 62
  256
370
   -1
100
AcDbCircle
 10
482.1008130618745
 20
97.50203348170146
 40
2.5
100
AcDbArc
 50
167.5781784782105
 51
120.4218215217645
  0
ARC
  5
B2
100
AcDbEntity
  8
Cut
  6
ByLayer
 62
  256
370
   -1
100
AcDbCircle
 10
479.9999999999987
 20
91.03639570648357
 40
2.5
100
AcDbArc
 50
203.5781784784076
 51
156.4218215219159
  0
ARC
  5
B3
100
AcDbEntity
  8
Cut
  6
ByLayer
 62
  256
370
   -1
100
AcDbCircle
 10
482.1008130618744
 20
84.57075793126558
 40
2.5
100
AcDbArc
 50
239.5781784781492
 51
192.4218215216459
  0
ARC
  5
B4
100
AcDbEntity
  8
Cut
  6
ByLayer
 62
  256
370
   -1
100
AcDbCircle
 10
487.6008130618744
 20
80.5747740272335
 40
2.5
100
AcDbArc
 50
275.5781784781752
 51
228.4218215219148
  0
ARC
  5
B5
100
AcDbEntity
  8
Cut
  6
ByLayer
 62
  256
370
   -1
100
AcDbCircle
 10
494.3991869381248
 20
80.57477402723521
 40
2.5
100
AcDbArc
 50
311.5781784781956
 51
264.4218215218251
  0
ARC
  5
B6
100
AcDbEntity
  8
Cut
  6
ByLayer
 62
  256
370
   -1
100
AcDbCircle
 10
499.8991869381256
 20
84.57075793126546
 40
2.5
100
AcDbArc
 50
347.5781784780705
 51
300.4218215217996
  0
ARC
  5
B7
100
AcDbEntity
  8
Cut
  6
ByLayer
 62
  256
370
   -1
100
AcDbCircle
 10
502.0000000000014
 20
91.03639570648369
 40
2.5
100
AcDbArc
 50
23.57817847842698
 51
336.4218215220233
  0
ARC
  5
B8
100
AcDbEntity
  8
Cut
  6
ByLayer
 62
  256
370
   -1
100
AcDbCircle
 10
499.8991869381255
 20
97.50203348170157
 40
2.5
100
AcDbArc
 50
59.5781784782857
 51
12.4218215216719
  0
ARC
  5
B9
100
AcDbEntity
  8
Cut
  6
ByLayer
 62
  256
370
   -1
100
AcDbCircle
 10
490.9999999999999
 20
91.03639570648346
 40
13.3288533882127
100
AcDbArc
 50
4.302670706701424
 51
31.69732929331715
  0
ARC
  5
BA
100
AcDbEntity
  8
Cut
  6
ByLayer
 62
  256
370
   -1
100
AcDbCircle
 10
491
 20
91.03639570648346
 40
13.3288533882151
100
AcDbArc
 50
40.30267070667585
 51
47.52822929153245
  0
ARC
  5
BB
100
AcDbEntity
  8
Cut
  6
ByLayer
 62
  256
370
   -1
100
AcDbCircle
 10
491
 20
91.03639570648346
 40
13.32885338821767
100
AcDbArc
 50
328.3026707066699
 51
355.6973292933313
  0
ARC
  5
BC
100
AcDbEntity
  8
Cut
  6
ByLayer
 62
  256
370
   -1
100
AcDbCircle
 10
491
 20
91.03639570648346
 40
13.32885338821067
100
AcDbArc
 50
132.4717707084768
 51
139.6973292933333
  0
ARC
  5
BD
100
AcDbEntity
  8
Cut
  6
ByLayer
 62
  256
370
   -1
100
AcDbCircle
 10
490.9999999999999
 20
91.03639570648346
 40
13.32885338821551
100
AcDbArc
 50
148.3026707066619
 51
175.6973292933335
  0
ARC
  5
BE
100
AcDbEntity
  8
Cut
  6
ByLayer
 62
  256
370
   -1
100
AcDbCircle
 10
491
 20
91.03639570648369
 40
13.32885338821275
100
AcDbArc
 50
184.3026707066975
 51
211.6973292933339
  0
ARC
  5
BF
100
AcDbEntity
  8
Cut
  6
ByLayer
 62
  256
370
   -1
100
AcDbCircle
 10
491
 20
91.03639570648346
 40
13.32885338821528
100
AcDbArc
 50
220.3026707066657
 51
247.697329293307
  0
ARC
  5
C0
100
AcDbEntity
  8
Cut
  6
ByLayer
 62
  256
370
   -1
100
AcDbCircle
 10
490.9999999999999
 20
91.03639570648346
 40
13.32885338821517
100
AcDbArc
 50
256.3026707066927
 51
283.697329293329
  0
ARC
  5
C1
100
AcDbEntity
  8
Cut
  6
ByLayer
 62
  256
370
   -1
100
AcDbCircle
 10
491
 20
91.03639570648346
 40
13.32885338821512
100
AcDbArc
 50
292.3026707066705
 51
319.6973292933399
  0
LINE
  5
C2
100
AcDbEntity
  8
Cut
  6
ByLayer
 62
  256
370
   -1
100
AcDbLine
 10
482
 20
131.0363957064837
 11
482
 21
100.8678926751242
  0
LINE
  5
C3
100
AcDbEntity
  8
Cut
  6
ByLayer
 62
  256
370
   -1
100
AcDbLine
 10
500
 20
100.8678926751333
 11
500
 21
131.0363957064837
  0
ARC
  5
C4
100
AcDbEntity
  8
Cut
  6
ByLayer
 62
  256
370
   -1
100
AcDbCircle
 10
482.1008130618747
 20
67.46563777521777
 40
2.5
100
AcDbArc
 50
167.5781784782105
 51
120.4218215217645
  0
ARC
  5
C5
100
AcDbEntity
  8
Cut
  6
ByLayer
 62
  256
370
   -1
100
AcDbCircle
 10
479.9999999999989
 20
60.99999999999989
 40
2.5
100
AcDbArc
 50
203.5781784784076
 51
156.4218215219159
  0
ARC
  5
C6
100
AcDbEntity
  8
Cut
  6
ByLayer
 62
  256
370
   -1
100
AcDbCircle
 10
482.1008130618746
 20
54.53436222478189
 40
2.5
100
AcDbArc
 50
239.5781784781492
 51
192.4218215216459
  0
ARC
  5
C7
100
AcDbEntity
  8
Cut
  6
ByLayer
 62
  256
370
   -1
100
AcDbCircle
 10
487.6008130618746
 20
50.53837832074981
 40
2.5
100
AcDbArc
 50
275.5781784781752
 51
228.4218215219148
  0
ARC
  5
C8
100
AcDbEntity
  8
Cut
  6
ByLayer
 62
  256
370
   -1
100
AcDbCircle
 10
494.399186938125
 20
50.53837832075152
 40
2.5
100
AcDbArc
 50
311.5781784781956
 51
264.4218215218251
  0
ARC
  5
C9
100
AcDbEntity
  8
Cut
  6
ByLayer
 62
  256
370
   -1
100
AcDbCircle
 10
499.8991869381258
 20
54.53436222478177
 40
2.5
100
AcDbArc
 50
347.5781784780705
 51
300.4218215217996
  0
ARC
  5
CA
100
AcDbEntity
  8
Cut
  6
ByLayer
 62
  256
370
   -1
100
AcDbCircle
 10
502.0000000000016
 20
61
 40
2.5
100
AcDbArc
 50
23.57817847842698
 51
336.4218215220233
  0
ARC
  5
CB
100
AcDbEntity
  8
Cut
  6
ByLayer
 62
  256
370
   -1
100
AcDbCircle
 10
499.8991869381258
 20
67.46563777521789
 40
2.5
100
AcDbArc
 50
59.5781784782857
 51
12.4218215216719
  0
ARC
  5
CC
100
AcDbEntity
  8
Cut
  6
ByLayer
 62
  256
370
   -1
100
AcDbCircle
 10
491.0000000000001
 20
60.99999999999977
 40
13.3288533882127
100
AcDbArc
 50
4.302670706701424
 51
31.69732929331715
  0
ARC
  5
CD
100
AcDbEntity
  8
Cut
  6
ByLayer
 62
  256
370
   -1
100
AcDbCircle
 10
491.0000000000002
 20
60.99999999999977
 40
13.32885338821767
100
AcDbArc
 50
328.3026707066699
 51
355.6973292933313
  0
ARC
  5
CE
100
AcDbEntity
  8
Cut
  6
ByLayer
 62
  256
370
   -1
100
AcDbCircle
 10
491.0000000000001
 20
60.99999999999977
 40
13.32885338821551
100
AcDbArc
 50
148.3026707066619
 51
175.6973292933335
  0
ARC
  5
CF
100
AcDbEntity
  8
Cut
  6
ByLayer
 62
  256
370
   -1
100
AcDbCircle
 10
491.0000000000002
 20
61
 40
13.32885338821275
100
AcDbArc
 50
184.3026707066975
 51
211.6973292933339
  0
ARC
  5
D0
100
AcDbEntity
  8
Cut
  6
ByLayer
 62
  256
370
   -1
100
AcDbCircle
 10
491.0000000000002
 20
60.99999999999977
 40
13.32885338821528
100
AcDbArc
 50
220.3026707066657
 51
247.697329293307
  0
ARC
  5
D1
100
AcDbEntity
  8
Cut
  6
ByLayer
 62
  256
370
   -1
100
AcDbCircle
 10
491.0000000000001
 20
60.99999999999977
 40
13.32885338821517
100
AcDbArc
 50
256.3026707066927
 51
283.697329293329
  0
ARC
  5
D2
100
AcDbEntity
  8
Cut
  6
ByLayer
 62
  256
370
   -1
100
AcDbCircle
 10
491.0000000000002
 20
60.99999999999977
 40
13.32885338821512
100
AcDbArc
 50
292.3026707066705
 51
319.6973292933399
  0
ARC
  5
D3
100
AcDbEntity
  8
Cut
  6
ByLayer
 62
  256
370
   -1
100
AcDbCircle
 10
482.1008130618746
 20
36.46563777521764
 40
2.5
100
AcDbArc
 50
167.5781784782105
 51
120.4218215217645
  0
ARC
  5
D4
100
AcDbEntity
  8
Cut
  6
ByLayer
 62
  256
370
   -1
100
AcDbCircle
 10
479.9999999999988
 20
29.99999999999975
 40
2.5
100
AcDbArc
 50
203.5781784784076
 51
156.4218215219159
  0
ARC
  5
D5
100
AcDbEntity
  8
Cut
  6
ByLayer
 62
  256
370
   -1
100
AcDbCircle
 10
482.1008130618745
 20
23.53436222478176
 40
2.5
100
AcDbArc
 50
239.5781784781492
 51
192.4218215216459
  0
ARC
  5
D6
100
AcDbEntity
  8
Cut
  6
ByLayer
 62
  256
370
   -1
100
AcDbCircle
 10
487.6008130618745
 20
19.53837832074968
 40
2.5
100
AcDbArc
 50
275.5781784781752
 51
228.4218215219148
  0
ARC
  5
D7
100
AcDbEntity
  8
Cut
  6
ByLayer
 62
  256
370
   -1
100
AcDbCircle
 10
494.3991869381249
 20
19.53837832075139
 40
2.5
100
AcDbArc
 50
311.5781784781956
 51
264.4218215218251
  0
ARC
  5
D8
100
AcDbEntity
  8
Cut
  6
ByLayer
 62
  256
370
   -1
100
AcDbCircle
 10
499.8991869381257
 20
23.53436222478164
 40
2.5
100
AcDbArc
 50
347.5781784780705
 51
300.4218215217996
  0
ARC
  5
D9
100
AcDbEntity
  8
Cut
  6
ByLayer
 62
  256
370
   -1
100
AcDbCircle
 10
502.0000000000015
 20
29.99999999999987
 40
2.5
100
AcDbArc
 50
23.57817847842698
 51
336.4218215220233
  0
ARC
  5
DA
100
AcDbEntity
  8
Cut
  6
ByLayer
 62
  256
370
   -1
100
AcDbCircle
 10
499.8991869381256
 20
36.46563777521776
 40
2.5
100
AcDbArc
 50
59.5781784782857
 51
12.4218215216719
  0
ARC
  5
DB
100
AcDbEntity
  8
Cut
  6
ByLayer
 62
  256
370
   -1
100
AcDbCircle
 10
491
 20
29.99999999999964
 40
13.3288533882127
100
AcDbArc
 50
4.302670706701424
 51
31.69732929331715
  0
ARC
  5
DC
100
AcDbEntity
  8
Cut
  6
ByLayer
 62
  256
370
   -1
100
AcDbCircle
 10
491.0000000000001
 20
29.99999999999964
 40
13.32885338821767
100
AcDbArc
 50
328.3026707066699
 51
355.6973292933313
  0
ARC
  5
DD
100
AcDbEntity
  8
Cut
  6
ByLayer
 62
  256
370
   -1
100
AcDbCircle
 10
491
 20
29.99999999999964
 40
13.32885338821551
100
AcDbArc
 50
148.3026707066619
 51
175.6973292933335
  0
ARC
  5
DE
100
AcDbEntity
  8
Cut
  6
ByLayer
 62
  256
370
   -1
100
AcDbCircle
 10
491.0000000000001
 20
29.99999999999987
 40
13.32885338821275
100
AcDbArc
 50
184.3026707066975
 51
211.6973292933339
  0
ARC
  5
DF
100
AcDbEntity
  8
Cut
  6
ByLayer
 62
  256
370
   -1
100
AcDbCircle
 10
491.0000000000001
 20
29.99999999999964
 40
13.32885338821528
100
AcDbArc
 50
220.3026707066657
 51
247.697329293307
  0
ARC
  5
E0
100
AcDbEntity
  8
Cut
  6
ByLayer
 62
  256
370
   -1
100
AcDbCircle
 10
491
 20
29.99999999999964
 40
13.32885338821517
100
AcDbArc
 50
256.3026707066927
 51
283.697329293329
  0
ARC
  5
E1
100
AcDbEntity
  8
Cut
  6
ByLayer
 62
  256
370
   -1
100
AcDbCircle
 10
491.0000000000001
 20
29.99999999999964
 40
13.32885338821512
100
AcDbArc
 50
292.3026707066705
 51
319.6973292933399
  0
ARC
  5
E2
100
AcDbEntity
  8
Cut
  6
ByLayer
 62
  256
370
   -1
100
AcDbCircle
 10
491
 20
29.99999999999964
 40
13.32885338821469
100
AcDbArc
 50
40.30267070667552
 51
139.6973292933331
  0
ARC
  5
E3
100
AcDbEntity
  8
Cut
  6
ByLayer
 62
  256
370
   -1
100
AcDbCircle
 10
491.0000000000002
 20
60.99999999999977
 40
13.32885338821461
100
AcDbArc
 50
40.30267070667585
 51
139.6973292933334
  0
CIRCLE
  5
E4
100
AcDbEntity
  8
cable straps
  6
ByLayer
 62
  256
370
   -1
100
AcDbCircle
 10
90
 20
90
 40
2.5
  0
CIRCLE
  5
E5
100
AcDbEntity
  8
cable straps
  6
ByLayer
 62
  256
370
   -1
100
AcDbCircle
 10
110
 20
90
 40
2.5
  0
CIRCLE
  5
E6
100
AcDbEntity
  8
cable straps
  6
ByLayer
 62
  256
370
   -1
100
AcDbCircle
 10
90
 20
170
 40
2.5
  0
CIRCLE
  5
E7
100
AcDbEntity
  8
cable straps
  6
ByLayer
 62
  256
370
   -1
100
AcDbCircle
 10
110
 20
170
 40
2.5
  0
CIRCLE
  5
E8
100
AcDbEntity
  8
cable straps
  6
ByLayer
 62
  256
370
   -1
100
AcDbCircle
 10
120
 20
245
 40
2.5
  0
CIRCLE
  5
E9
100
AcDbEntity
  8
cable straps
  6
ByLayer
 62
  256
370
   -1
100
AcDbCircle
 10
120
 20
265
 40
2.5
  0
CIRCLE
  5
EA
100
AcDbEntity
  8
cable straps
  6
ByLayer
 62
  256
370
   -1
100
AcDbCircle
 10
170
 20
170
 40
2.5
  0
CIRCLE
  5
EB
100
AcDbEntity
  8
cable straps
  6
ByLayer
 62
  256
370
   -1
100
AcDbCircle
 10
190
 20
170
 40
2.5
  0
CIRCLE
  5
EC
100
AcDbEntity
  8
cable straps
  6
ByLayer
 62
  256
370
   -1
100
AcDbCircle
 10
170
 20
90
 40
2.5
  0
CIRCLE
  5
ED
100
AcDbEntity
  8
cable straps
  6
ByLayer
 62
  256
370
   -1
100
AcDbCircle
 10
190
 20
90
 40
2.5
  0
CIRCLE
  5
EE
100
AcDbEntity
  8
cable straps
  6
ByLayer
 62
  256
370
   -1
100
AcDbCircle
 10
210
 20
240
 40
2.5
  0
CIRCLE
  5
EF
100
AcDbEntity
  8
cable straps
  6
ByLayer
 62
  256
370
   -1
100
AcDbCircle
 10
210
 20
270
 40
2.5
  0
ARC
  5
F0
100
AcDbEntity
  8
Cut
  6
ByLayer
 62
  256
370
   -1
100
AcDbCircle
 10
356
 20
30
 40
2.5
100
AcDbArc
 50
113.578178478135
 51
66.42182152189012
  0
ARC
  5
F1
100
AcDbEntity
  8
Cut
  6
ByLayer
 62
  256
370
   -1
100
AcDbCircle
 10
356
 20
45
 40
2.5
100
AcDbArc
 50
113.5781784783246
 51
246.421821521677
  0
ARC
  5
F2
100
AcDbEntity
  8
Cut
  6
ByLayer
 62
  256
370
   -1
100
AcDbCircle
 10
356
 20
40
 40
2.5
100
AcDbArc
 50
113.5781784782589
 51
246.4218215217416
  0
ARC
  5
F3
100
AcDbEntity
  8
Cut
  6
ByLayer
 62
  256
370
   -1
100
AcDbCircle
 10
356
 20
35
 40
2.5
100
AcDbArc
 50
113.5781784781961
 51
246.4218215218036
  0
ARC
  5
F4
100
AcDbEntity
  8
Cut
  6
ByLayer
 62
  256
370
   -1
100
AcDbCircle
 10
356
 20
45
 40
2.5
100
AcDbArc
 50
293.5781784782292
 51
66.42182152170668
  0
ARC
  5
F5
100
AcDbEntity
  8
Cut
  6
ByLayer
 62
  256
370
   -1
100
AcDbCircle
 10
356
 20
40
 40
2.5
100
AcDbArc
 50
293.5781784782925
 51
66.42182152182863
  0
ARC
  5
F6
100
AcDbEntity
  8
Cut
  6
ByLayer
 62
  256
370
   -1
100
AcDbCircle
 10
356
 20
35
 40
2.5
100
AcDbArc
 50
293.5781784781709
 51
66.42182152189014
  0
ARC
  5
F7
100
AcDbEntity
  8
Cut
  6
ByLayer
 62
  256
370
   -1
100
AcDbCircle
 10
364
 20
30
 40
2.5
100
AcDbArc
 50
113.578178478135
 51
66.42182152189012
  0
ARC
  5
F8
100
AcDbEntity
  8
Cut
  6
ByLayer
 62
  256
370
   -1
100
AcDbCircle
 10
364
 20
45
 40
2.5
100
AcDbArc
 50
113.5781784783246
 51
246.421821521677
  0
ARC
  5
F9
100
AcDbEntity
  8
Cut
  6
ByLayer
 62
  256
370
   -1
100
AcDbCircle
 10
364
 20
40
 40
2.5
100
AcDbArc
 50
113.5781784782589
 51
246.4218215217416
  0
ARC
  5
FA
100
AcDbEntity
  8
Cut
  6
ByLayer
 62
  256
370
   -1
100
AcDbCircle
 10
364
 20
35
 40
2.5
100
AcDbArc
 50
113.5781784781961
 51
246.4218215218036
  0
ARC
  5
FB
100
AcDbEntity
  8
Cut
  6
ByLayer
 62
  256
370
   -1
100
AcDbCircle
 10
364
 20
45
 40
2.5
100
AcDbArc
 50
293.5781784782292
 51
66.42182152170668
  0
ARC
  5
FC
100
AcDbEntity
  8
Cut
  6
ByLayer
 62
  256
370
   -1
100
AcDbCircle
 10
364
 20
40
 40
2.5
100
AcDbArc
 50
293.5781784782925
 51
66.42182152182863
  0
ARC
  5
FD
100
AcDbEntity
  8
Cut
  6
ByLayer
 62
  256
370
   -1
100
AcDbCircle
 10
364
 20
35
 40
2.5
100
AcDbArc
 50
293.5781784781709
 51
66.42182152189014
  0
LINE
  5
FE
100
AcDbEntity
  8
Cut
  6
ByLayer
 62
  256
370
   -1
100
AcDbLine
 10
354.9999999999952
 20
42.70871215252419
 11
354.9999999999977
 21
42.29128784747692
  0
LINE
  5
FF
100
AcDbEntity
  8
Cut
  6
ByLayer
 62
  256
370
   -1
100
AcDbLine
 10
354.9999999999977
 20
37.70871215252307
 11
355.0000000000002
 21
37.29128784747802
  0
LINE
  5
100
100
AcDbEntity
  8
Cut
  6
ByLayer
 62
  256
370
   -1
100
AcDbLine
 10
357.0000000000011
 20
42.70871215252256
 11
356.9999999999988
 21
42.29128784747845
  0
LINE
  5
101
100
AcDbEntity
  8
Cut
  6
ByLayer
 62
  256
370
   -1
100
AcDbLine
 10
357.0000000000036
 20
37.70871215252366
 11
356.9999999999963
 21
37.29128784747952
  0
LINE
  5
102
100
AcDbEntity
  8
Cut
  6
ByLayer
 62
  256
370
   -1
100
AcDbLine
 10
355.0000000000002
 20
32.70871215252198
 11
355.0000000000027
 21
32.29128784747908
  0
LINE
  5
103
100
AcDbEntity
  8
Cut
  6
ByLayer
 62
  256
370
   -1
100
AcDbLine
 10
356.9999999999987
 20
32.70871215252154
 11
356.9999999999963
 21
32.29128784747952
  0
LINE
  5
104
100
AcDbEntity
  8
Cut
  6
ByLayer
 62
  256
370
   -1
100
AcDbLine
 10
362.9999999999952
 20
42.70871215252419
 11
362.9999999999977
 21
42.29128784747692
  0
LINE
  5
105
100
AcDbEntity
  8
Cut
  6
ByLayer
 62
  256
370
   -1
100
AcDbLine
 10
362.9999999999977
 20
37.70871215252307
 11
363.0000000000002
 21
37.29128784747802
  0
LINE
  5
106
100
AcDbEntity
  8
Cut
  6
ByLayer
 62
  256
370
   -1
100
AcDbLine
 10
365.0000000000011
 20
42.70871215252256
 11
364.9999999999988
 21
42.29128784747845
  0
LINE
  5
107
100
AcDbEntity
  8
Cut
  6
ByLayer
 62
  256
370
   -1
100
AcDbLine
 10
365.0000000000036
 20
37.70871215252366
 11
364.9999999999963
 21
37.29128784747952
  0
LINE
  5
108
100
AcDbEntity
  8
Cut
  6
ByLayer
 62
  256
370
   -1
100
AcDbLine
 10
364.9999999999987
 20
32.70871215252154
 11
364.9999999999963
 21
32.29128784747952
  0
LINE
  5
109
100
AcDbEntity
  8
Cut
  6
ByLayer
 62
  256
370
   -1
100
AcDbLine
 10
363.0000000000002
 20
32.70871215252198
 11
363.0000000000027
 21
32.29128784747908
  0
LINE
  5
10A
100
AcDbEntity
  8
Cut
  6
ByLayer
 62
  256
370
   -1
100
AcDbLine
 10
370
 20
48
 11
370
 21
25
  0
ARC
  5
10B
100
AcDbEntity
  8
Cut
  6
ByLayer
 62
  256
370
   -1
100
AcDbCircle
 10
368
 20
48
 40
2
100
AcDbArc
 50
0
 51
90
  0
LINE
  5
10C
100
AcDbEntity
  8
Cut
  6
ByLayer
 62
  256
370
   -1
100
AcDbLine
 10
367.0000000000027
 20
50
 11
368
 21
50
  0
LINE
  5
10D
100
AcDbEntity
  8
Cut
  6
ByLayer
 62
  256
370
   -1
100
AcDbLine
 10
365.0000000000036
 20
47.29128784747633
 11
365.0000000000027
 21
47.99999999999731
  0
ARC
  5
10E
100
AcDbEntity
  8
Cut
  6
ByLayer
 62
  256
370
   -1
100
AcDbCircle
 10
367.0000000000027
 20
48
 40
2
100
AcDbArc
 50
90
 51
180.0000000000769
  0
LINE
  5
10F
100
AcDbEntity
  8
Cut
  6
ByLayer
 62
  256
370
   -1
100
AcDbLine
 10
362.9999999999951
 20
47.29128784747578
 11
362.9999999999964
 21
47.99999999999639
  0
ARC
  5
110
100
AcDbEntity
  8
Cut
  6
ByLayer
 62
  256
370
   -1
100
AcDbCircle
 10
360.9999999999964
 20
48
 40
2
100
AcDbArc
 50
359.9999999998966
 51
90
  0
LINE
  5
111
100
AcDbEntity
  8
Cut
  6
ByLayer
 62
  256
370
   -1
100
AcDbLine
 10
360.9999999999964
 20
50
 11
359.0000000000027
 21
50
  0
LINE
  5
112
100
AcDbEntity
  8
Cut
  6
ByLayer
 62
  256
370
   -1
100
AcDbLine
 10
357.0000000000036
 20
47.29128784747633
 11
357.0000000000027
 21
47.99999999999731
  0
ARC
  5
113
100
AcDbEntity
  8
Cut
  6
ByLayer
 62
  256
370
   -1
100
AcDbCircle
 10
359.0000000000027
 20
48
 40
2
100
AcDbArc
 50
90
 51
180.0000000000769
  0
LINE
  5
114
100
AcDbEntity
  8
Cut
  6
ByLayer
 62
  256
370
   -1
100
AcDbLine
 10
354.9999999999951
 20
47.29128784747578
 11
354.9999999999964
 21
47.99999999999639
  0
ARC
  5
115
100
AcDbEntity
  8
Cut
  6
ByLayer
 62
  256
370
   -1
100
AcDbCircle
 10
352.9999999999964
 20
48
 40
2
100
AcDbArc
 50
359.9999999998966
 51
90
  0
LINE
  5
116
100
AcDbEntity
  8
Cut
  6
ByLayer
 62
  256
370
   -1
100
AcDbLine
 10
352.9999999999964
 20
50
 11
352
 21
50
  0
LINE
  5
117
100
AcDbEntity
  8
Cut
  6
ByLayer
 62
  256
370
   -1
100
AcDbLine
 10
350
 20
25
 11
350
 21
48
  0
ARC
  5
118
100
AcDbEntity
  8
Cut
  6
ByLayer
 62
  256
370
   -1
100
AcDbCircle
 10
352
 20
48
 40
2
100
AcDbArc
 50
90
 51
180
  0
LINE
  5
119
100
AcDbEntity
  8
Cut
  6
ByLayer
 62
  256
370
   -1
100
AcDbLine
 10
367
 20
25
 11
370
 21
25
  0
LINE
  5
11A
100
AcDbEntity
  8
Cut
  6
ByLayer
 62
  256
370
   -1
100
AcDbLine
 10
350
 20
25
 11
353
 21
25
  0
LINE
  5
11B
100
AcDbEntity
  8
Cut
  6
ByLayer
 62
  256
370
   -1
100
AcDbLine
 10
353
 20
9
 11
367
 21
9
  0
LINE
  5
11C
100
AcDbEntity
  8
Cut
  6
ByLayer
 62
  256
370
   -1
100
AcDbLine
 10
367
 20
9
 11
367
 21
5
  0
LINE
  5
11D
100
AcDbEntity
  8
Cut
  6
ByLayer
 62
  256
370
   -1
100
AcDbLine
 10
367
 20
5
 11
363
 21
5
  0
LINE
  5
11E
100
AcDbEntity
  8
Cut
  6
ByLayer
 62
  256
370
   -1
100
AcDbLine
 10
357
 20
5
 11
353
 21
5
  0
LINE
  5
11F
100
AcDbEntity
  8
Cut
  6
ByLayer
 62
  256
370
   -1
100
AcDbLine
 10
353
 20
5
 11
353
 21
9
  0
LWPOLYLINE
  5
120
100
AcDbEntity
  8
5mm Acrylic
  6
ByLayer
 62
  256
370
   -1
100
AcDbPolyline
 90
    4
 70
    1
 43
0
 10
357
 20
15
 10
363
 20
15
 10
363
 20
20
 10
357
 20
20
  0
LINE
  5
121
100
AcDbEntity
  8
5mm Acrylic
  6
ByLayer
 62
  256
370
   -1
100
AcDbLine
 10
353
 20
11
 11
367
 21
11
  0
LWPOLYLINE
  5
122
100
AcDbEntity
  8
3mm Acrylic
  6
ByLayer
 62
  256
370
   -1
100
AcDbPolyline
 90
    4
 70
    1
 43
0
 10
363
 20
22
 10
357
 20
22
 10
357
 20
19
 10
363
 20
19
  0
LINE
  5
123
100
AcDbEntity
  8
3mm Acrylic
  6
ByLayer
 62
  256
370
   -1
100
AcDbLine
 10
353
 20
15
 11
367
 21
15
  0
LINE
  5
124
100
AcDbEntity
  8
Cut
  6
ByLayer
 62
  256
370
   -1
100
AcDbLine
 10
367
 20
15
 11
367
 21
25
  0
LINE
  5
125
100
AcDbEntity
  8
Cut
  6
ByLayer
 62
  256
370
   -1
100
AcDbLine
 10
353
 20
25
 11
353
 21
15
  0
LINE
  5
126
100
AcDbEntity
  8
5mm Acrylic
  6
ByLayer
 62
  256
370
   -1
100
AcDbLine
 10
353
 20
15
 11
353
 21
11
  0
LINE
  5
127
100
AcDbEntity
  8
5mm Acrylic
  6
ByLayer
 62
  256
370
   -1
100
AcDbLine
 10
367
 20
11
 11
367
 21
15
  0
ARC
  5
128
100
AcDbEntity
  8
Cut
  6
ByLayer
 62
  256
370
   -1
100
AcDbCircle
 10
356
 20
85
 40
2.5
100
AcDbArc
 50
113.578178478135
 51
66.42182152189012
  0
ARC
  5
129
100
AcDbEntity
  8
Cut
  6
ByLayer
 62
  256
370
   -1
100
AcDbCircle
 10
356
 20
90
 40
2.5
100
AcDbArc
 50
113.5781784781961
 51
246.4218215218036
  0
ARC
  5
12A
100
AcDbEntity
  8
Cut
  6
ByLayer
 62
  256
370
   -1
100
AcDbCircle
 10
356
 20
90
 40
2.5
100
AcDbArc
 50
293.5781784781709
 51
66.42182152189014
  0
ARC
  5
12B
100
AcDbEntity
  8
Cut
  6
ByLayer
 62
  256
370
   -1
100
AcDbCircle
 10
364
 20
85
 40
2.5
100
AcDbArc
 50
113.578178478135
 51
66.42182152189012
  0
ARC
  5
12C
100
AcDbEntity
  8
Cut
  6
ByLayer
 62
  256
370
   -1
100
AcDbCircle
 10
364
 20
90
 40
2.5
100
AcDbArc
 50
113.5781784781961
 51
246.4218215218036
  0
ARC
  5
12D
100
AcDbEntity
  8
Cut
  6
ByLayer
 62
  256
370
   -1
100
AcDbCircle
 10
364
 20
90
 40
2.5
100
AcDbArc
 50
293.5781784781709
 51
66.42182152189014
  0
LINE
  5
12E
100
AcDbEntity
  8
Cut
  6
ByLayer
 62
  256
370
   -1
100
AcDbLine
 10
367
 20
80
 11
370
 21
80
  0
LINE
  5
12F
100
AcDbEntity
  8
Cut
  6
ByLayer
 62
  256
370
   -1
100
AcDbLine
 10
350
 20
80
 11
353
 21
80
  0
LINE
  5
130
100
AcDbEntity
  8
Cut
  6
ByLayer
 62
  256
370
   -1
100
AcDbLine
 10
353
 20
64
 11
367
 21
64
  0
LINE
  5
131
100
AcDbEntity
  8
Cut
  6
ByLayer
 62
  256
370
   -1
100
AcDbLine
 10
367
 20
64
 11
367
 21
60
  0
LINE
  5
132
100
AcDbEntity
  8
Cut
  6
ByLayer
 62
  256
370
   -1
100
AcDbLine
 10
367
 20
60
 11
363
 21
60
  0
LINE
  5
133
100
AcDbEntity
  8
Cut
  6
ByLayer
 62
  256
370
   -1
100
AcDbLine
 10
357
 20
60
 11
353
 21
60
  0
LINE
  5
134
100
AcDbEntity
  8
Cut
  6
ByLayer
 62
  256
370
   -1
100
AcDbLine
 10
353
 20
60
 11
353
 21
64
  0
LINE
  5
135
100
AcDbEntity
  8
Cut
  6
ByLayer
 62
  256
370
   -1
100
AcDbLine
 10
355.0000000000002
 20
87.70871215252198
 11
355.0000000000027
 21
87.29128784747908
  0
LINE
  5
136
100
AcDbEntity
  8
Cut
  6
ByLayer
 62
  256
370
   -1
100
AcDbLine
 10
356.9999999999963
 20
87.29128784747952
 11
356.9999999999987
 21
87.70871215252154
  0
LINE
  5
137
100
AcDbEntity
  8
Cut
  6
ByLayer
 62
  256
370
   -1
100
AcDbLine
 10
363.0000000000002
 20
87.70871215252198
 11
363.0000000000027
 21
87.29128784747908
  0
LINE
  5
138
100
AcDbEntity
  8
Cut
  6
ByLayer
 62
  256
370
   -1
100
AcDbLine
 10
364.9999999999963
 20
87.29128784747952
 11
364.9999999999987
 21
87.70871215252154
  0
LINE
  5
139
100
AcDbEntity
  8
Cut
  6
ByLayer
 62
  256
370
   -1
100
AcDbLine
 10
350
 20
80
 11
350
 21
93
  0
ARC
  5
13A
100
AcDbEntity
  8
Cut
  6
ByLayer
 62
  256
370
   -1
100
AcDbCircle
 10
352
 20
93
 40
2
100
AcDbArc
 50
90
 51
180
  0
LINE
  5
13B
100
AcDbEntity
  8
Cut
  6
ByLayer
 62
  256
370
   -1
100
AcDbLine
 10
355.0000000000002
 20
92.29128784747802
 11
355.0000000000002
 21
93.00000000000017
  0
LINE
  5
13C
100
AcDbEntity
  8
Cut
  6
ByLayer
 62
  256
370
   -1
100
AcDbLine
 10
353.0000000000002
 20
95
 11
352
 21
95
  0
ARC
  5
13D
100
AcDbEntity
  8
Cut
  6
ByLayer
 62
  256
370
   -1
100
AcDbCircle
 10
353.0000000000002
 20
93
 40
2
100
AcDbArc
 50
4.885331990727962e-12
 51
90
  0
LINE
  5
13E
100
AcDbEntity
  8
Cut
  6
ByLayer
 62
  256
370
   -1
100
AcDbLine
 10
356.9999999999973
 20
93.00000000000273
 11
356.9999999999963
 21
92.29128784747952
  0
ARC
  5
13F
100
AcDbEntity
  8
Cut
  6
ByLayer
 62
  256
370
   -1
100
AcDbCircle
 10
358.9999999999973
 20
93
 40
2
100
AcDbArc
 50
90
 51
179.9999999999218
  0
LINE
  5
140
100
AcDbEntity
  8
Cut
  6
ByLayer
 62
  256
370
   -1
100
AcDbLine
 10
363.0000000000002
 20
92.29128784747802
 11
363.0000000000002
 21
93.00000000000017
  0
LINE
  5
141
100
AcDbEntity
  8
Cut
  6
ByLayer
 62
  256
370
   -1
100
AcDbLine
 10
361.0000000000002
 20
95
 11
358.9999999999973
 21
95
  0
ARC
  5
142
100
AcDbEntity
  8
Cut
  6
ByLayer
 62
  256
370
   -1
100
AcDbCircle
 10
361.0000000000002
 20
93
 40
2
100
AcDbArc
 50
4.885331990727962e-12
 51
90
  0
LINE
  5
143
100
AcDbEntity
  8
Cut
  6
ByLayer
 62
  256
370
   -1
100
AcDbLine
 10
364.9999999999963
 20
92.29128784747952
 11
364.9999999999973
 21
93.00000000000273
  0
ARC
  5
144
100
AcDbEntity
  8
Cut
  6
ByLayer
 62
  256
370
   -1
100
AcDbCircle
 10
366.9999999999973
 20
93
 40
2
100
AcDbArc
 50
90
 51
179.9999999999218
  0
LINE
  5
145
100
AcDbEntity
  8
Cut
  6
ByLayer
 62
  256
370
   -1
100
AcDbLine
 10
370
 20
93
 11
370
 21
80
  0
LINE
  5
146
100
AcDbEntity
  8
Cut
  6
ByLayer
 62
  256
370
   -1
100
AcDbLine
 10
368
 20
95
 11
366.9999999999973
 21
95
  0
ARC
  5
147
100
AcDbEntity
  8
Cut
  6
ByLayer
 62
  256
370
   -1
100
AcDbCircle
 10
368
 20
93
 40
2
100
AcDbArc
 50
0
 51
90
  0
LWPOLYLINE
  5
148
100
AcDbEntity
  8
5mm Acrylic
  6
ByLayer
 62
  256
370
   -1
100
AcDbPolyline
 90
    4
 70
    1
 43
0
 10
357
 20
70
 10
363
 20
70
 10
363
 20
75
 10
357
 20
75
  0
LINE
  5
149
100
AcDbEntity
  8
5mm Acrylic
  6
ByLayer
 62
  256
370
   -1
100
AcDbLine
 10
353
 20
66
 11
367
 21
66
  0
LWPOLYLINE
  5
14A
100
AcDbEntity
  8
3mm Acrylic
  6
ByLayer
 62
  256
370
   -1
100
AcDbPolyline
 90
    4
 70
    1
 43
0
 10
363
 20
77
 10
357
 20
77
 10
357
 20
74
 10
363
 20
74
  0
LINE
  5
14B
100
AcDbEntity
  8
3mm Acrylic
  6
ByLayer
 62
  256
370
   -1
100
AcDbLine
 10
353
 20
70
 11
367
 21
70
  0
LINE
  5
14C
100
AcDbEntity
  8
Cut
  6
ByLayer
 62
  256
370
   -1
100
AcDbLine
 10
367
 20
70
 11
367
 21
80
  0
LINE
  5
14D
100
AcDbEntity
  8
Cut
  6
ByLayer
 62
  256
370
   -1
100
AcDbLine
 10
353
 20
80
 11
353
 21
70
  0
LINE
  5
14E
100
AcDbEntity
  8
5mm Acrylic
  6
ByLayer
 62
  256
370
   -1
100
AcDbLine
 10
353
 20
70
 11
353
 21
66
  0
LINE
  5
14F
100
AcDbEntity
  8
5mm Acrylic
  6
ByLayer
 62
  256
370
   -1
100
AcDbLine
 10
367
 20
70
 11
367
 21
66
  0
ARC
  5
150
100
AcDbEntity
  8
Cut
  6
ByLayer
 62
  256
370
   -1
100
AcDbCircle
 10
356
 20
130
 40
2.5
100
AcDbArc
 50
113.578178478135
 51
66.42182152189012
  0
ARC
  5
151
100
AcDbEntity
  8
Cut
  6
ByLayer
 62
  256
370
   -1
100
AcDbCircle
 10
364
 20
130
 40
2.5
100
AcDbArc
 50
113.578178478135
 51
66.42182152189012
  0
LINE
  5
152
100
AcDbEntity
  8
Cut
  6
ByLayer
 62
  256
370
   -1
100
AcDbLine
 10
367
 20
125
 11
370
 21
125
  0
LINE
  5
153
100
AcDbEntity
  8
Cut
  6
ByLayer
 62
  256
370
   -1
100
AcDbLine
 10
350
 20
125
 11
353
 21
125
  0
LINE
  5
154
100
AcDbEntity
  8
Cut
  6
ByLayer
 62
  256
370
   -1
100
AcDbLine
 10
353
 20
109
 11
367
 21
109
  0
LINE
  5
155
100
AcDbEntity
  8
Cut
  6
ByLayer
 62
  256
370
   -1
100
AcDbLine
 10
367
 20
109
 11
367
 21
105
  0
LINE
  5
156
100
AcDbEntity
  8
Cut
  6
ByLayer
 62
  256
370
   -1
100
AcDbLine
 10
367
 20
105
 11
363
 21
105
  0
LINE
  5
157
100
AcDbEntity
  8
Cut
  6
ByLayer
 62
  256
370
   -1
100
AcDbLine
 10
357
 20
105
 11
353
 21
105
  0
LINE
  5
158
100
AcDbEntity
  8
Cut
  6
ByLayer
 62
  256
370
   -1
100
AcDbLine
 10
353
 20
105
 11
353
 21
109
  0
ARC
  5
159
100
AcDbEntity
  8
Cut
  6
ByLayer
 62
  256
370
   -1
100
AcDbCircle
 10
359
 20
133
 40
2
100
AcDbArc
 50
90
 51
179.9999999999218
  0
LINE
  5
15A
100
AcDbEntity
  8
Cut
  6
ByLayer
 62
  256
370
   -1
100
AcDbLine
 10
361.0000000000029
 20
135
 11
359
 21
135
  0
ARC
  5
15B
100
AcDbEntity
  8
Cut
  6
ByLayer
 62
  256
370
   -1
100
AcDbCircle
 10
361.0000000000029
 20
133
 40
2
100
AcDbArc
 50
4.885331990727962e-12
 51
90
  0
LINE
  5
15C
100
AcDbEntity
  8
Cut
  6
ByLayer
 62
  256
370
   -1
100
AcDbLine
 10
350
 20
125
 11
350
 21
133.0000007128743
  0
LINE
  5
15D
100
AcDbEntity
  8
Cut
  6
ByLayer
 62
  256
370
   -1
100
AcDbLine
 10
370
 20
132.999997239526
 11
370
 21
125
  0
ARC
  5
15E
100
AcDbEntity
  8
Cut
  6
ByLayer
 62
  256
370
   -1
100
AcDbCircle
 10
351.9999999999998
 20
132.9999999999998
 40
2
100
AcDbArc
 50
90
 51
180
  0
LINE
  5
15F
100
AcDbEntity
  8
Cut
  6
ByLayer
 62
  256
370
   -1
100
AcDbLine
 10
353
 20
134.9999999999998
 11
351.9999999999998
 21
134.9999999999998
  0
ARC
  5
160
100
AcDbEntity
  8
Cut
  6
ByLayer
 62
  256
370
   -1
100
AcDbCircle
 10
353
 20
132.9999999999998
 40
2
100
AcDbArc
 50
4.885331990727962e-12
 51
90
  0
ARC
  5
161
100
AcDbEntity
  8
Cut
  6
ByLayer
 62
  256
370
   -1
100
AcDbCircle
 10
366.9999999999971
 20
132.9999999999998
 40
2
100
AcDbArc
 50
90
 51
179.9999999999218
  0
LINE
  5
162
100
AcDbEntity
  8
Cut
  6
ByLayer
 62
  256
370
   -1
100
AcDbLine
 10
367.9999999999998
 20
134.9999999999998
 11
366.9999999999971
 21
134.9999999999998
  0
ARC
  5
163
100
AcDbEntity
  8
Cut
  6
ByLayer
 62
  256
370
   -1
100
AcDbCircle
 10
367.9999999999998
 20
132.9999999999998
 40
2
100
AcDbArc
 50
0
 51
90
  0
LINE
  5
164
100
AcDbEntity
  8
Cut
  6
ByLayer
 62
  256
370
   -1
100
AcDbLine
 10
355.0000000000027
 20
132.2912878474791
 11
355
 21
133
  0
LINE
  5
165
100
AcDbEntity
  8
Cut
  6
ByLayer
 62
  256
370
   -1
100
AcDbLine
 10
357
 20
133
 11
356.9999999999963
 21
132.2912878474795
  0
LINE
  5
166
100
AcDbEntity
  8
Cut
  6
ByLayer
 62
  256
370
   -1
100
AcDbLine
 10
363.0000000000027
 20
132.2912878474791
 11
363
 21
133
  0
LINE
  5
167
100
AcDbEntity
  8
Cut
  6
ByLayer
 62
  256
370
   -1
100
AcDbLine
 10
364.9999999999971
 20
133.0000000000026
 11
364.9999999999963
 21
132.2912878474795
  0
ARC
  5
168
100
AcDbEntity
  8
Cut
  6
ByLayer
 62
  256
370
   -1
100
AcDbCircle
 10
356
 20
170
 40
2.5
100
AcDbArc
 50
113.578178478135
 51
66.42182152189012
  0
ARC
  5
169
100
AcDbEntity
  8
Cut
  6
ByLayer
 62
  256
370
   -1
100
AcDbCircle
 10
364
 20
170
 40
2.5
100
AcDbArc
 50
113.578178478135
 51
66.42182152189012
  0
LINE
  5
16A
100
AcDbEntity
  8
Cut
  6
ByLayer
 62
  256
370
   -1
100
AcDbLine
 10
367
 20
165
 11
370
 21
165
  0
LINE
  5
16B
100
AcDbEntity
  8
Cut
  6
ByLayer
 62
  256
370
   -1
100
AcDbLine
 10
350
 20
165
 11
353
 21
165
  0
LINE
  5
16C
100
AcDbEntity
  8
Cut
  6
ByLayer
 62
  256
370
   -1
100
AcDbLine
 10
353
 20
149
 11
367
 21
149
  0
LINE
  5
16D
100
AcDbEntity
  8
Cut
  6
ByLayer
 62
  256
370
   -1
100
AcDbLine
 10
367
 20
149
 11
367
 21
145
  0
LINE
  5
16E
100
AcDbEntity
  8
Cut
  6
ByLayer
 62
  256
370
   -1
100
AcDbLine
 10
367
 20
145
 11
363
 21
145
  0
LINE
  5
16F
100
AcDbEntity
  8
Cut
  6
ByLayer
 62
  256
370
   -1
100
AcDbLine
 10
357
 20
145
 11
353
 21
145
  0
LINE
  5
170
100
AcDbEntity
  8
Cut
  6
ByLayer
 62
  256
370
   -1
100
AcDbLine
 10
353
 20
145
 11
353
 21
149
  0
ARC
  5
171
100
AcDbEntity
  8
Cut
  6
ByLayer
 62
  256
370
   -1
100
AcDbCircle
 10
359
 20
173
 40
2
100
AcDbArc
 50
90
 51
179.9999999999218
  0
LINE
  5
172
100
AcDbEntity
  8
Cut
  6
ByLayer
 62
  256
370
   -1
100
AcDbLine
 10
361.0000000000029
 20
175
 11
359
 21
175
  0
ARC
  5
173
100
AcDbEntity
  8
Cut
  6
ByLayer
 62
  256
370
   -1
100
AcDbCircle
 10
361.0000000000029
 20
173
 40
2
100
AcDbArc
 50
4.885331990727962e-12
 51
90
  0
LINE
  5
174
100
AcDbEntity
  8
Cut
  6
ByLayer
 62
  256
370
   -1
100
AcDbLine
 10
350
 20
165
 11
350
 21
173.0000007128743
  0
LINE
  5
175
100
AcDbEntity
  8
Cut
  6
ByLayer
 62
  256
370
   -1
100
AcDbLine
 10
370
 20
172.999997239526
 11
370
 21
165
  0
ARC
  5
176
100
AcDbEntity
  8
Cut
  6
ByLayer
 62
  256
370
   -1
100
AcDbCircle
 10
351.9999999999998
 20
172.9999999999998
 40
2
100
AcDbArc
 50
90
 51
180
  0
LINE
  5
177
100
AcDbEntity
  8
Cut
  6
ByLayer
 62
  256
370
   -1
100
AcDbLine
 10
353
 20
174.9999999999998
 11
351.9999999999998
 21
174.9999999999998
  0
ARC
  5
178
100
AcDbEntity
  8
Cut
  6
ByLayer
 62
  256
370
   -1
100
AcDbCircle
 10
353
 20
172.9999999999998
 40
2
100
AcDbArc
 50
4.885331990727962e-12
 51
90
  0
ARC
  5
179
100
AcDbEntity
  8
Cut
  6
ByLayer
 62
  256
370
   -1
100
AcDbCircle
 10
366.9999999999971
 20
172.9999999999998
 40
2
100
AcDbArc
 50
90
 51
179.9999999999218
  0
LINE
  5
17A
100
AcDbEntity
  8
Cut
  6
ByLayer
 62
  256
370
   -1
100
AcDbLine
 10
367.9999999999998
 20
174.9999999999998
 11
366.9999999999971
 21
174.9999999999998
  0
ARC
  5
17B
100
AcDbEntity
  8
Cut
  6
ByLayer
 62
  256
370
   -1
100
AcDbCircle
 10
367.9999999999998
 20
172.9999999999998
 40
2
100
AcDbArc
 50
0
 51
90
  0
LINE
  5
17C
100
AcDbEntity
  8
Cut
  6
ByLayer
 62
  256
370
   -1
100
AcDbLine
 10
355.0000000000027
 20
172.2912878474791
 11
355
 21
173
  0
LINE
  5
17D
100
AcDbEntity
  8
Cut
  6
ByLayer
 62
  256
370
   -1
100
AcDbLine
 10
357
 20
173
 11
356.9999999999963
 21
172.2912878474795
  0
LINE
  5
17E
100
AcDbEntity
  8
Cut
  6
ByLayer
 62
  256
370
   -1
100
AcDbLine
 10
363.0000000000027
 20
172.2912878474791
 11
363
 21
173
  0
LINE
  5
17F
100
AcDbEntity
  8
Cut
  6
ByLayer
 62
  256
370
   -1
100
AcDbLine
 10
364.9999999999971
 20
173.0000000000026
 11
364.9999999999963
 21
172.2912878474795
  0
LWPOLYLINE
  5
180
100
AcDbEntity
  8
5mm Acrylic
  6
ByLayer
 62
  256
370
   -1
100
AcDbPolyline
 90
    4
 70
    1
 43
0
 10
357
 20
115
 10
363
 20
115
 10
363
 20
120
 10
357
 20
120
  0
LWPOLYLINE
  5
181
100
AcDbEntity
  8
5mm Acrylic
  6
ByLayer
 62
  256
370
   -1
100
AcDbPolyline
 90
    4
 70
    1
 43
0
 10
357
 20
155
 10
363
 20
155
 10
363
 20
160
 10
357
 20
160
  0
LINE
  5
182
100
AcDbEntity
  8
5mm Acrylic
  6
ByLayer
 62
  256
370
   -1
100
AcDbLine
 10
353
 20
111
 11
367
 21
111
  0
LINE
  5
183
100
AcDbEntity
  8
5mm Acrylic
  6
ByLayer
 62
  256
370
   -1
100
AcDbLine
 10
353
 20
151
 11
367
 21
151
  0
LWPOLYLINE
  5
184
100
AcDbEntity
  8
3mm Acrylic
  6
ByLayer
 62
  256
370
   -1
100
AcDbPolyline
 90
    4
 70
    1
 43
0
 10
357
 20
162
 10
363
 20
162
 10
363
 20
159
 10
357
 20
159
  0
LWPOLYLINE
  5
185
100
AcDbEntity
  8
3mm Acrylic
  6
ByLayer
 62
  256
370
   -1
100
AcDbPolyline
 90
    4
 70
    1
 43
0
 10
363
 20
122
 10
357
 20
122
 10
357
 20
119
 10
363
 20
119
  0
LINE
  5
186
100
AcDbEntity
  8
3mm Acrylic
  6
ByLayer
 62
  256
370
   -1
100
AcDbLine
 10
353
 20
115
 11
367
 21
115
  0
LINE
  5
187
100
AcDbEntity
  8
3mm Acrylic
  6
ByLayer
 62
  256
370
   -1
100
AcDbLine
 10
367
 20
155
 11
353
 21
155
  0
LINE
  5
188
100
AcDbEntity
  8
Cut
  6
ByLayer
 62
  256
370
   -1
100
AcDbLine
 10
353
 20
165
 11
353
 21
155
  0
LINE
  5
189
100
AcDbEntity
  8
Cut
  6
ByLayer
 62
  256
370
   -1
100
AcDbLine
 10
367
 20
155
 11
367
 21
165
  0
LINE
  5
18A
100
AcDbEntity
  8
Cut
  6
ByLayer
 62
  256
370
   -1
100
AcDbLine
 10
367
 20
115
 11
367
 21
125
  0
LINE
  5
18B
100
AcDbEntity
  8
Cut
  6
ByLayer
 62
  256
370
   -1
100
AcDbLine
 10
353
 20
125
 11
353
 21
115
  0
LINE
  5
18C
100
AcDbEntity
  8
5mm Acrylic
  6
ByLayer
 62
  256
370
   -1
100
AcDbLine
 10
353
 20
115
 11
353
 21
111
  0
LINE
  5
18D
100
AcDbEntity
  8
5mm Acrylic
  6
ByLayer
 62
  256
370
   -1
100
AcDbLine
 10
367
 20
115
 11
367
 21
111
  0
LINE
  5
18E
100
AcDbEntity
  8
5mm Acrylic
  6
ByLayer
 62
  256
370
   -1
100
AcDbLine
 10
367
 20
155
 11
367
 21
151
  0
LINE
  5
18F
100
AcDbEntity
  8
5mm Acrylic
  6
ByLayer
 62
  256
370
   -1
100
AcDbLine
 10
353
 20
155
 11
353
 21
151
  0
LINE
  5
190
100
AcDbEntity
  8
Cut
  6
ByLayer
 62
  256
370
   -1
100
AcDbLine
 10
367
 20
205
 11
370
 21
205
  0
LINE
  5
191
100
AcDbEntity
  8
Cut
  6
ByLayer
 62
  256
370
   -1
100
AcDbLine
 10
350
 20
205
 11
353
 21
205
  0
LINE
  5
192
100
AcDbEntity
  8
Cut
  6
ByLayer
 62
  256
370
   -1
100
AcDbLine
 10
353
 20
189
 11
367
 21
189
  0
LINE
  5
193
100
AcDbEntity
  8
Cut
  6
ByLayer
 62
  256
370
   -1
100
AcDbLine
 10
367
 20
189
 11
367
 21
185
  0
LINE
  5
194
100
AcDbEntity
  8
Cut
  6
ByLayer
 62
  256
370
   -1
100
AcDbLine
 10
367
 20
185
 11
363
 21
185
  0
LINE
  5
195
100
AcDbEntity
  8
Cut
  6
ByLayer
 62
  256
370
   -1
100
AcDbLine
 10
357
 20
185
 11
353
 21
185
  0
LINE
  5
196
100
AcDbEntity
  8
Cut
  6
ByLayer
 62
  256
370
   -1
100
AcDbLine
 10
353
 20
185
 11
353
 21
189
  0
LINE
  5
197
100
AcDbEntity
  8
Cut
  6
ByLayer
 62
  256
370
   -1
100
AcDbLine
 10
350
 20
205
 11
350
 21
213.0000007128743
  0
LINE
  5
198
100
AcDbEntity
  8
Cut
  6
ByLayer
 62
  256
370
   -1
100
AcDbLine
 10
370
 20
212.999997239526
 11
370
 21
205
  0
ARC
  5
199
100
AcDbEntity
  8
Cut
  6
ByLayer
 62
  256
370
   -1
100
AcDbCircle
 10
351.9999999999998
 20
212.9999999999998
 40
2
100
AcDbArc
 50
90
 51
180
  0
LINE
  5
19A
100
AcDbEntity
  8
Cut
  6
ByLayer
 62
  256
370
   -1
100
AcDbLine
 10
353
 20
214.9999999999998
 11
351.9999999999998
 21
214.9999999999998
  0
LINE
  5
19B
100
AcDbEntity
  8
Cut
  6
ByLayer
 62
  256
370
   -1
100
AcDbLine
 10
367.9999999999998
 20
214.9999999999998
 11
366.9999999999971
 21
214.9999999999998
  0
ARC
  5
19C
100
AcDbEntity
  8
Cut
  6
ByLayer
 62
  256
370
   -1
100
AcDbCircle
 10
367.9999999999998
 20
212.9999999999998
 40
2
100
AcDbArc
 50
0
 51
90
  0
ARC
  5
19D
100
AcDbEntity
  8
Cut
  6
ByLayer
 62
  256
370
   -1
100
AcDbCircle
 10
360
 20
210
 40
2.5
100
AcDbArc
 50
113.578178478135
 51
66.42182152189012
  0
LINE
  5
19E
100
AcDbEntity
  8
Cut
  6
ByLayer
 62
  256
370
   -1
100
AcDbLine
 10
359.0000000000027
 20
212.2912878474791
 11
359.000000000002
 21
213.000000000002
  0
LINE
  5
19F
100
AcDbEntity
  8
Cut
  6
ByLayer
 62
  256
370
   -1
100
AcDbLine
 10
357.0000000000019
 20
215
 11
353
 21
215
  0
ARC
  5
1A0
100
AcDbEntity
  8
Cut
  6
ByLayer
 62
  256
370
   -1
100
AcDbCircle
 10
357.0000000000019
 20
213
 40
2
100
AcDbArc
 50
5.648665114279206e-11
 51
90
  0
LINE
  5
1A1
100
AcDbEntity
  8
Cut
  6
ByLayer
 62
  256
370
   -1
100
AcDbLine
 10
360.9999999999963
 20
212.2912878474795
 11
360.9999999999973
 21
213.0000000000027
  0
LINE
  5
1A2
100
AcDbEntity
  8
Cut
  6
ByLayer
 62
  256
370
   -1
100
AcDbLine
 10
366.9999999999971
 20
214.9999999999998
 11
362.9999999999974
 21
214.9999999999999
  0
ARC
  5
1A3
100
AcDbEntity
  8
Cut
  6
ByLayer
 62
  256
370
   -1
100
AcDbCircle
 10
362.9999999999973
 20
212.9999999999999
 40
2
100
AcDbArc
 50
89.99999999999837
 51
179.9999999999218
  0
LINE
  5
1A4
100
AcDbEntity
  8
Cut
  6
ByLayer
 62
  256
370
   -1
100
AcDbLine
 10
367
 20
245
 11
370
 21
245
  0
LINE
  5
1A5
100
AcDbEntity
  8
Cut
  6
ByLayer
 62
  256
370
   -1
100
AcDbLine
 10
350
 20
245
 11
353
 21
245
  0
LINE
  5
1A6
100
AcDbEntity
  8
Cut
  6
ByLayer
 62
  256
370
   -1
100
AcDbLine
 10
353
 20
229
 11
367
 21
229
  0
LINE
  5
1A7
100
AcDbEntity
  8
Cut
  6
ByLayer
 62
  256
370
   -1
100
AcDbLine
 10
367
 20
229
 11
367
 21
225
  0
LINE
  5
1A8
100
AcDbEntity
  8
Cut
  6
ByLayer
 62
  256
370
   -1
100
AcDbLine
 10
367
 20
225
 11
363
 21
225
  0
LINE
  5
1A9
100
AcDbEntity
  8
Cut
  6
ByLayer
 62
  256
370
   -1
100
AcDbLine
 10
357
 20
225
 11
353
 21
225
  0
LINE
  5
1AA
100
AcDbEntity
  8
Cut
  6
ByLayer
 62
  256
370
   -1
100
AcDbLine
 10
353
 20
225
 11
353
 21
229
  0
LINE
  5
1AB
100
AcDbEntity
  8
Cut
  6
ByLayer
 62
  256
370
   -1
100
AcDbLine
 10
350
 20
245
 11
350
 21
253.0000007128743
  0
LINE
  5
1AC
100
AcDbEntity
  8
Cut
  6
ByLayer
 62
  256
370
   -1
100
AcDbLine
 10
370
 20
252.999997239526
 11
370
 21
245
  0
ARC
  5
1AD
100
AcDbEntity
  8
Cut
  6
ByLayer
 62
  256
370
   -1
100
AcDbCircle
 10
351.9999999999998
 20
252.9999999999998
 40
2
100
AcDbArc
 50
90
 51
180
  0
LINE
  5
1AE
100
AcDbEntity
  8
Cut
  6
ByLayer
 62
  256
370
   -1
100
AcDbLine
 10
353
 20
254.9999999999998
 11
351.9999999999998
 21
254.9999999999998
  0
LINE
  5
1AF
100
AcDbEntity
  8
Cut
  6
ByLayer
 62
  256
370
   -1
100
AcDbLine
 10
367.9999999999998
 20
254.9999999999998
 11
366.9999999999971
 21
254.9999999999998
  0
ARC
  5
1B0
100
AcDbEntity
  8
Cut
  6
ByLayer
 62
  256
370
   -1
100
AcDbCircle
 10
367.9999999999998
 20
252.9999999999998
 40
2
100
AcDbArc
 50
0
 51
90
  0
ARC
  5
1B1
100
AcDbEntity
  8
Cut
  6
ByLayer
 62
  256
370
   -1
100
AcDbCircle
 10
360
 20
250
 40
2.5
100
AcDbArc
 50
113.578178478135
 51
66.42182152189012
  0
LINE
  5
1B2
100
AcDbEntity
  8
Cut
  6
ByLayer
 62
  256
370
   -1
100
AcDbLine
 10
359.0000000000027
 20
252.2912878474791
 11
359.000000000002
 21
253.000000000002
  0
LINE
  5
1B3
100
AcDbEntity
  8
Cut
  6
ByLayer
 62
  256
370
   -1
100
AcDbLine
 10
357.0000000000019
 20
255
 11
353
 21
255
  0
ARC
  5
1B4
100
AcDbEntity
  8
Cut
  6
ByLayer
 62
  256
370
   -1
100
AcDbCircle
 10
357.0000000000019
 20
253
 40
2
100
AcDbArc
 50
5.648665114279206e-11
 51
90
  0
LINE
  5
1B5
100
AcDbEntity
  8
Cut
  6
ByLayer
 62
  256
370
   -1
100
AcDbLine
 10
360.9999999999963
 20
252.2912878474795
 11
360.9999999999973
 21
253.0000000000027
  0
LINE
  5
1B6
100
AcDbEntity
  8
Cut
  6
ByLayer
 62
  256
370
   -1
100
AcDbLine
 10
366.9999999999971
 20
254.9999999999998
 11
362.9999999999974
 21
254.9999999999999
  0
ARC
  5
1B7
100
AcDbEntity
  8
Cut
  6
ByLayer
 62
  256
370
   -1
100
AcDbCircle
 10
362.9999999999973
 20
252.9999999999999
 40
2
100
AcDbArc
 50
89.99999999999837
 51
179.9999999999218
  0
LWPOLYLINE
  5
1B8
100
AcDbEntity
  8
5mm Acrylic
  6
ByLayer
 62
  256
370
   -1
100
AcDbPolyline
 90
    4
 70
    1
 43
0
 10
357
 20
195
 10
363
 20
195
 10
363
 20
200
 10
357
 20
200
  0
LWPOLYLINE
  5
1B9
100
AcDbEntity
  8
5mm Acrylic
  6
ByLayer
 62
  256
370
   -1
100
AcDbPolyline
 90
    4
 70
    1
 43
0
 10
357
 20
235
 10
363
 20
235
 10
363
 20
240
 10
357
 20
240
  0
LINE
  5
1BA
100
AcDbEntity
  8
5mm Acrylic
  6
ByLayer
 62
  256
370
   -1
100
AcDbLine
 10
353
 20
191
 11
367
 21
191
  0
LINE
  5
1BB
100
AcDbEntity
  8
5mm Acrylic
  6
ByLayer
 62
  256
370
   -1
100
AcDbLine
 10
353
 20
231
 11
367
 21
231
  0
LWPOLYLINE
  5
1BC
100
AcDbEntity
  8
3mm Acrylic
  6
ByLayer
 62
  256
370
   -1
100
AcDbPolyline
 90
    4
 70
    1
 43
0
 10
357
 20
242
 10
363
 20
242
 10
363
 20
239
 10
357
 20
239
  0
LWPOLYLINE
  5
1BD
100
AcDbEntity
  8
3mm Acrylic
  6
ByLayer
 62
  256
370
   -1
100
AcDbPolyline
 90
    4
 70
    1
 43
0
 10
357
 20
202
 10
363
 20
202
 10
363
 20
199
 10
357
 20
199
  0
LINE
  5
1BE
100
AcDbEntity
  8
3mm Acrylic
  6
ByLayer
 62
  256
370
   -1
100
AcDbLine
 10
353
 20
195
 11
367
 21
195
  0
LINE
  5
1BF
100
AcDbEntity
  8
3mm Acrylic
  6
ByLayer
 62
  256
370
   -1
100
AcDbLine
 10
367
 20
235
 11
353
 21
235
  0
LINE
  5
1C0
100
AcDbEntity
  8
Cut
  6
ByLayer
 62
  256
370
   -1
100
AcDbLine
 10
353
 20
245
 11
353
 21
235
  0
LINE
  5
1C1
100
AcDbEntity
  8
Cut
  6
ByLayer
 62
  256
370
   -1
100
AcDbLine
 10
367
 20
235
 11
367
 21
245
  0
LINE
  5
1C2
100
AcDbEntity
  8
Cut
  6
ByLayer
 62
  256
370
   -1
100
AcDbLine
 10
367
 20
195
 11
367
 21
205
  0
LINE
  5
1C3
100
AcDbEntity
  8
Cut
  6
ByLayer
 62
  256
370
   -1
100
AcDbLine
 10
353
 20
205
 11
353
 21
195
  0
LINE
  5
1C4
100
AcDbEntity
  8
5mm Acrylic
  6
ByLayer
 62
  256
370
   -1
100
AcDbLine
 10
353
 20
195
 11
353
 21
191
  0
LINE
  5
1C5
100
AcDbEntity
  8
5mm Acrylic
  6
ByLayer
 62
  256
370
   -1
100
AcDbLine
 10
367
 20
195
 11
367
 21
191
  0
LINE
  5
1C6
100
AcDbEntity
  8
5mm Acrylic
  6
ByLayer
 62
  256
370
   -1
100
AcDbLine
 10
353
 20
235
 11
353
 21
231
  0
LINE
  5
1C7
100
AcDbEntity
  8
5mm Acrylic
  6
ByLayer
 62
  256
370
   -1
100
AcDbLine
 10
367
 20
235
 11
367
 21
231
  0
LINE
  5
1C8
100
AcDbEntity
  8
Cut
  6
ByLayer
 62
  256
370
   -1
100
AcDbLine
 10
107
 20
91.5
 11
107
 21
88.5
  0
LINE
  5
1C9
100
AcDbEntity
  8
Cut
  6
ByLayer
 62
  256
370
   -1
100
AcDbLine
 10
93
 20
88.5
 11
93
 21
91.5
  0
LINE
  5
1CA
100
AcDbEntity
  8
5mm Acrylic
  6
ByLayer
 62
  256
370
   -1
100
AcDbLine
 10
93
 20
92.5
 11
93
 21
91.5
  0
LINE
  5
1CB
100
AcDbEntity
  8
5mm Acrylic
  6
ByLayer
 62
  256
370
   -1
100
AcDbLine
 10
107
 20
92.5
 11
107
 21
91.5
  0
LINE
  5
1CC
100
AcDbEntity
  8
5mm Acrylic
  6
ByLayer
 62
  256
370
   -1
100
AcDbLine
 10
107
 20
88.5
 11
107
 21
87.5
  0
LINE
  5
1CD
100
AcDbEntity
  8
5mm Acrylic
  6
ByLayer
 62
  256
370
   -1
100
AcDbLine
 10
93
 20
88.5
 11
93
 21
87.5
  0
LINE
  5
1CE
100
AcDbEntity
  8
5mm Acrylic
  6
ByLayer
 62
  256
370
   -1
100
AcDbLine
 10
107
 20
92.5
 11
93
 21
92.5
  0
LINE
  5
1CF
100
AcDbEntity
  8
5mm Acrylic
  6
ByLayer
 62
  256
370
   -1
100
AcDbLine
 10
107
 20
87.5
 11
93
 21
87.5
  0
LINE
  5
1D0
100
AcDbEntity
  8
3mm Acrylic
  6
ByLayer
 62
  256
370
   -1
100
AcDbLine
 10
107
 20
88.5
 11
93
 21
88.5
  0
LINE
  5
1D1
100
AcDbEntity
  8
3mm Acrylic
  6
ByLayer
 62
  256
370
   -1
100
AcDbLine
 10
107
 20
91.5
 11
93
 21
91.5
  0
LINE
  5
1D2
100
AcDbEntity
  8
Cut
  6
ByLayer
 62
  256
370
   -1
100
AcDbLine
 10
173
 20
91.5
 11
173
 21
88.5
  0
LINE
  5
1D3
100
AcDbEntity
  8
Cut
  6
ByLayer
 62
  256
370
   -1
100
AcDbLine
 10
187
 20
91.5
 11
187
 21
88.5
  0
LINE
  5
1D4
100
AcDbEntity
  8
5mm Acrylic
  6
ByLayer
 62
  256
370
   -1
100
AcDbLine
 10
187
 20
87.5
 11
187
 21
88.5
  0
LINE
  5
1D5
100
AcDbEntity
  8
5mm Acrylic
  6
ByLayer
 62
  256
370
   -1
100
AcDbLine
 10
173
 20
92.5
 11
173
 21
91.5
  0
LINE
  5
1D6
100
AcDbEntity
  8
5mm Acrylic
  6
ByLayer
 62
  256
370
   -1
100
AcDbLine
 10
187
 20
92.5
 11
187
 21
91.5
  0
LINE
  5
1D7
100
AcDbEntity
  8
5mm Acrylic
  6
ByLayer
 62
  256
370
   -1
100
AcDbLine
 10
173
 20
87.5
 11
173
 21
88.5
  0
LINE
  5
1D8
100
AcDbEntity
  8
5mm Acrylic
  6
ByLayer
 62
  256
370
   -1
100
AcDbLine
 10
173
 20
87.5
 11
187
 21
87.5
  0
LINE
  5
1D9
100
AcDbEntity
  8
3mm Acrylic
  6
ByLayer
 62
  256
370
   -1
100
AcDbLine
 10
173
 20
88.5
 11
187
 21
88.5
  0
LINE
  5
1DA
100
AcDbEntity
  8
5mm Acrylic
  6
ByLayer
 62
  256
370
   -1
100
AcDbLine
 10
173
 20
92.5
 11
187
 21
92.5
  0
LINE
  5
1DB
100
AcDbEntity
  8
3mm Acrylic
  6
ByLayer
 62
  256
370
   -1
100
AcDbLine
 10
173
 20
91.5
 11
187
 21
91.5
  0
LINE
  5
1DC
100
AcDbEntity
  8
Cut
  6
ByLayer
 62
  256
370
   -1
100
AcDbLine
 10
173
 20
171.5
 11
173
 21
168.5
  0
LINE
  5
1DD
100
AcDbEntity
  8
Cut
  6
ByLayer
 62
  256
370
   -1
100
AcDbLine
 10
187
 20
171.5
 11
187
 21
168.5
  0
LINE
  5
1DE
100
AcDbEntity
  8
5mm Acrylic
  6
ByLayer
 62
  256
370
   -1
100
AcDbLine
 10
187
 20
167.5
 11
187
 21
168.5
  0
LINE
  5
1DF
100
AcDbEntity
  8
5mm Acrylic
  6
ByLayer
 62
  256
370
   -1
100
AcDbLine
 10
173
 20
172.5
 11
173
 21
171.5
  0
LINE
  5
1E0
100
AcDbEntity
  8
5mm Acrylic
  6
ByLayer
 62
  256
370
   -1
100
AcDbLine
 10
187
 20
172.5
 11
187
 21
171.5
  0
LINE
  5
1E1
100
AcDbEntity
  8
5mm Acrylic
  6
ByLayer
 62
  256
370
   -1
100
AcDbLine
 10
173
 20
167.5
 11
173
 21
168.5
  0
LINE
  5
1E2
100
AcDbEntity
  8
5mm Acrylic
  6
ByLayer
 62
  256
370
   -1
100
AcDbLine
 10
173
 20
167.5
 11
187
 21
167.5
  0
LINE
  5
1E3
100
AcDbEntity
  8
3mm Acrylic
  6
ByLayer
 62
  256
370
   -1
100
AcDbLine
 10
173
 20
168.5
 11
187
 21
168.5
  0
LINE
  5
1E4
100
AcDbEntity
  8
5mm Acrylic
  6
ByLayer
 62
  256
370
   -1
100
AcDbLine
 10
173
 20
172.5
 11
187
 21
172.5
  0
LINE
  5
1E5
100
AcDbEntity
  8
3mm Acrylic
  6
ByLayer
 62
  256
370
   -1
100
AcDbLine
 10
173
 20
171.5
 11
187
 21
171.5
  0
LINE
  5
1E6
100
AcDbEntity
  8
Cut
  6
ByLayer
 62
  256
370
   -1
100
AcDbLine
 10
93
 20
171.5
 11
93
 21
168.5
  0
LINE
  5
1E7
100
AcDbEntity
  8
Cut
  6
ByLayer
 62
  256
370
   -1
100
AcDbLine
 10
107
 20
171.5
 11
107
 21
168.5
  0
LINE
  5
1E8
100
AcDbEntity
  8
5mm Acrylic
  6
ByLayer
 62
  256
370
   -1
100
AcDbLine
 10
107
 20
167.5
 11
107
 21
168.5
  0
LINE
  5
1E9
100
AcDbEntity
  8
5mm Acrylic
  6
ByLayer
 62
  256
370
   -1
100
AcDbLine
 10
93
 20
172.5
 11
93
 21
171.5
  0
LINE
  5
1EA
100
AcDbEntity
  8
5mm Acrylic
  6
ByLayer
 62
  256
370
   -1
100
AcDbLine
 10
107
 20
172.5
 11
107
 21
171.5
  0
LINE
  5
1EB
100
AcDbEntity
  8
5mm Acrylic
  6
ByLayer
 62
  256
370
   -1
100
AcDbLine
 10
93
 20
167.5
 11
93
 21
168.5
  0
LINE
  5
1EC
100
AcDbEntity
  8
5mm Acrylic
  6
ByLayer
 62
  256
370
   -1
100
AcDbLine
 10
93
 20
167.5
 11
107
 21
167.5
  0
LINE
  5
1ED
100
AcDbEntity
  8
3mm Acrylic
  6
ByLayer
 62
  256
370
   -1
100
AcDbLine
 10
93
 20
168.5
 11
107
 21
168.5
  0
LINE
  5
1EE
100
AcDbEntity
  8
5mm Acrylic
  6
ByLayer
 62
  256
370
   -1
100
AcDbLine
 10
93
 20
172.5
 11
107
 21
172.5
  0
LINE
  5
1EF
100
AcDbEntity
  8
3mm Acrylic
  6
ByLayer
 62
  256
370
   -1
100
AcDbLine
 10
93
 20
171.5
 11
107
 21
171.5
  0
LINE
  5
1F0
100
AcDbEntity
  8
Cut
  6
ByLayer
 62
  256
370
   -1
100
AcDbLine
 10
118.5
 20
248
 11
121.5
 21
248
  0
LINE
  5
1F1
100
AcDbEntity
  8
Cut
  6
ByLayer
 62
  256
370
   -1
100
AcDbLine
 10
118.5
 20
262
 11
121.5
 21
262
  0
LINE
  5
1F2
100
AcDbEntity
  8
5mm Acrylic
  6
ByLayer
 62
  256
370
   -1
100
AcDbLine
 10
122.5
 20
262
 11
121.5
 21
262
  0
LINE
  5
1F3
100
AcDbEntity
  8
5mm Acrylic
  6
ByLayer
 62
  256
370
   -1
100
AcDbLine
 10
117.5
 20
248
 11
118.5
 21
248
  0
LINE
  5
1F4
100
AcDbEntity
  8
5mm Acrylic
  6
ByLayer
 62
  256
370
   -1
100
AcDbLine
 10
117.5
 20
262
 11
118.5
 21
262
  0
LINE
  5
1F5
100
AcDbEntity
  8
5mm Acrylic
  6
ByLayer
 62
  256
370
   -1
100
AcDbLine
 10
122.5
 20
248
 11
121.5
 21
248
  0
LINE
  5
1F6
100
AcDbEntity
  8
5mm Acrylic
  6
ByLayer
 62
  256
370
   -1
100
AcDbLine
 10
122.5
 20
248
 11
122.5
 21
262
  0
LINE
  5
1F7
100
AcDbEntity
  8
3mm Acrylic
  6
ByLayer
 62
  256
370
   -1
100
AcDbLine
 10
121.5
 20
248
 11
121.5
 21
262
  0
LINE
  5
1F8
100
AcDbEntity
  8
5mm Acrylic
  6
ByLayer
 62
  256
370
   -1
100
AcDbLine
 10
117.5
 20
248
 11
117.5
 21
262
  0
LINE
  5
1F9
100
AcDbEntity
  8
3mm Acrylic
  6
ByLayer
 62
  256
370
   -1
100
AcDbLine
 10
118.5
 20
248
 11
118.5
 21
262
  0
LINE
  5
1FA
100
AcDbEntity
  8
Cut
  6
ByLayer
 62
  256
370
   -1
100
AcDbLine
 10
208.5
 20
248
 11
211.5
 21
248
  0
LINE
  5
1FB
100
AcDbEntity
  8
Cut
  6
ByLayer
 62
  256
370
   -1
100
AcDbLine
 10
208.5
 20
262
 11
211.5
 21
262
  0
LINE
  5
1FC
100
AcDbEntity
  8
5mm Acrylic
  6
ByLayer
 62
  256
370
   -1
100
AcDbLine
 10
212.5
 20
262
 11
211.5
 21
262
  0
LINE
  5
1FD
100
AcDbEntity
  8
5mm Acrylic
  6
ByLayer
 62
  256
370
   -1
100
AcDbLine
 10
207.5
 20
248
 11
208.5
 21
248
  0
LINE
  5
1FE
100
AcDbEntity
  8
5mm Acrylic
  6
ByLayer
 62
  256
370
   -1
100
AcDbLine
 10
207.5
 20
262
 11
208.5
 21
262
  0
LINE
  5
1FF
100
AcDbEntity
  8
5mm Acrylic
  6
ByLayer
 62
  256
370
   -1
100
AcDbLine
 10
212.5
 20
248
 11
211.5
 21
248
  0
LINE
  5
200
100
AcDbEntity
  8
5mm Acrylic
  6
ByLayer
 62
  256
370
   -1
100
AcDbLine
 10
212.5
 20
248
 11
212.5
 21
262
  0
LINE
  5
201
100
AcDbEntity
  8
3mm Acrylic
  6
ByLayer
 62
  256
370
   -1
100
AcDbLine
 10
211.5
 20
248
 11
211.5
 21
262
  0
LINE
  5
202
100
AcDbEntity
  8
5mm Acrylic
  6
ByLayer
 62
  256
370
   -1
100
AcDbLine
 10
207.5
 20
248
 11
207.5
 21
262
  0
LINE
  5
203
100
AcDbEntity
  8
3mm Acrylic
  6
ByLayer
 62
  256
370
   -1
100
AcDbLine
 10
208.5
 20
248
 11
208.5
 21
262
  0
LINE
  5
204
100
AcDbEntity
  8
Cut
  6
ByLayer
 62
  256
370
   -1
100
AcDbLine
 10
363
 20
218
 11
357
 21
218
  0
LINE
  5
205
100
AcDbEntity
  8
Cut
  6
ByLayer
 62
  256
370
   -1
100
AcDbLine
 10
363
 20
225
 11
363
 21
218
  0
LINE
  5
206
100
AcDbEntity
  8
Cut
  6
ByLayer
 62
  256
370
   -1
100
AcDbLine
 10
357
 20
218
 11
357
 21
225
  0
LINE
  5
207
100
AcDbEntity
  8
Cut
  6
ByLayer
 62
  256
370
   -1
100
AcDbLine
 10
357
 20
178
 11
357
 21
185
  0
LINE
  5
208
100
AcDbEntity
  8
Cut
  6
ByLayer
 62
  256
370
   -1
100
AcDbLine
 10
363
 20
185
 11
363
 21
178
  0
LINE
  5
209
100
AcDbEntity
  8
Cut
  6
ByLayer
 62
  256
370
   -1
100
AcDbLine
 10
363
 20
178
 11
357
 21
178
  0
LINE
  5
20A
100
AcDbEntity
  8
Cut
  6
ByLayer
 62
  256
370
   -1
100
AcDbLine
 10
357
 20
138
 11
357
 21
145
  0
LINE
  5
20B
100
AcDbEntity
  8
Cut
  6
ByLayer
 62
  256
370
   -1
100
AcDbLine
 10
363
 20
145
 11
363
 21
138
  0
LINE
  5
20C
100
AcDbEntity
  8
Cut
  6
ByLayer
 62
  256
370
   -1
100
AcDbLine
 10
363
 20
138
 11
357
 21
138
  0
LINE
  5
20D
100
AcDbEntity
  8
Cut
  6
ByLayer
 62
  256
370
   -1
100
AcDbLine
 10
357
 20
98
 11
357
 21
105
  0
LINE
  5
20E
100
AcDbEntity
  8
Cut
  6
ByLayer
 62
  256
370
   -1
100
AcDbLine
 10
363
 20
105
 11
363
 21
98
  0
LINE
  5
20F
100
AcDbEntity
  8
Cut
  6
ByLayer
 62
  256
370
   -1
100
AcDbLine
 10
363
 20
98
 11
357
 21
98
  0
LINE
  5
210
100
AcDbEntity
  8
Cut
  6
ByLayer
 62
  256
370
   -1
100
AcDbLine
 10
357
 20
53
 11
357
 21
60
  0
LINE
  5
211
100
AcDbEntity
  8
Cut
  6
ByLayer
 62
  256
370
   -1
100
AcDbLine
 10
363
 20
60
 11
363
 21
53
  0
LINE
  5
212
100
AcDbEntity
  8
Cut
  6
ByLayer
 62
  256
370
   -1
100
AcDbLine
 10
363
 20
53
 11
357
 21
53
  0
LINE
  5
213
100
AcDbEntity
  8
Cut
  6
ByLayer
 62
  256
370
   -1
100
AcDbLine
 10
363
 20
5
 11
363
 21
-2
  0
LINE
  5
214
100
AcDbEntity
  8
Cut
  6
ByLayer
 62
  256
370
   -1
100
AcDbLine
 10
357
 20
-2
 11
357
 21
5
  0
LINE
  5
215
100
AcDbEntity
  8
Cut
  6
ByLayer
 62
  256
370
   -1
100
AcDbLine
 10
363
 20
-2
 11
357
 21
-2
  0
LINE
  5
216
100
AcDbEntity
  8
Cut
  6
ByLayer
 62
  256
370
   -1
100
AcDbLine
 10
482
 20
141.0363957064837
 11
482
 21
156
  0
LINE
  5
217
100
AcDbEntity
  8
Cut
  6
ByLayer
 62
  256
370
   -1
100
AcDbLine
 10
500
 20
156
 11
500
 21
141.0363957064837
  0
LINE
  5
218
100
AcDbEntity
  8
Cut
  6
ByLayer
 62
  256
370
   -1
100
AcDbLine
 10
500
 20
156
 11
482
 21
156
  0
LINE
  5
219
100
AcDbEntity
  8
Cut
  6
ByLayer
 62
  256
370
   -1
100
AcDbLine
 10
484
 20
169
 11
498
 21
169
  0
LINE
  5
21A
100
AcDbEntity
  8
Cut
  6
ByLayer
 62
  256
370
   -1
100
AcDbLine
 10
498
 20
169
 11
498
 21
165
  0
LINE
  5
21B
100
AcDbEntity
  8
Cut
  6
ByLayer
 62
  256
370
   -1
100
AcDbLine
 10
498
 20
165
 11
494
 21
165
  0
LINE
  5
21C
100
AcDbEntity
  8
Cut
  6
ByLayer
 62
  256
370
   -1
100
AcDbLine
 10
488
 20
165
 11
484
 21
165
  0
LINE
  5
21D
100
AcDbEntity
  8
Cut
  6
ByLayer
 62
  256
370
   -1
100
AcDbLine
 10
484
 20
165
 11
484
 21
169
  0
LINE
  5
21E
100
AcDbEntity
  8
Cut
  6
ByLayer
 62
  256
370
   -1
100
AcDbLine
 10
488
 20
158
 11
488
 21
165
  0
LINE
  5
21F
100
AcDbEntity
  8
Cut
  6
ByLayer
 62
  256
370
   -1
100
AcDbLine
 10
494
 20
165
 11
494
 21
158
  0
LINE
  5
220
100
AcDbEntity
  8
Cut
  6
ByLayer
 62
  256
370
   -1
100
AcDbLine
 10
494
 20
158
 11
488
 21
158
  0
LINE
  5
221
100
AcDbEntity
  8
0
  6
ByLayer
 62
  256
370
   -1
100
AcDbLine
 10
310
 20
330
 11
310
 21
-7.345211920511587e-14
  0
LINE
  5
222
100
AcDbEntity
  8
0
  6
ByLayer
 62
  256
370
   -1
100
AcDbLine
 10
1.652605960255794e-14
 20
310
 11
330
 21
310
  0
ENDSEC
  0
SECTION
  2
OBJECTS
  0
DICTIONARY
  5
C
330
0
100
AcDbDictionary
281
    1
  3
ACAD_GROUP
350
D
  0
DICTIONARY
  5
D
330
C
100
AcDbDictionary
281
    1
  0
ENDSEC
  0
EOF
